<svg  height="800px" width="100%"  viewBox="0 0 355 455" fill="none" xmlns="http://www.w3.org/2000/svg">
<path d="M84.7723 400V400.5H85.2723H118.363C118.504 400.5 118.639 400.5 118.77 400.5C119.636 400.499 120.3 400.498 120.826 400.541C121.438 400.591 121.763 400.694 121.96 400.844C122.136 400.979 122.283 401.209 122.377 401.719C122.473 402.237 122.5 402.961 122.5 404C122.5 405.042 122.472 405.73 122.378 406.196C122.288 406.644 122.156 406.789 122.017 406.868C121.827 406.976 121.502 407.031 120.863 407.036C120.573 407.038 120.242 407.03 119.853 407.021L119.785 407.02C119.369 407.01 118.897 407 118.363 407H78.1361L78.1362 48.0001L118.363 48C118.5 48 118.636 47.9999 118.771 47.9997C119.679 47.9987 120.527 47.9978 121.308 48.0417C122.204 48.0922 122.972 48.2005 123.598 48.4188C124.216 48.6344 124.674 48.9499 124.986 49.4085C125.3 49.8709 125.5 50.5313 125.5 51.5C125.5 52.4712 125.299 53.0897 124.998 53.4969C124.7 53.8992 124.257 54.1591 123.638 54.3192C123.01 54.4815 122.239 54.5312 121.333 54.5357C120.883 54.5379 120.41 54.5291 119.912 54.5197L119.877 54.519C119.391 54.5097 118.884 54.5001 118.363 54.5001H85.2723H84.7723V55.0001V107.5V108H85.2723H118.363C118.5 108 118.636 108 118.771 108C119.679 107.999 120.527 107.998 121.308 108.042C122.204 108.092 122.972 108.201 123.598 108.419C124.216 108.634 124.674 108.95 124.986 109.409C125.3 109.871 125.5 110.531 125.5 111.5C125.5 112.471 125.299 113.09 124.998 113.497C124.7 113.899 124.257 114.159 123.638 114.319C123.01 114.482 122.239 114.531 121.333 114.536C120.883 114.538 120.41 114.529 119.912 114.52L119.877 114.519C119.391 114.51 118.883 114.5 118.363 114.5H85.2723H84.7723V115V167.5V168H85.2723H118.363C118.5 168 118.636 168 118.771 168C119.679 167.999 120.527 167.998 121.308 168.042C122.204 168.092 122.972 168.201 123.598 168.419C124.216 168.634 124.674 168.95 124.986 169.409C125.3 169.871 125.5 170.531 125.5 171.5C125.5 172.471 125.299 173.09 124.998 173.497C124.7 173.899 124.257 174.159 123.638 174.319C123.01 174.482 122.239 174.531 121.333 174.536C120.883 174.538 120.41 174.529 119.912 174.52L119.88 174.519C119.393 174.51 118.885 174.5 118.363 174.5H85.2723H84.7723V175V227.5V228H85.2723H118.363C118.885 228 119.393 227.99 119.88 227.981L119.912 227.98C120.41 227.971 120.883 227.962 121.333 227.964C122.239 227.969 123.01 228.019 123.638 228.181C124.257 228.341 124.7 228.601 124.998 229.003C125.299 229.41 125.5 230.029 125.5 231C125.5 231.969 125.3 232.629 124.986 233.092C124.674 233.55 124.216 233.866 123.598 234.081C122.972 234.3 122.204 234.408 121.308 234.458C120.527 234.502 119.679 234.501 118.771 234.5C118.636 234.5 118.5 234.5 118.363 234.5H85.2723H84.7723V235V287.5V288H85.2723H118.363C118.5 288 118.636 288 118.771 288C119.679 287.999 120.527 287.998 121.308 288.042C122.204 288.092 122.972 288.201 123.598 288.419C124.216 288.634 124.674 288.95 124.986 289.409C125.3 289.871 125.5 290.531 125.5 291.5C125.5 292.471 125.299 293.09 124.998 293.497C124.7 293.899 124.257 294.159 123.638 294.319C123.01 294.482 122.239 294.531 121.333 294.536C120.883 294.538 120.41 294.529 119.912 294.52L119.88 294.519C119.393 294.51 118.885 294.5 118.363 294.5H85.2723H84.7723V295V347.5V348H85.2723H118.363C118.885 348 119.393 347.99 119.88 347.981L119.912 347.98C120.41 347.971 120.883 347.962 121.333 347.964C122.239 347.969 123.01 348.019 123.638 348.181C124.257 348.341 124.7 348.601 124.998 349.003C125.299 349.41 125.5 350.029 125.5 351C125.5 351.969 125.3 352.629 124.986 353.092C124.674 353.55 124.216 353.866 123.598 354.081C122.972 354.3 122.204 354.408 121.308 354.458C120.527 354.502 119.679 354.501 118.771 354.5C118.636 354.5 118.5 354.5 118.363 354.5H85.2723H84.7723V355V400Z" fill="black" stroke="black"/>
<path d="M347.5 0H7.49955C4.97855 0 2.62555 1.267 1.23855 3.371C-0.149451 5.476 -0.386451 8.137 0.606549 10.454L29.9995 79.04V407.5C29.9995 433.691 51.3085 455 77.4995 455H307.5C333.691 455 355 433.691 355 407.5V7.5C355 3.358 351.643 0 347.5 0ZM340 407.5C340 425.42 325.421 440 307.5 440H77.4995C59.5796 440 44.9995 425.42 44.9995 407.5V77.5C44.9995 76.484 44.7935 75.479 44.3935 74.545L18.8736 15H340V407.5Z" fill="black"/>
<path d="M134.57 403.69C134.57 403.09 134.62 402.465 134.72 401.815C134.82 401.165 135.005 400.575 135.275 400.045C135.545 399.505 135.91 399.065 136.37 398.725C136.84 398.375 137.44 398.2 138.17 398.2C138.9 398.2 139.495 398.375 139.955 398.725C140.425 399.065 140.795 399.505 141.065 400.045C141.335 400.575 141.52 401.165 141.62 401.815C141.72 402.465 141.77 403.09 141.77 403.69C141.77 404.29 141.72 404.915 141.62 405.565C141.52 406.215 141.335 406.81 141.065 407.35C140.795 407.88 140.425 408.32 139.955 408.67C139.495 409.01 138.9 409.18 138.17 409.18C137.44 409.18 136.84 409.01 136.37 408.67C135.91 408.32 135.545 407.88 135.275 407.35C135.005 406.81 134.82 406.215 134.72 405.565C134.62 404.915 134.57 404.29 134.57 403.69ZM135.83 403.69C135.83 403.95 135.84 404.24 135.86 404.56C135.88 404.88 135.915 405.205 135.965 405.535C136.025 405.855 136.105 406.17 136.205 406.48C136.315 406.79 136.455 407.065 136.625 407.305C136.805 407.545 137.02 407.74 137.27 407.89C137.52 408.03 137.82 408.1 138.17 408.1C138.52 408.1 138.82 408.03 139.07 407.89C139.32 407.74 139.53 407.545 139.7 407.305C139.88 407.065 140.02 406.79 140.12 406.48C140.23 406.17 140.31 405.855 140.36 405.535C140.42 405.205 140.46 404.88 140.48 404.56C140.5 404.24 140.51 403.95 140.51 403.69C140.51 403.43 140.5 403.14 140.48 402.82C140.46 402.5 140.42 402.18 140.36 401.86C140.31 401.53 140.23 401.21 140.12 400.9C140.02 400.59 139.88 400.315 139.7 400.075C139.53 399.835 139.32 399.645 139.07 399.505C138.82 399.355 138.52 399.28 138.17 399.28C137.82 399.28 137.52 399.355 137.27 399.505C137.02 399.645 136.805 399.835 136.625 400.075C136.455 400.315 136.315 400.59 136.205 400.9C136.105 401.21 136.025 401.53 135.965 401.86C135.915 402.18 135.88 402.5 135.86 402.82C135.84 403.14 135.83 403.43 135.83 403.69Z" fill="#232626"/>
<path d="M137.06 349.88H137.45C137.71 349.88 137.98 349.86 138.26 349.82C138.55 349.78 138.81 349.695 139.04 349.565C139.28 349.435 139.475 349.25 139.625 349.01C139.785 348.76 139.865 348.435 139.865 348.035C139.865 347.495 139.695 347.07 139.355 346.76C139.025 346.44 138.59 346.28 138.05 346.28C137.6 346.28 137.21 346.38 136.88 346.58C136.55 346.78 136.29 347.075 136.1 347.465L134.885 347C135.145 346.4 135.55 345.95 136.1 345.65C136.66 345.35 137.28 345.2 137.96 345.2C138.38 345.2 138.78 345.26 139.16 345.38C139.55 345.5 139.89 345.675 140.18 345.905C140.47 346.135 140.7 346.425 140.87 346.775C141.04 347.115 141.125 347.515 141.125 347.975C141.125 348.535 140.955 349.04 140.615 349.49C140.285 349.93 139.85 350.235 139.31 350.405V350.435C139.65 350.495 139.95 350.605 140.21 350.765C140.48 350.925 140.71 351.125 140.9 351.365C141.09 351.595 141.235 351.86 141.335 352.16C141.435 352.46 141.485 352.775 141.485 353.105C141.485 353.615 141.39 354.06 141.2 354.44C141.01 354.82 140.755 355.14 140.435 355.4C140.115 355.66 139.74 355.855 139.31 355.985C138.89 356.115 138.445 356.18 137.975 356.18C137.165 356.18 136.46 356.005 135.86 355.655C135.26 355.305 134.825 354.735 134.555 353.945L135.83 353.525C136.01 354.095 136.265 354.5 136.595 354.74C136.925 354.98 137.385 355.1 137.975 355.1C138.275 355.1 138.555 355.05 138.815 354.95C139.075 354.85 139.3 354.71 139.49 354.53C139.69 354.34 139.845 354.12 139.955 353.87C140.075 353.61 140.135 353.325 140.135 353.015C140.135 352.625 140.055 352.3 139.895 352.04C139.745 351.77 139.54 351.56 139.28 351.41C139.03 351.25 138.745 351.135 138.425 351.065C138.105 350.995 137.78 350.96 137.45 350.96H137.06V349.88ZM145.395 349.88H145.785C146.045 349.88 146.315 349.86 146.595 349.82C146.885 349.78 147.145 349.695 147.375 349.565C147.615 349.435 147.81 349.25 147.96 349.01C148.12 348.76 148.2 348.435 148.2 348.035C148.2 347.495 148.03 347.07 147.69 346.76C147.36 346.44 146.925 346.28 146.385 346.28C145.935 346.28 145.545 346.38 145.215 346.58C144.885 346.78 144.625 347.075 144.435 347.465L143.22 347C143.48 346.4 143.885 345.95 144.435 345.65C144.995 345.35 145.615 345.2 146.295 345.2C146.715 345.2 147.115 345.26 147.495 345.38C147.885 345.5 148.225 345.675 148.515 345.905C148.805 346.135 149.035 346.425 149.205 346.775C149.375 347.115 149.46 347.515 149.46 347.975C149.46 348.535 149.29 349.04 148.95 349.49C148.62 349.93 148.185 350.235 147.645 350.405V350.435C147.985 350.495 148.285 350.605 148.545 350.765C148.815 350.925 149.045 351.125 149.235 351.365C149.425 351.595 149.57 351.86 149.67 352.16C149.77 352.46 149.82 352.775 149.82 353.105C149.82 353.615 149.725 354.06 149.535 354.44C149.345 354.82 149.09 355.14 148.77 355.4C148.45 355.66 148.075 355.855 147.645 355.985C147.225 356.115 146.78 356.18 146.31 356.18C145.5 356.18 144.795 356.005 144.195 355.655C143.595 355.305 143.16 354.735 142.89 353.945L144.165 353.525C144.345 354.095 144.6 354.5 144.93 354.74C145.26 354.98 145.72 355.1 146.31 355.1C146.61 355.1 146.89 355.05 147.15 354.95C147.41 354.85 147.635 354.71 147.825 354.53C148.025 354.34 148.18 354.12 148.29 353.87C148.41 353.61 148.47 353.325 148.47 353.015C148.47 352.625 148.39 352.3 148.23 352.04C148.08 351.77 147.875 351.56 147.615 351.41C147.365 351.25 147.08 351.135 146.76 351.065C146.44 350.995 146.115 350.96 145.785 350.96H145.395V349.88ZM152.755 354.29C153.005 354.29 153.215 354.38 153.385 354.56C153.565 354.73 153.655 354.94 153.655 355.19C153.655 355.44 153.56 355.655 153.37 355.835C153.19 356.005 152.985 356.09 152.755 356.09C152.525 356.09 152.315 356.005 152.125 355.835C151.945 355.655 151.855 355.44 151.855 355.19C151.855 354.94 151.94 354.73 152.11 354.56C152.29 354.38 152.505 354.29 152.755 354.29ZM157.905 349.88H158.295C158.555 349.88 158.825 349.86 159.105 349.82C159.395 349.78 159.655 349.695 159.885 349.565C160.125 349.435 160.32 349.25 160.47 349.01C160.63 348.76 160.71 348.435 160.71 348.035C160.71 347.495 160.54 347.07 160.2 346.76C159.87 346.44 159.435 346.28 158.895 346.28C158.445 346.28 158.055 346.38 157.725 346.58C157.395 346.78 157.135 347.075 156.945 347.465L155.73 347C155.99 346.4 156.395 345.95 156.945 345.65C157.505 345.35 158.125 345.2 158.805 345.2C159.225 345.2 159.625 345.26 160.005 345.38C160.395 345.5 160.735 345.675 161.025 345.905C161.315 346.135 161.545 346.425 161.715 346.775C161.885 347.115 161.97 347.515 161.97 347.975C161.97 348.535 161.8 349.04 161.46 349.49C161.13 349.93 160.695 350.235 160.155 350.405V350.435C160.495 350.495 160.795 350.605 161.055 350.765C161.325 350.925 161.555 351.125 161.745 351.365C161.935 351.595 162.08 351.86 162.18 352.16C162.28 352.46 162.33 352.775 162.33 353.105C162.33 353.615 162.235 354.06 162.045 354.44C161.855 354.82 161.6 355.14 161.28 355.4C160.96 355.66 160.585 355.855 160.155 355.985C159.735 356.115 159.29 356.18 158.82 356.18C158.01 356.18 157.305 356.005 156.705 355.655C156.105 355.305 155.67 354.735 155.4 353.945L156.675 353.525C156.855 354.095 157.11 354.5 157.44 354.74C157.77 354.98 158.23 355.1 158.82 355.1C159.12 355.1 159.4 355.05 159.66 354.95C159.92 354.85 160.145 354.71 160.335 354.53C160.535 354.34 160.69 354.12 160.8 353.87C160.92 353.61 160.98 353.325 160.98 353.015C160.98 352.625 160.9 352.3 160.74 352.04C160.59 351.77 160.385 351.56 160.125 351.41C159.875 351.25 159.59 351.135 159.27 351.065C158.95 350.995 158.625 350.96 158.295 350.96H157.905V349.88ZM166.24 349.88H166.63C166.89 349.88 167.16 349.86 167.44 349.82C167.73 349.78 167.99 349.695 168.22 349.565C168.46 349.435 168.655 349.25 168.805 349.01C168.965 348.76 169.045 348.435 169.045 348.035C169.045 347.495 168.875 347.07 168.535 346.76C168.205 346.44 167.77 346.28 167.23 346.28C166.78 346.28 166.39 346.38 166.06 346.58C165.73 346.78 165.47 347.075 165.28 347.465L164.065 347C164.325 346.4 164.73 345.95 165.28 345.65C165.84 345.35 166.46 345.2 167.14 345.2C167.56 345.2 167.96 345.26 168.34 345.38C168.73 345.5 169.07 345.675 169.36 345.905C169.65 346.135 169.88 346.425 170.05 346.775C170.22 347.115 170.305 347.515 170.305 347.975C170.305 348.535 170.135 349.04 169.795 349.49C169.465 349.93 169.03 350.235 168.49 350.405V350.435C168.83 350.495 169.13 350.605 169.39 350.765C169.66 350.925 169.89 351.125 170.08 351.365C170.27 351.595 170.415 351.86 170.515 352.16C170.615 352.46 170.665 352.775 170.665 353.105C170.665 353.615 170.57 354.06 170.38 354.44C170.19 354.82 169.935 355.14 169.615 355.4C169.295 355.66 168.92 355.855 168.49 355.985C168.07 356.115 167.625 356.18 167.155 356.18C166.345 356.18 165.64 356.005 165.04 355.655C164.44 355.305 164.005 354.735 163.735 353.945L165.01 353.525C165.19 354.095 165.445 354.5 165.775 354.74C166.105 354.98 166.565 355.1 167.155 355.1C167.455 355.1 167.735 355.05 167.995 354.95C168.255 354.85 168.48 354.71 168.67 354.53C168.87 354.34 169.025 354.12 169.135 353.87C169.255 353.61 169.315 353.325 169.315 353.015C169.315 352.625 169.235 352.3 169.075 352.04C168.925 351.77 168.72 351.56 168.46 351.41C168.21 351.25 167.925 351.135 167.605 351.065C167.285 350.995 166.96 350.96 166.63 350.96H166.24V349.88ZM174.575 349.88H174.965C175.225 349.88 175.495 349.86 175.775 349.82C176.065 349.78 176.325 349.695 176.555 349.565C176.795 349.435 176.99 349.25 177.14 349.01C177.3 348.76 177.38 348.435 177.38 348.035C177.38 347.495 177.21 347.07 176.87 346.76C176.54 346.44 176.105 346.28 175.565 346.28C175.115 346.28 174.725 346.38 174.395 346.58C174.065 346.78 173.805 347.075 173.615 347.465L172.4 347C172.66 346.4 173.065 345.95 173.615 345.65C174.175 345.35 174.795 345.2 175.475 345.2C175.895 345.2 176.295 345.26 176.675 345.38C177.065 345.5 177.405 345.675 177.695 345.905C177.985 346.135 178.215 346.425 178.385 346.775C178.555 347.115 178.64 347.515 178.64 347.975C178.64 348.535 178.47 349.04 178.13 349.49C177.8 349.93 177.365 350.235 176.825 350.405V350.435C177.165 350.495 177.465 350.605 177.725 350.765C177.995 350.925 178.225 351.125 178.415 351.365C178.605 351.595 178.75 351.86 178.85 352.16C178.95 352.46 179 352.775 179 353.105C179 353.615 178.905 354.06 178.715 354.44C178.525 354.82 178.27 355.14 177.95 355.4C177.63 355.66 177.255 355.855 176.825 355.985C176.405 356.115 175.96 356.18 175.49 356.18C174.68 356.18 173.975 356.005 173.375 355.655C172.775 355.305 172.34 354.735 172.07 353.945L173.345 353.525C173.525 354.095 173.78 354.5 174.11 354.74C174.44 354.98 174.9 355.1 175.49 355.1C175.79 355.1 176.07 355.05 176.33 354.95C176.59 354.85 176.815 354.71 177.005 354.53C177.205 354.34 177.36 354.12 177.47 353.87C177.59 353.61 177.65 353.325 177.65 353.015C177.65 352.625 177.57 352.3 177.41 352.04C177.26 351.77 177.055 351.56 176.795 351.41C176.545 351.25 176.26 351.135 175.94 351.065C175.62 350.995 175.295 350.96 174.965 350.96H174.575V349.88ZM181.935 354.29C182.185 354.29 182.395 354.38 182.565 354.56C182.745 354.73 182.835 354.94 182.835 355.19C182.835 355.44 182.74 355.655 182.55 355.835C182.37 356.005 182.165 356.09 181.935 356.09C181.705 356.09 181.495 356.005 181.305 355.835C181.125 355.655 181.035 355.44 181.035 355.19C181.035 354.94 181.12 354.73 181.29 354.56C181.47 354.38 181.685 354.29 181.935 354.29ZM187.084 349.88H187.474C187.734 349.88 188.004 349.86 188.284 349.82C188.574 349.78 188.834 349.695 189.064 349.565C189.304 349.435 189.499 349.25 189.649 349.01C189.809 348.76 189.889 348.435 189.889 348.035C189.889 347.495 189.719 347.07 189.379 346.76C189.049 346.44 188.614 346.28 188.074 346.28C187.624 346.28 187.234 346.38 186.904 346.58C186.574 346.78 186.314 347.075 186.124 347.465L184.909 347C185.169 346.4 185.574 345.95 186.124 345.65C186.684 345.35 187.304 345.2 187.984 345.2C188.404 345.2 188.804 345.26 189.184 345.38C189.574 345.5 189.914 345.675 190.204 345.905C190.494 346.135 190.724 346.425 190.894 346.775C191.064 347.115 191.149 347.515 191.149 347.975C191.149 348.535 190.979 349.04 190.639 349.49C190.309 349.93 189.874 350.235 189.334 350.405V350.435C189.674 350.495 189.974 350.605 190.234 350.765C190.504 350.925 190.734 351.125 190.924 351.365C191.114 351.595 191.259 351.86 191.359 352.16C191.459 352.46 191.509 352.775 191.509 353.105C191.509 353.615 191.414 354.06 191.224 354.44C191.034 354.82 190.779 355.14 190.459 355.4C190.139 355.66 189.764 355.855 189.334 355.985C188.914 356.115 188.469 356.18 187.999 356.18C187.189 356.18 186.484 356.005 185.884 355.655C185.284 355.305 184.849 354.735 184.579 353.945L185.854 353.525C186.034 354.095 186.289 354.5 186.619 354.74C186.949 354.98 187.409 355.1 187.999 355.1C188.299 355.1 188.579 355.05 188.839 354.95C189.099 354.85 189.324 354.71 189.514 354.53C189.714 354.34 189.869 354.12 189.979 353.87C190.099 353.61 190.159 353.325 190.159 353.015C190.159 352.625 190.079 352.3 189.919 352.04C189.769 351.77 189.564 351.56 189.304 351.41C189.054 351.25 188.769 351.135 188.449 351.065C188.129 350.995 187.804 350.96 187.474 350.96H187.084V349.88ZM195.419 349.88H195.809C196.069 349.88 196.339 349.86 196.619 349.82C196.909 349.78 197.169 349.695 197.399 349.565C197.639 349.435 197.834 349.25 197.984 349.01C198.144 348.76 198.224 348.435 198.224 348.035C198.224 347.495 198.054 347.07 197.714 346.76C197.384 346.44 196.949 346.28 196.409 346.28C195.959 346.28 195.569 346.38 195.239 346.58C194.909 346.78 194.649 347.075 194.459 347.465L193.244 347C193.504 346.4 193.909 345.95 194.459 345.65C195.019 345.35 195.639 345.2 196.319 345.2C196.739 345.2 197.139 345.26 197.519 345.38C197.909 345.5 198.249 345.675 198.539 345.905C198.829 346.135 199.059 346.425 199.229 346.775C199.399 347.115 199.484 347.515 199.484 347.975C199.484 348.535 199.314 349.04 198.974 349.49C198.644 349.93 198.209 350.235 197.669 350.405V350.435C198.009 350.495 198.309 350.605 198.569 350.765C198.839 350.925 199.069 351.125 199.259 351.365C199.449 351.595 199.594 351.86 199.694 352.16C199.794 352.46 199.844 352.775 199.844 353.105C199.844 353.615 199.749 354.06 199.559 354.44C199.369 354.82 199.114 355.14 198.794 355.4C198.474 355.66 198.099 355.855 197.669 355.985C197.249 356.115 196.804 356.18 196.334 356.18C195.524 356.18 194.819 356.005 194.219 355.655C193.619 355.305 193.184 354.735 192.914 353.945L194.189 353.525C194.369 354.095 194.624 354.5 194.954 354.74C195.284 354.98 195.744 355.1 196.334 355.1C196.634 355.1 196.914 355.05 197.174 354.95C197.434 354.85 197.659 354.71 197.849 354.53C198.049 354.34 198.204 354.12 198.314 353.87C198.434 353.61 198.494 353.325 198.494 353.015C198.494 352.625 198.414 352.3 198.254 352.04C198.104 351.77 197.899 351.56 197.639 351.41C197.389 351.25 197.104 351.135 196.784 351.065C196.464 350.995 196.139 350.96 195.809 350.96H195.419V349.88ZM203.754 349.88H204.144C204.404 349.88 204.674 349.86 204.954 349.82C205.244 349.78 205.504 349.695 205.734 349.565C205.974 349.435 206.169 349.25 206.319 349.01C206.479 348.76 206.559 348.435 206.559 348.035C206.559 347.495 206.389 347.07 206.049 346.76C205.719 346.44 205.284 346.28 204.744 346.28C204.294 346.28 203.904 346.38 203.574 346.58C203.244 346.78 202.984 347.075 202.794 347.465L201.579 347C201.839 346.4 202.244 345.95 202.794 345.65C203.354 345.35 203.974 345.2 204.654 345.2C205.074 345.2 205.474 345.26 205.854 345.38C206.244 345.5 206.584 345.675 206.874 345.905C207.164 346.135 207.394 346.425 207.564 346.775C207.734 347.115 207.819 347.515 207.819 347.975C207.819 348.535 207.649 349.04 207.309 349.49C206.979 349.93 206.544 350.235 206.004 350.405V350.435C206.344 350.495 206.644 350.605 206.904 350.765C207.174 350.925 207.404 351.125 207.594 351.365C207.784 351.595 207.929 351.86 208.029 352.16C208.129 352.46 208.179 352.775 208.179 353.105C208.179 353.615 208.084 354.06 207.894 354.44C207.704 354.82 207.449 355.14 207.129 355.4C206.809 355.66 206.434 355.855 206.004 355.985C205.584 356.115 205.139 356.18 204.669 356.18C203.859 356.18 203.154 356.005 202.554 355.655C201.954 355.305 201.519 354.735 201.249 353.945L202.524 353.525C202.704 354.095 202.959 354.5 203.289 354.74C203.619 354.98 204.079 355.1 204.669 355.1C204.969 355.1 205.249 355.05 205.509 354.95C205.769 354.85 205.994 354.71 206.184 354.53C206.384 354.34 206.539 354.12 206.649 353.87C206.769 353.61 206.829 353.325 206.829 353.015C206.829 352.625 206.749 352.3 206.589 352.04C206.439 351.77 206.234 351.56 205.974 351.41C205.724 351.25 205.439 351.135 205.119 351.065C204.799 350.995 204.474 350.96 204.144 350.96H203.754V349.88Z" fill="#232626"/>
<path d="M137.06 290.805L137.09 290.835C137.29 290.725 137.52 290.645 137.78 290.595C138.05 290.545 138.295 290.52 138.515 290.52C138.975 290.52 139.4 290.6 139.79 290.76C140.19 290.92 140.53 291.15 140.81 291.45C141.1 291.74 141.325 292.09 141.485 292.5C141.645 292.91 141.725 293.36 141.725 293.85C141.725 294.37 141.635 294.835 141.455 295.245C141.275 295.655 141.025 296.005 140.705 296.295C140.385 296.575 140.005 296.795 139.565 296.955C139.135 297.105 138.67 297.18 138.17 297.18C137.67 297.18 137.2 297.105 136.76 296.955C136.33 296.795 135.955 296.575 135.635 296.295C135.315 296.005 135.065 295.655 134.885 295.245C134.705 294.835 134.615 294.37 134.615 293.85C134.615 293.24 134.71 292.705 134.9 292.245C135.09 291.785 135.33 291.325 135.62 290.865L138.44 286.38H139.91L137.06 290.805ZM138.17 291.6C137.85 291.6 137.55 291.655 137.27 291.765C136.99 291.865 136.745 292.015 136.535 292.215C136.335 292.405 136.175 292.64 136.055 292.92C135.935 293.2 135.875 293.51 135.875 293.85C135.875 294.2 135.935 294.515 136.055 294.795C136.175 295.065 136.335 295.3 136.535 295.5C136.745 295.69 136.99 295.84 137.27 295.95C137.55 296.05 137.85 296.1 138.17 296.1C138.49 296.1 138.79 296.05 139.07 295.95C139.35 295.84 139.59 295.69 139.79 295.5C140 295.3 140.165 295.065 140.285 294.795C140.405 294.515 140.465 294.2 140.465 293.85C140.465 293.51 140.405 293.2 140.285 292.92C140.165 292.64 140 292.405 139.79 292.215C139.59 292.015 139.35 291.865 139.07 291.765C138.79 291.655 138.49 291.6 138.17 291.6ZM145.395 290.805L145.425 290.835C145.625 290.725 145.855 290.645 146.115 290.595C146.385 290.545 146.63 290.52 146.85 290.52C147.31 290.52 147.735 290.6 148.125 290.76C148.525 290.92 148.865 291.15 149.145 291.45C149.435 291.74 149.66 292.09 149.82 292.5C149.98 292.91 150.06 293.36 150.06 293.85C150.06 294.37 149.97 294.835 149.79 295.245C149.61 295.655 149.36 296.005 149.04 296.295C148.72 296.575 148.34 296.795 147.9 296.955C147.47 297.105 147.005 297.18 146.505 297.18C146.005 297.18 145.535 297.105 145.095 296.955C144.665 296.795 144.29 296.575 143.97 296.295C143.65 296.005 143.4 295.655 143.22 295.245C143.04 294.835 142.95 294.37 142.95 293.85C142.95 293.24 143.045 292.705 143.235 292.245C143.425 291.785 143.665 291.325 143.955 290.865L146.775 286.38H148.245L145.395 290.805ZM146.505 291.6C146.185 291.6 145.885 291.655 145.605 291.765C145.325 291.865 145.08 292.015 144.87 292.215C144.67 292.405 144.51 292.64 144.39 292.92C144.27 293.2 144.21 293.51 144.21 293.85C144.21 294.2 144.27 294.515 144.39 294.795C144.51 295.065 144.67 295.3 144.87 295.5C145.08 295.69 145.325 295.84 145.605 295.95C145.885 296.05 146.185 296.1 146.505 296.1C146.825 296.1 147.125 296.05 147.405 295.95C147.685 295.84 147.925 295.69 148.125 295.5C148.335 295.3 148.5 295.065 148.62 294.795C148.74 294.515 148.8 294.2 148.8 293.85C148.8 293.51 148.74 293.2 148.62 292.92C148.5 292.64 148.335 292.405 148.125 292.215C147.925 292.015 147.685 291.865 147.405 291.765C147.125 291.655 146.825 291.6 146.505 291.6ZM152.755 295.29C153.005 295.29 153.215 295.38 153.385 295.56C153.565 295.73 153.655 295.94 153.655 296.19C153.655 296.44 153.56 296.655 153.37 296.835C153.19 297.005 152.985 297.09 152.755 297.09C152.525 297.09 152.315 297.005 152.125 296.835C151.945 296.655 151.855 296.44 151.855 296.19C151.855 295.94 151.94 295.73 152.11 295.56C152.29 295.38 152.505 295.29 152.755 295.29ZM157.905 290.805L157.935 290.835C158.135 290.725 158.365 290.645 158.625 290.595C158.895 290.545 159.14 290.52 159.36 290.52C159.82 290.52 160.245 290.6 160.635 290.76C161.035 290.92 161.375 291.15 161.655 291.45C161.945 291.74 162.17 292.09 162.33 292.5C162.49 292.91 162.57 293.36 162.57 293.85C162.57 294.37 162.48 294.835 162.3 295.245C162.12 295.655 161.87 296.005 161.55 296.295C161.23 296.575 160.85 296.795 160.41 296.955C159.98 297.105 159.515 297.18 159.015 297.18C158.515 297.18 158.045 297.105 157.605 296.955C157.175 296.795 156.8 296.575 156.48 296.295C156.16 296.005 155.91 295.655 155.73 295.245C155.55 294.835 155.46 294.37 155.46 293.85C155.46 293.24 155.555 292.705 155.745 292.245C155.935 291.785 156.175 291.325 156.465 290.865L159.285 286.38H160.755L157.905 290.805ZM159.015 291.6C158.695 291.6 158.395 291.655 158.115 291.765C157.835 291.865 157.59 292.015 157.38 292.215C157.18 292.405 157.02 292.64 156.9 292.92C156.78 293.2 156.72 293.51 156.72 293.85C156.72 294.2 156.78 294.515 156.9 294.795C157.02 295.065 157.18 295.3 157.38 295.5C157.59 295.69 157.835 295.84 158.115 295.95C158.395 296.05 158.695 296.1 159.015 296.1C159.335 296.1 159.635 296.05 159.915 295.95C160.195 295.84 160.435 295.69 160.635 295.5C160.845 295.3 161.01 295.065 161.13 294.795C161.25 294.515 161.31 294.2 161.31 293.85C161.31 293.51 161.25 293.2 161.13 292.92C161.01 292.64 160.845 292.405 160.635 292.215C160.435 292.015 160.195 291.865 159.915 291.765C159.635 291.655 159.335 291.6 159.015 291.6ZM166.24 290.805L166.27 290.835C166.47 290.725 166.7 290.645 166.96 290.595C167.23 290.545 167.475 290.52 167.695 290.52C168.155 290.52 168.58 290.6 168.97 290.76C169.37 290.92 169.71 291.15 169.99 291.45C170.28 291.74 170.505 292.09 170.665 292.5C170.825 292.91 170.905 293.36 170.905 293.85C170.905 294.37 170.815 294.835 170.635 295.245C170.455 295.655 170.205 296.005 169.885 296.295C169.565 296.575 169.185 296.795 168.745 296.955C168.315 297.105 167.85 297.18 167.35 297.18C166.85 297.18 166.38 297.105 165.94 296.955C165.51 296.795 165.135 296.575 164.815 296.295C164.495 296.005 164.245 295.655 164.065 295.245C163.885 294.835 163.795 294.37 163.795 293.85C163.795 293.24 163.89 292.705 164.08 292.245C164.27 291.785 164.51 291.325 164.8 290.865L167.62 286.38H169.09L166.24 290.805ZM167.35 291.6C167.03 291.6 166.73 291.655 166.45 291.765C166.17 291.865 165.925 292.015 165.715 292.215C165.515 292.405 165.355 292.64 165.235 292.92C165.115 293.2 165.055 293.51 165.055 293.85C165.055 294.2 165.115 294.515 165.235 294.795C165.355 295.065 165.515 295.3 165.715 295.5C165.925 295.69 166.17 295.84 166.45 295.95C166.73 296.05 167.03 296.1 167.35 296.1C167.67 296.1 167.97 296.05 168.25 295.95C168.53 295.84 168.77 295.69 168.97 295.5C169.18 295.3 169.345 295.065 169.465 294.795C169.585 294.515 169.645 294.2 169.645 293.85C169.645 293.51 169.585 293.2 169.465 292.92C169.345 292.64 169.18 292.405 168.97 292.215C168.77 292.015 168.53 291.865 168.25 291.765C167.97 291.655 167.67 291.6 167.35 291.6ZM174.575 290.805L174.605 290.835C174.805 290.725 175.035 290.645 175.295 290.595C175.565 290.545 175.81 290.52 176.03 290.52C176.49 290.52 176.915 290.6 177.305 290.76C177.705 290.92 178.045 291.15 178.325 291.45C178.615 291.74 178.84 292.09 179 292.5C179.16 292.91 179.24 293.36 179.24 293.85C179.24 294.37 179.15 294.835 178.97 295.245C178.79 295.655 178.54 296.005 178.22 296.295C177.9 296.575 177.52 296.795 177.08 296.955C176.65 297.105 176.185 297.18 175.685 297.18C175.185 297.18 174.715 297.105 174.275 296.955C173.845 296.795 173.47 296.575 173.15 296.295C172.83 296.005 172.58 295.655 172.4 295.245C172.22 294.835 172.13 294.37 172.13 293.85C172.13 293.24 172.225 292.705 172.415 292.245C172.605 291.785 172.845 291.325 173.135 290.865L175.955 286.38H177.425L174.575 290.805ZM175.685 291.6C175.365 291.6 175.065 291.655 174.785 291.765C174.505 291.865 174.26 292.015 174.05 292.215C173.85 292.405 173.69 292.64 173.57 292.92C173.45 293.2 173.39 293.51 173.39 293.85C173.39 294.2 173.45 294.515 173.57 294.795C173.69 295.065 173.85 295.3 174.05 295.5C174.26 295.69 174.505 295.84 174.785 295.95C175.065 296.05 175.365 296.1 175.685 296.1C176.005 296.1 176.305 296.05 176.585 295.95C176.865 295.84 177.105 295.69 177.305 295.5C177.515 295.3 177.68 295.065 177.8 294.795C177.92 294.515 177.98 294.2 177.98 293.85C177.98 293.51 177.92 293.2 177.8 292.92C177.68 292.64 177.515 292.405 177.305 292.215C177.105 292.015 176.865 291.865 176.585 291.765C176.305 291.655 176.005 291.6 175.685 291.6ZM181.935 295.29C182.185 295.29 182.395 295.38 182.565 295.56C182.745 295.73 182.835 295.94 182.835 296.19C182.835 296.44 182.74 296.655 182.55 296.835C182.37 297.005 182.165 297.09 181.935 297.09C181.705 297.09 181.495 297.005 181.305 296.835C181.125 296.655 181.035 296.44 181.035 296.19C181.035 295.94 181.12 295.73 181.29 295.56C181.47 295.38 181.685 295.29 181.935 295.29ZM187.084 290.805L187.114 290.835C187.314 290.725 187.544 290.645 187.804 290.595C188.074 290.545 188.319 290.52 188.539 290.52C188.999 290.52 189.424 290.6 189.814 290.76C190.214 290.92 190.554 291.15 190.834 291.45C191.124 291.74 191.349 292.09 191.509 292.5C191.669 292.91 191.749 293.36 191.749 293.85C191.749 294.37 191.659 294.835 191.479 295.245C191.299 295.655 191.049 296.005 190.729 296.295C190.409 296.575 190.029 296.795 189.589 296.955C189.159 297.105 188.694 297.18 188.194 297.18C187.694 297.18 187.224 297.105 186.784 296.955C186.354 296.795 185.979 296.575 185.659 296.295C185.339 296.005 185.089 295.655 184.909 295.245C184.729 294.835 184.639 294.37 184.639 293.85C184.639 293.24 184.734 292.705 184.924 292.245C185.114 291.785 185.354 291.325 185.644 290.865L188.464 286.38H189.934L187.084 290.805ZM188.194 291.6C187.874 291.6 187.574 291.655 187.294 291.765C187.014 291.865 186.769 292.015 186.559 292.215C186.359 292.405 186.199 292.64 186.079 292.92C185.959 293.2 185.899 293.51 185.899 293.85C185.899 294.2 185.959 294.515 186.079 294.795C186.199 295.065 186.359 295.3 186.559 295.5C186.769 295.69 187.014 295.84 187.294 295.95C187.574 296.05 187.874 296.1 188.194 296.1C188.514 296.1 188.814 296.05 189.094 295.95C189.374 295.84 189.614 295.69 189.814 295.5C190.024 295.3 190.189 295.065 190.309 294.795C190.429 294.515 190.489 294.2 190.489 293.85C190.489 293.51 190.429 293.2 190.309 292.92C190.189 292.64 190.024 292.405 189.814 292.215C189.614 292.015 189.374 291.865 189.094 291.765C188.814 291.655 188.514 291.6 188.194 291.6ZM195.419 290.805L195.449 290.835C195.649 290.725 195.879 290.645 196.139 290.595C196.409 290.545 196.654 290.52 196.874 290.52C197.334 290.52 197.759 290.6 198.149 290.76C198.549 290.92 198.889 291.15 199.169 291.45C199.459 291.74 199.684 292.09 199.844 292.5C200.004 292.91 200.084 293.36 200.084 293.85C200.084 294.37 199.994 294.835 199.814 295.245C199.634 295.655 199.384 296.005 199.064 296.295C198.744 296.575 198.364 296.795 197.924 296.955C197.494 297.105 197.029 297.18 196.529 297.18C196.029 297.18 195.559 297.105 195.119 296.955C194.689 296.795 194.314 296.575 193.994 296.295C193.674 296.005 193.424 295.655 193.244 295.245C193.064 294.835 192.974 294.37 192.974 293.85C192.974 293.24 193.069 292.705 193.259 292.245C193.449 291.785 193.689 291.325 193.979 290.865L196.799 286.38H198.269L195.419 290.805ZM196.529 291.6C196.209 291.6 195.909 291.655 195.629 291.765C195.349 291.865 195.104 292.015 194.894 292.215C194.694 292.405 194.534 292.64 194.414 292.92C194.294 293.2 194.234 293.51 194.234 293.85C194.234 294.2 194.294 294.515 194.414 294.795C194.534 295.065 194.694 295.3 194.894 295.5C195.104 295.69 195.349 295.84 195.629 295.95C195.909 296.05 196.209 296.1 196.529 296.1C196.849 296.1 197.149 296.05 197.429 295.95C197.709 295.84 197.949 295.69 198.149 295.5C198.359 295.3 198.524 295.065 198.644 294.795C198.764 294.515 198.824 294.2 198.824 293.85C198.824 293.51 198.764 293.2 198.644 292.92C198.524 292.64 198.359 292.405 198.149 292.215C197.949 292.015 197.709 291.865 197.429 291.765C197.149 291.655 196.849 291.6 196.529 291.6ZM207.894 287.55L203.649 297H202.224L206.544 287.55H201.414V286.38H207.894V287.55Z" fill="#232626"/>
<path d="M139.4 237H138.14V228H138.11L136.205 229.605L135.455 228.69L138.305 226.38H139.4V237ZM142.905 231.69C142.905 231.09 142.955 230.465 143.055 229.815C143.155 229.165 143.34 228.575 143.61 228.045C143.88 227.505 144.245 227.065 144.705 226.725C145.175 226.375 145.775 226.2 146.505 226.2C147.235 226.2 147.83 226.375 148.29 226.725C148.76 227.065 149.13 227.505 149.4 228.045C149.67 228.575 149.855 229.165 149.955 229.815C150.055 230.465 150.105 231.09 150.105 231.69C150.105 232.29 150.055 232.915 149.955 233.565C149.855 234.215 149.67 234.81 149.4 235.35C149.13 235.88 148.76 236.32 148.29 236.67C147.83 237.01 147.235 237.18 146.505 237.18C145.775 237.18 145.175 237.01 144.705 236.67C144.245 236.32 143.88 235.88 143.61 235.35C143.34 234.81 143.155 234.215 143.055 233.565C142.955 232.915 142.905 232.29 142.905 231.69ZM144.165 231.69C144.165 231.95 144.175 232.24 144.195 232.56C144.215 232.88 144.25 233.205 144.3 233.535C144.36 233.855 144.44 234.17 144.54 234.48C144.65 234.79 144.79 235.065 144.96 235.305C145.14 235.545 145.355 235.74 145.605 235.89C145.855 236.03 146.155 236.1 146.505 236.1C146.855 236.1 147.155 236.03 147.405 235.89C147.655 235.74 147.865 235.545 148.035 235.305C148.215 235.065 148.355 234.79 148.455 234.48C148.565 234.17 148.645 233.855 148.695 233.535C148.755 233.205 148.795 232.88 148.815 232.56C148.835 232.24 148.845 231.95 148.845 231.69C148.845 231.43 148.835 231.14 148.815 230.82C148.795 230.5 148.755 230.18 148.695 229.86C148.645 229.53 148.565 229.21 148.455 228.9C148.355 228.59 148.215 228.315 148.035 228.075C147.865 227.835 147.655 227.645 147.405 227.505C147.155 227.355 146.855 227.28 146.505 227.28C146.155 227.28 145.855 227.355 145.605 227.505C145.355 227.645 145.14 227.835 144.96 228.075C144.79 228.315 144.65 228.59 144.54 228.9C144.44 229.21 144.36 229.53 144.3 229.86C144.25 230.18 144.215 230.5 144.195 230.82C144.175 231.14 144.165 231.43 144.165 231.69ZM151.24 231.69C151.24 231.09 151.29 230.465 151.39 229.815C151.49 229.165 151.675 228.575 151.945 228.045C152.215 227.505 152.58 227.065 153.04 226.725C153.51 226.375 154.11 226.2 154.84 226.2C155.57 226.2 156.165 226.375 156.625 226.725C157.095 227.065 157.465 227.505 157.735 228.045C158.005 228.575 158.19 229.165 158.29 229.815C158.39 230.465 158.44 231.09 158.44 231.69C158.44 232.29 158.39 232.915 158.29 233.565C158.19 234.215 158.005 234.81 157.735 235.35C157.465 235.88 157.095 236.32 156.625 236.67C156.165 237.01 155.57 237.18 154.84 237.18C154.11 237.18 153.51 237.01 153.04 236.67C152.58 236.32 152.215 235.88 151.945 235.35C151.675 234.81 151.49 234.215 151.39 233.565C151.29 232.915 151.24 232.29 151.24 231.69ZM152.5 231.69C152.5 231.95 152.51 232.24 152.53 232.56C152.55 232.88 152.585 233.205 152.635 233.535C152.695 233.855 152.775 234.17 152.875 234.48C152.985 234.79 153.125 235.065 153.295 235.305C153.475 235.545 153.69 235.74 153.94 235.89C154.19 236.03 154.49 236.1 154.84 236.1C155.19 236.1 155.49 236.03 155.74 235.89C155.99 235.74 156.2 235.545 156.37 235.305C156.55 235.065 156.69 234.79 156.79 234.48C156.9 234.17 156.98 233.855 157.03 233.535C157.09 233.205 157.13 232.88 157.15 232.56C157.17 232.24 157.18 231.95 157.18 231.69C157.18 231.43 157.17 231.14 157.15 230.82C157.13 230.5 157.09 230.18 157.03 229.86C156.98 229.53 156.9 229.21 156.79 228.9C156.69 228.59 156.55 228.315 156.37 228.075C156.2 227.835 155.99 227.645 155.74 227.505C155.49 227.355 155.19 227.28 154.84 227.28C154.49 227.28 154.19 227.355 153.94 227.505C153.69 227.645 153.475 227.835 153.295 228.075C153.125 228.315 152.985 228.59 152.875 228.9C152.775 229.21 152.695 229.53 152.635 229.86C152.585 230.18 152.55 230.5 152.53 230.82C152.51 231.14 152.5 231.43 152.5 231.69ZM161.09 235.29C161.34 235.29 161.55 235.38 161.72 235.56C161.9 235.73 161.99 235.94 161.99 236.19C161.99 236.44 161.895 236.655 161.705 236.835C161.525 237.005 161.32 237.09 161.09 237.09C160.86 237.09 160.65 237.005 160.46 236.835C160.28 236.655 160.19 236.44 160.19 236.19C160.19 235.94 160.275 235.73 160.445 235.56C160.625 235.38 160.84 235.29 161.09 235.29ZM163.75 231.69C163.75 231.09 163.8 230.465 163.9 229.815C164 229.165 164.185 228.575 164.455 228.045C164.725 227.505 165.09 227.065 165.55 226.725C166.02 226.375 166.62 226.2 167.35 226.2C168.08 226.2 168.675 226.375 169.135 226.725C169.605 227.065 169.975 227.505 170.245 228.045C170.515 228.575 170.7 229.165 170.8 229.815C170.9 230.465 170.95 231.09 170.95 231.69C170.95 232.29 170.9 232.915 170.8 233.565C170.7 234.215 170.515 234.81 170.245 235.35C169.975 235.88 169.605 236.32 169.135 236.67C168.675 237.01 168.08 237.18 167.35 237.18C166.62 237.18 166.02 237.01 165.55 236.67C165.09 236.32 164.725 235.88 164.455 235.35C164.185 234.81 164 234.215 163.9 233.565C163.8 232.915 163.75 232.29 163.75 231.69ZM165.01 231.69C165.01 231.95 165.02 232.24 165.04 232.56C165.06 232.88 165.095 233.205 165.145 233.535C165.205 233.855 165.285 234.17 165.385 234.48C165.495 234.79 165.635 235.065 165.805 235.305C165.985 235.545 166.2 235.74 166.45 235.89C166.7 236.03 167 236.1 167.35 236.1C167.7 236.1 168 236.03 168.25 235.89C168.5 235.74 168.71 235.545 168.88 235.305C169.06 235.065 169.2 234.79 169.3 234.48C169.41 234.17 169.49 233.855 169.54 233.535C169.6 233.205 169.64 232.88 169.66 232.56C169.68 232.24 169.69 231.95 169.69 231.69C169.69 231.43 169.68 231.14 169.66 230.82C169.64 230.5 169.6 230.18 169.54 229.86C169.49 229.53 169.41 229.21 169.3 228.9C169.2 228.59 169.06 228.315 168.88 228.075C168.71 227.835 168.5 227.645 168.25 227.505C168 227.355 167.7 227.28 167.35 227.28C167 227.28 166.7 227.355 166.45 227.505C166.2 227.645 165.985 227.835 165.805 228.075C165.635 228.315 165.495 228.59 165.385 228.9C165.285 229.21 165.205 229.53 165.145 229.86C165.095 230.18 165.06 230.5 165.04 230.82C165.02 231.14 165.01 231.43 165.01 231.69ZM172.085 231.69C172.085 231.09 172.135 230.465 172.235 229.815C172.335 229.165 172.52 228.575 172.79 228.045C173.06 227.505 173.425 227.065 173.885 226.725C174.355 226.375 174.955 226.2 175.685 226.2C176.415 226.2 177.01 226.375 177.47 226.725C177.94 227.065 178.31 227.505 178.58 228.045C178.85 228.575 179.035 229.165 179.135 229.815C179.235 230.465 179.285 231.09 179.285 231.69C179.285 232.29 179.235 232.915 179.135 233.565C179.035 234.215 178.85 234.81 178.58 235.35C178.31 235.88 177.94 236.32 177.47 236.67C177.01 237.01 176.415 237.18 175.685 237.18C174.955 237.18 174.355 237.01 173.885 236.67C173.425 236.32 173.06 235.88 172.79 235.35C172.52 234.81 172.335 234.215 172.235 233.565C172.135 232.915 172.085 232.29 172.085 231.69ZM173.345 231.69C173.345 231.95 173.355 232.24 173.375 232.56C173.395 232.88 173.43 233.205 173.48 233.535C173.54 233.855 173.62 234.17 173.72 234.48C173.83 234.79 173.97 235.065 174.14 235.305C174.32 235.545 174.535 235.74 174.785 235.89C175.035 236.03 175.335 236.1 175.685 236.1C176.035 236.1 176.335 236.03 176.585 235.89C176.835 235.74 177.045 235.545 177.215 235.305C177.395 235.065 177.535 234.79 177.635 234.48C177.745 234.17 177.825 233.855 177.875 233.535C177.935 233.205 177.975 232.88 177.995 232.56C178.015 232.24 178.025 231.95 178.025 231.69C178.025 231.43 178.015 231.14 177.995 230.82C177.975 230.5 177.935 230.18 177.875 229.86C177.825 229.53 177.745 229.21 177.635 228.9C177.535 228.59 177.395 228.315 177.215 228.075C177.045 227.835 176.835 227.645 176.585 227.505C176.335 227.355 176.035 227.28 175.685 227.28C175.335 227.28 175.035 227.355 174.785 227.505C174.535 227.645 174.32 227.835 174.14 228.075C173.97 228.315 173.83 228.59 173.72 228.9C173.62 229.21 173.54 229.53 173.48 229.86C173.43 230.18 173.395 230.5 173.375 230.82C173.355 231.14 173.345 231.43 173.345 231.69ZM180.42 231.69C180.42 231.09 180.47 230.465 180.57 229.815C180.67 229.165 180.855 228.575 181.125 228.045C181.395 227.505 181.76 227.065 182.22 226.725C182.69 226.375 183.29 226.2 184.02 226.2C184.75 226.2 185.345 226.375 185.805 226.725C186.275 227.065 186.645 227.505 186.915 228.045C187.185 228.575 187.37 229.165 187.47 229.815C187.57 230.465 187.62 231.09 187.62 231.69C187.62 232.29 187.57 232.915 187.47 233.565C187.37 234.215 187.185 234.81 186.915 235.35C186.645 235.88 186.275 236.32 185.805 236.67C185.345 237.01 184.75 237.18 184.02 237.18C183.29 237.18 182.69 237.01 182.22 236.67C181.76 236.32 181.395 235.88 181.125 235.35C180.855 234.81 180.67 234.215 180.57 233.565C180.47 232.915 180.42 232.29 180.42 231.69ZM181.68 231.69C181.68 231.95 181.69 232.24 181.71 232.56C181.73 232.88 181.765 233.205 181.815 233.535C181.875 233.855 181.955 234.17 182.055 234.48C182.165 234.79 182.305 235.065 182.475 235.305C182.655 235.545 182.87 235.74 183.12 235.89C183.37 236.03 183.67 236.1 184.02 236.1C184.37 236.1 184.67 236.03 184.92 235.89C185.17 235.74 185.38 235.545 185.55 235.305C185.73 235.065 185.87 234.79 185.97 234.48C186.08 234.17 186.16 233.855 186.21 233.535C186.27 233.205 186.31 232.88 186.33 232.56C186.35 232.24 186.36 231.95 186.36 231.69C186.36 231.43 186.35 231.14 186.33 230.82C186.31 230.5 186.27 230.18 186.21 229.86C186.16 229.53 186.08 229.21 185.97 228.9C185.87 228.59 185.73 228.315 185.55 228.075C185.38 227.835 185.17 227.645 184.92 227.505C184.67 227.355 184.37 227.28 184.02 227.28C183.67 227.28 183.37 227.355 183.12 227.505C182.87 227.645 182.655 227.835 182.475 228.075C182.305 228.315 182.165 228.59 182.055 228.9C181.955 229.21 181.875 229.53 181.815 229.86C181.765 230.18 181.73 230.5 181.71 230.82C181.69 231.14 181.68 231.43 181.68 231.69ZM190.27 235.29C190.52 235.29 190.73 235.38 190.9 235.56C191.08 235.73 191.17 235.94 191.17 236.19C191.17 236.44 191.075 236.655 190.885 236.835C190.705 237.005 190.5 237.09 190.27 237.09C190.04 237.09 189.83 237.005 189.64 236.835C189.46 236.655 189.37 236.44 189.37 236.19C189.37 235.94 189.455 235.73 189.625 235.56C189.805 235.38 190.02 235.29 190.27 235.29ZM192.929 231.69C192.929 231.09 192.979 230.465 193.079 229.815C193.179 229.165 193.364 228.575 193.634 228.045C193.904 227.505 194.269 227.065 194.729 226.725C195.199 226.375 195.799 226.2 196.529 226.2C197.259 226.2 197.854 226.375 198.314 226.725C198.784 227.065 199.154 227.505 199.424 228.045C199.694 228.575 199.879 229.165 199.979 229.815C200.079 230.465 200.129 231.09 200.129 231.69C200.129 232.29 200.079 232.915 199.979 233.565C199.879 234.215 199.694 234.81 199.424 235.35C199.154 235.88 198.784 236.32 198.314 236.67C197.854 237.01 197.259 237.18 196.529 237.18C195.799 237.18 195.199 237.01 194.729 236.67C194.269 236.32 193.904 235.88 193.634 235.35C193.364 234.81 193.179 234.215 193.079 233.565C192.979 232.915 192.929 232.29 192.929 231.69ZM194.189 231.69C194.189 231.95 194.199 232.24 194.219 232.56C194.239 232.88 194.274 233.205 194.324 233.535C194.384 233.855 194.464 234.17 194.564 234.48C194.674 234.79 194.814 235.065 194.984 235.305C195.164 235.545 195.379 235.74 195.629 235.89C195.879 236.03 196.179 236.1 196.529 236.1C196.879 236.1 197.179 236.03 197.429 235.89C197.679 235.74 197.889 235.545 198.059 235.305C198.239 235.065 198.379 234.79 198.479 234.48C198.589 234.17 198.669 233.855 198.719 233.535C198.779 233.205 198.819 232.88 198.839 232.56C198.859 232.24 198.869 231.95 198.869 231.69C198.869 231.43 198.859 231.14 198.839 230.82C198.819 230.5 198.779 230.18 198.719 229.86C198.669 229.53 198.589 229.21 198.479 228.9C198.379 228.59 198.239 228.315 198.059 228.075C197.889 227.835 197.679 227.645 197.429 227.505C197.179 227.355 196.879 227.28 196.529 227.28C196.179 227.28 195.879 227.355 195.629 227.505C195.379 227.645 195.164 227.835 194.984 228.075C194.814 228.315 194.674 228.59 194.564 228.9C194.464 229.21 194.384 229.53 194.324 229.86C194.274 230.18 194.239 230.5 194.219 230.82C194.199 231.14 194.189 231.43 194.189 231.69ZM201.264 231.69C201.264 231.09 201.314 230.465 201.414 229.815C201.514 229.165 201.699 228.575 201.969 228.045C202.239 227.505 202.604 227.065 203.064 226.725C203.534 226.375 204.134 226.2 204.864 226.2C205.594 226.2 206.189 226.375 206.649 226.725C207.119 227.065 207.489 227.505 207.759 228.045C208.029 228.575 208.214 229.165 208.314 229.815C208.414 230.465 208.464 231.09 208.464 231.69C208.464 232.29 208.414 232.915 208.314 233.565C208.214 234.215 208.029 234.81 207.759 235.35C207.489 235.88 207.119 236.32 206.649 236.67C206.189 237.01 205.594 237.18 204.864 237.18C204.134 237.18 203.534 237.01 203.064 236.67C202.604 236.32 202.239 235.88 201.969 235.35C201.699 234.81 201.514 234.215 201.414 233.565C201.314 232.915 201.264 232.29 201.264 231.69ZM202.524 231.69C202.524 231.95 202.534 232.24 202.554 232.56C202.574 232.88 202.609 233.205 202.659 233.535C202.719 233.855 202.799 234.17 202.899 234.48C203.009 234.79 203.149 235.065 203.319 235.305C203.499 235.545 203.714 235.74 203.964 235.89C204.214 236.03 204.514 236.1 204.864 236.1C205.214 236.1 205.514 236.03 205.764 235.89C206.014 235.74 206.224 235.545 206.394 235.305C206.574 235.065 206.714 234.79 206.814 234.48C206.924 234.17 207.004 233.855 207.054 233.535C207.114 233.205 207.154 232.88 207.174 232.56C207.194 232.24 207.204 231.95 207.204 231.69C207.204 231.43 207.194 231.14 207.174 230.82C207.154 230.5 207.114 230.18 207.054 229.86C207.004 229.53 206.924 229.21 206.814 228.9C206.714 228.59 206.574 228.315 206.394 228.075C206.224 227.835 206.014 227.645 205.764 227.505C205.514 227.355 205.214 227.28 204.864 227.28C204.514 227.28 204.214 227.355 203.964 227.505C203.714 227.645 203.499 227.835 203.319 228.075C203.149 228.315 203.009 228.59 202.899 228.9C202.799 229.21 202.719 229.53 202.659 229.86C202.609 230.18 202.574 230.5 202.554 230.82C202.534 231.14 202.524 231.43 202.524 231.69ZM209.599 231.69C209.599 231.09 209.649 230.465 209.749 229.815C209.849 229.165 210.034 228.575 210.304 228.045C210.574 227.505 210.939 227.065 211.399 226.725C211.869 226.375 212.469 226.2 213.199 226.2C213.929 226.2 214.524 226.375 214.984 226.725C215.454 227.065 215.824 227.505 216.094 228.045C216.364 228.575 216.549 229.165 216.649 229.815C216.749 230.465 216.799 231.09 216.799 231.69C216.799 232.29 216.749 232.915 216.649 233.565C216.549 234.215 216.364 234.81 216.094 235.35C215.824 235.88 215.454 236.32 214.984 236.67C214.524 237.01 213.929 237.18 213.199 237.18C212.469 237.18 211.869 237.01 211.399 236.67C210.939 236.32 210.574 235.88 210.304 235.35C210.034 234.81 209.849 234.215 209.749 233.565C209.649 232.915 209.599 232.29 209.599 231.69ZM210.859 231.69C210.859 231.95 210.869 232.24 210.889 232.56C210.909 232.88 210.944 233.205 210.994 233.535C211.054 233.855 211.134 234.17 211.234 234.48C211.344 234.79 211.484 235.065 211.654 235.305C211.834 235.545 212.049 235.74 212.299 235.89C212.549 236.03 212.849 236.1 213.199 236.1C213.549 236.1 213.849 236.03 214.099 235.89C214.349 235.74 214.559 235.545 214.729 235.305C214.909 235.065 215.049 234.79 215.149 234.48C215.259 234.17 215.339 233.855 215.389 233.535C215.449 233.205 215.489 232.88 215.509 232.56C215.529 232.24 215.539 231.95 215.539 231.69C215.539 231.43 215.529 231.14 215.509 230.82C215.489 230.5 215.449 230.18 215.389 229.86C215.339 229.53 215.259 229.21 215.149 228.9C215.049 228.59 214.909 228.315 214.729 228.075C214.559 227.835 214.349 227.645 214.099 227.505C213.849 227.355 213.549 227.28 213.199 227.28C212.849 227.28 212.549 227.355 212.299 227.505C212.049 227.645 211.834 227.835 211.654 228.075C211.484 228.315 211.344 228.59 211.234 228.9C211.134 229.21 211.054 229.53 210.994 229.86C210.944 230.18 210.909 230.5 210.889 230.82C210.869 231.14 210.859 231.43 210.859 231.69Z" fill="#232626"/>
<path d="M139.4 177H138.14V168H138.11L136.205 169.605L135.455 168.69L138.305 166.38H139.4V177ZM145.395 170.88H145.785C146.045 170.88 146.315 170.86 146.595 170.82C146.885 170.78 147.145 170.695 147.375 170.565C147.615 170.435 147.81 170.25 147.96 170.01C148.12 169.76 148.2 169.435 148.2 169.035C148.2 168.495 148.03 168.07 147.69 167.76C147.36 167.44 146.925 167.28 146.385 167.28C145.935 167.28 145.545 167.38 145.215 167.58C144.885 167.78 144.625 168.075 144.435 168.465L143.22 168C143.48 167.4 143.885 166.95 144.435 166.65C144.995 166.35 145.615 166.2 146.295 166.2C146.715 166.2 147.115 166.26 147.495 166.38C147.885 166.5 148.225 166.675 148.515 166.905C148.805 167.135 149.035 167.425 149.205 167.775C149.375 168.115 149.46 168.515 149.46 168.975C149.46 169.535 149.29 170.04 148.95 170.49C148.62 170.93 148.185 171.235 147.645 171.405V171.435C147.985 171.495 148.285 171.605 148.545 171.765C148.815 171.925 149.045 172.125 149.235 172.365C149.425 172.595 149.57 172.86 149.67 173.16C149.77 173.46 149.82 173.775 149.82 174.105C149.82 174.615 149.725 175.06 149.535 175.44C149.345 175.82 149.09 176.14 148.77 176.4C148.45 176.66 148.075 176.855 147.645 176.985C147.225 177.115 146.78 177.18 146.31 177.18C145.5 177.18 144.795 177.005 144.195 176.655C143.595 176.305 143.16 175.735 142.89 174.945L144.165 174.525C144.345 175.095 144.6 175.5 144.93 175.74C145.26 175.98 145.72 176.1 146.31 176.1C146.61 176.1 146.89 176.05 147.15 175.95C147.41 175.85 147.635 175.71 147.825 175.53C148.025 175.34 148.18 175.12 148.29 174.87C148.41 174.61 148.47 174.325 148.47 174.015C148.47 173.625 148.39 173.3 148.23 173.04C148.08 172.77 147.875 172.56 147.615 172.41C147.365 172.25 147.08 172.135 146.76 172.065C146.44 171.995 146.115 171.96 145.785 171.96H145.395V170.88ZM153.73 170.88H154.12C154.38 170.88 154.65 170.86 154.93 170.82C155.22 170.78 155.48 170.695 155.71 170.565C155.95 170.435 156.145 170.25 156.295 170.01C156.455 169.76 156.535 169.435 156.535 169.035C156.535 168.495 156.365 168.07 156.025 167.76C155.695 167.44 155.26 167.28 154.72 167.28C154.27 167.28 153.88 167.38 153.55 167.58C153.22 167.78 152.96 168.075 152.77 168.465L151.555 168C151.815 167.4 152.22 166.95 152.77 166.65C153.33 166.35 153.95 166.2 154.63 166.2C155.05 166.2 155.45 166.26 155.83 166.38C156.22 166.5 156.56 166.675 156.85 166.905C157.14 167.135 157.37 167.425 157.54 167.775C157.71 168.115 157.795 168.515 157.795 168.975C157.795 169.535 157.625 170.04 157.285 170.49C156.955 170.93 156.52 171.235 155.98 171.405V171.435C156.32 171.495 156.62 171.605 156.88 171.765C157.15 171.925 157.38 172.125 157.57 172.365C157.76 172.595 157.905 172.86 158.005 173.16C158.105 173.46 158.155 173.775 158.155 174.105C158.155 174.615 158.06 175.06 157.87 175.44C157.68 175.82 157.425 176.14 157.105 176.4C156.785 176.66 156.41 176.855 155.98 176.985C155.56 177.115 155.115 177.18 154.645 177.18C153.835 177.18 153.13 177.005 152.53 176.655C151.93 176.305 151.495 175.735 151.225 174.945L152.5 174.525C152.68 175.095 152.935 175.5 153.265 175.74C153.595 175.98 154.055 176.1 154.645 176.1C154.945 176.1 155.225 176.05 155.485 175.95C155.745 175.85 155.97 175.71 156.16 175.53C156.36 175.34 156.515 175.12 156.625 174.87C156.745 174.61 156.805 174.325 156.805 174.015C156.805 173.625 156.725 173.3 156.565 173.04C156.415 172.77 156.21 172.56 155.95 172.41C155.7 172.25 155.415 172.135 155.095 172.065C154.775 171.995 154.45 171.96 154.12 171.96H153.73V170.88ZM161.09 175.29C161.34 175.29 161.55 175.38 161.72 175.56C161.9 175.73 161.99 175.94 161.99 176.19C161.99 176.44 161.895 176.655 161.705 176.835C161.525 177.005 161.32 177.09 161.09 177.09C160.86 177.09 160.65 177.005 160.46 176.835C160.28 176.655 160.19 176.44 160.19 176.19C160.19 175.94 160.275 175.73 160.445 175.56C160.625 175.38 160.84 175.29 161.09 175.29ZM166.24 170.88H166.63C166.89 170.88 167.16 170.86 167.44 170.82C167.73 170.78 167.99 170.695 168.22 170.565C168.46 170.435 168.655 170.25 168.805 170.01C168.965 169.76 169.045 169.435 169.045 169.035C169.045 168.495 168.875 168.07 168.535 167.76C168.205 167.44 167.77 167.28 167.23 167.28C166.78 167.28 166.39 167.38 166.06 167.58C165.73 167.78 165.47 168.075 165.28 168.465L164.065 168C164.325 167.4 164.73 166.95 165.28 166.65C165.84 166.35 166.46 166.2 167.14 166.2C167.56 166.2 167.96 166.26 168.34 166.38C168.73 166.5 169.07 166.675 169.36 166.905C169.65 167.135 169.88 167.425 170.05 167.775C170.22 168.115 170.305 168.515 170.305 168.975C170.305 169.535 170.135 170.04 169.795 170.49C169.465 170.93 169.03 171.235 168.49 171.405V171.435C168.83 171.495 169.13 171.605 169.39 171.765C169.66 171.925 169.89 172.125 170.08 172.365C170.27 172.595 170.415 172.86 170.515 173.16C170.615 173.46 170.665 173.775 170.665 174.105C170.665 174.615 170.57 175.06 170.38 175.44C170.19 175.82 169.935 176.14 169.615 176.4C169.295 176.66 168.92 176.855 168.49 176.985C168.07 177.115 167.625 177.18 167.155 177.18C166.345 177.18 165.64 177.005 165.04 176.655C164.44 176.305 164.005 175.735 163.735 174.945L165.01 174.525C165.19 175.095 165.445 175.5 165.775 175.74C166.105 175.98 166.565 176.1 167.155 176.1C167.455 176.1 167.735 176.05 167.995 175.95C168.255 175.85 168.48 175.71 168.67 175.53C168.87 175.34 169.025 175.12 169.135 174.87C169.255 174.61 169.315 174.325 169.315 174.015C169.315 173.625 169.235 173.3 169.075 173.04C168.925 172.77 168.72 172.56 168.46 172.41C168.21 172.25 167.925 172.135 167.605 172.065C167.285 171.995 166.96 171.96 166.63 171.96H166.24V170.88ZM174.575 170.88H174.965C175.225 170.88 175.495 170.86 175.775 170.82C176.065 170.78 176.325 170.695 176.555 170.565C176.795 170.435 176.99 170.25 177.14 170.01C177.3 169.76 177.38 169.435 177.38 169.035C177.38 168.495 177.21 168.07 176.87 167.76C176.54 167.44 176.105 167.28 175.565 167.28C175.115 167.28 174.725 167.38 174.395 167.58C174.065 167.78 173.805 168.075 173.615 168.465L172.4 168C172.66 167.4 173.065 166.95 173.615 166.65C174.175 166.35 174.795 166.2 175.475 166.2C175.895 166.2 176.295 166.26 176.675 166.38C177.065 166.5 177.405 166.675 177.695 166.905C177.985 167.135 178.215 167.425 178.385 167.775C178.555 168.115 178.64 168.515 178.64 168.975C178.64 169.535 178.47 170.04 178.13 170.49C177.8 170.93 177.365 171.235 176.825 171.405V171.435C177.165 171.495 177.465 171.605 177.725 171.765C177.995 171.925 178.225 172.125 178.415 172.365C178.605 172.595 178.75 172.86 178.85 173.16C178.95 173.46 179 173.775 179 174.105C179 174.615 178.905 175.06 178.715 175.44C178.525 175.82 178.27 176.14 177.95 176.4C177.63 176.66 177.255 176.855 176.825 176.985C176.405 177.115 175.96 177.18 175.49 177.18C174.68 177.18 173.975 177.005 173.375 176.655C172.775 176.305 172.34 175.735 172.07 174.945L173.345 174.525C173.525 175.095 173.78 175.5 174.11 175.74C174.44 175.98 174.9 176.1 175.49 176.1C175.79 176.1 176.07 176.05 176.33 175.95C176.59 175.85 176.815 175.71 177.005 175.53C177.205 175.34 177.36 175.12 177.47 174.87C177.59 174.61 177.65 174.325 177.65 174.015C177.65 173.625 177.57 173.3 177.41 173.04C177.26 172.77 177.055 172.56 176.795 172.41C176.545 172.25 176.26 172.135 175.94 172.065C175.62 171.995 175.295 171.96 174.965 171.96H174.575V170.88ZM182.91 170.88H183.3C183.56 170.88 183.83 170.86 184.11 170.82C184.4 170.78 184.66 170.695 184.89 170.565C185.13 170.435 185.325 170.25 185.475 170.01C185.635 169.76 185.715 169.435 185.715 169.035C185.715 168.495 185.545 168.07 185.205 167.76C184.875 167.44 184.44 167.28 183.9 167.28C183.45 167.28 183.06 167.38 182.73 167.58C182.4 167.78 182.14 168.075 181.95 168.465L180.735 168C180.995 167.4 181.4 166.95 181.95 166.65C182.51 166.35 183.13 166.2 183.81 166.2C184.23 166.2 184.63 166.26 185.01 166.38C185.4 166.5 185.74 166.675 186.03 166.905C186.32 167.135 186.55 167.425 186.72 167.775C186.89 168.115 186.975 168.515 186.975 168.975C186.975 169.535 186.805 170.04 186.465 170.49C186.135 170.93 185.7 171.235 185.16 171.405V171.435C185.5 171.495 185.8 171.605 186.06 171.765C186.33 171.925 186.56 172.125 186.75 172.365C186.94 172.595 187.085 172.86 187.185 173.16C187.285 173.46 187.335 173.775 187.335 174.105C187.335 174.615 187.24 175.06 187.05 175.44C186.86 175.82 186.605 176.14 186.285 176.4C185.965 176.66 185.59 176.855 185.16 176.985C184.74 177.115 184.295 177.18 183.825 177.18C183.015 177.18 182.31 177.005 181.71 176.655C181.11 176.305 180.675 175.735 180.405 174.945L181.68 174.525C181.86 175.095 182.115 175.5 182.445 175.74C182.775 175.98 183.235 176.1 183.825 176.1C184.125 176.1 184.405 176.05 184.665 175.95C184.925 175.85 185.15 175.71 185.34 175.53C185.54 175.34 185.695 175.12 185.805 174.87C185.925 174.61 185.985 174.325 185.985 174.015C185.985 173.625 185.905 173.3 185.745 173.04C185.595 172.77 185.39 172.56 185.13 172.41C184.88 172.25 184.595 172.135 184.275 172.065C183.955 171.995 183.63 171.96 183.3 171.96H182.91V170.88ZM190.27 175.29C190.52 175.29 190.73 175.38 190.9 175.56C191.08 175.73 191.17 175.94 191.17 176.19C191.17 176.44 191.075 176.655 190.885 176.835C190.705 177.005 190.5 177.09 190.27 177.09C190.04 177.09 189.83 177.005 189.64 176.835C189.46 176.655 189.37 176.44 189.37 176.19C189.37 175.94 189.455 175.73 189.625 175.56C189.805 175.38 190.02 175.29 190.27 175.29ZM195.419 170.88H195.809C196.069 170.88 196.339 170.86 196.619 170.82C196.909 170.78 197.169 170.695 197.399 170.565C197.639 170.435 197.834 170.25 197.984 170.01C198.144 169.76 198.224 169.435 198.224 169.035C198.224 168.495 198.054 168.07 197.714 167.76C197.384 167.44 196.949 167.28 196.409 167.28C195.959 167.28 195.569 167.38 195.239 167.58C194.909 167.78 194.649 168.075 194.459 168.465L193.244 168C193.504 167.4 193.909 166.95 194.459 166.65C195.019 166.35 195.639 166.2 196.319 166.2C196.739 166.2 197.139 166.26 197.519 166.38C197.909 166.5 198.249 166.675 198.539 166.905C198.829 167.135 199.059 167.425 199.229 167.775C199.399 168.115 199.484 168.515 199.484 168.975C199.484 169.535 199.314 170.04 198.974 170.49C198.644 170.93 198.209 171.235 197.669 171.405V171.435C198.009 171.495 198.309 171.605 198.569 171.765C198.839 171.925 199.069 172.125 199.259 172.365C199.449 172.595 199.594 172.86 199.694 173.16C199.794 173.46 199.844 173.775 199.844 174.105C199.844 174.615 199.749 175.06 199.559 175.44C199.369 175.82 199.114 176.14 198.794 176.4C198.474 176.66 198.099 176.855 197.669 176.985C197.249 177.115 196.804 177.18 196.334 177.18C195.524 177.18 194.819 177.005 194.219 176.655C193.619 176.305 193.184 175.735 192.914 174.945L194.189 174.525C194.369 175.095 194.624 175.5 194.954 175.74C195.284 175.98 195.744 176.1 196.334 176.1C196.634 176.1 196.914 176.05 197.174 175.95C197.434 175.85 197.659 175.71 197.849 175.53C198.049 175.34 198.204 175.12 198.314 174.87C198.434 174.61 198.494 174.325 198.494 174.015C198.494 173.625 198.414 173.3 198.254 173.04C198.104 172.77 197.899 172.56 197.639 172.41C197.389 172.25 197.104 172.135 196.784 172.065C196.464 171.995 196.139 171.96 195.809 171.96H195.419V170.88ZM203.754 170.88H204.144C204.404 170.88 204.674 170.86 204.954 170.82C205.244 170.78 205.504 170.695 205.734 170.565C205.974 170.435 206.169 170.25 206.319 170.01C206.479 169.76 206.559 169.435 206.559 169.035C206.559 168.495 206.389 168.07 206.049 167.76C205.719 167.44 205.284 167.28 204.744 167.28C204.294 167.28 203.904 167.38 203.574 167.58C203.244 167.78 202.984 168.075 202.794 168.465L201.579 168C201.839 167.4 202.244 166.95 202.794 166.65C203.354 166.35 203.974 166.2 204.654 166.2C205.074 166.2 205.474 166.26 205.854 166.38C206.244 166.5 206.584 166.675 206.874 166.905C207.164 167.135 207.394 167.425 207.564 167.775C207.734 168.115 207.819 168.515 207.819 168.975C207.819 169.535 207.649 170.04 207.309 170.49C206.979 170.93 206.544 171.235 206.004 171.405V171.435C206.344 171.495 206.644 171.605 206.904 171.765C207.174 171.925 207.404 172.125 207.594 172.365C207.784 172.595 207.929 172.86 208.029 173.16C208.129 173.46 208.179 173.775 208.179 174.105C208.179 174.615 208.084 175.06 207.894 175.44C207.704 175.82 207.449 176.14 207.129 176.4C206.809 176.66 206.434 176.855 206.004 176.985C205.584 177.115 205.139 177.18 204.669 177.18C203.859 177.18 203.154 177.005 202.554 176.655C201.954 176.305 201.519 175.735 201.249 174.945L202.524 174.525C202.704 175.095 202.959 175.5 203.289 175.74C203.619 175.98 204.079 176.1 204.669 176.1C204.969 176.1 205.249 176.05 205.509 175.95C205.769 175.85 205.994 175.71 206.184 175.53C206.384 175.34 206.539 175.12 206.649 174.87C206.769 174.61 206.829 174.325 206.829 174.015C206.829 173.625 206.749 173.3 206.589 173.04C206.439 172.77 206.234 172.56 205.974 172.41C205.724 172.25 205.439 172.135 205.119 172.065C204.799 171.995 204.474 171.96 204.144 171.96H203.754V170.88ZM212.089 170.88H212.479C212.739 170.88 213.009 170.86 213.289 170.82C213.579 170.78 213.839 170.695 214.069 170.565C214.309 170.435 214.504 170.25 214.654 170.01C214.814 169.76 214.894 169.435 214.894 169.035C214.894 168.495 214.724 168.07 214.384 167.76C214.054 167.44 213.619 167.28 213.079 167.28C212.629 167.28 212.239 167.38 211.909 167.58C211.579 167.78 211.319 168.075 211.129 168.465L209.914 168C210.174 167.4 210.579 166.95 211.129 166.65C211.689 166.35 212.309 166.2 212.989 166.2C213.409 166.2 213.809 166.26 214.189 166.38C214.579 166.5 214.919 166.675 215.209 166.905C215.499 167.135 215.729 167.425 215.899 167.775C216.069 168.115 216.154 168.515 216.154 168.975C216.154 169.535 215.984 170.04 215.644 170.49C215.314 170.93 214.879 171.235 214.339 171.405V171.435C214.679 171.495 214.979 171.605 215.239 171.765C215.509 171.925 215.739 172.125 215.929 172.365C216.119 172.595 216.264 172.86 216.364 173.16C216.464 173.46 216.514 173.775 216.514 174.105C216.514 174.615 216.419 175.06 216.229 175.44C216.039 175.82 215.784 176.14 215.464 176.4C215.144 176.66 214.769 176.855 214.339 176.985C213.919 177.115 213.474 177.18 213.004 177.18C212.194 177.18 211.489 177.005 210.889 176.655C210.289 176.305 209.854 175.735 209.584 174.945L210.859 174.525C211.039 175.095 211.294 175.5 211.624 175.74C211.954 175.98 212.414 176.1 213.004 176.1C213.304 176.1 213.584 176.05 213.844 175.95C214.104 175.85 214.329 175.71 214.519 175.53C214.719 175.34 214.874 175.12 214.984 174.87C215.104 174.61 215.164 174.325 215.164 174.015C215.164 173.625 215.084 173.3 214.924 173.04C214.774 172.77 214.569 172.56 214.309 172.41C214.059 172.25 213.774 172.135 213.454 172.065C213.134 171.995 212.809 171.96 212.479 171.96H212.089V170.88Z" fill="#232626"/>
<path d="M139.4 116H138.14V107H138.11L136.205 108.605L135.455 107.69L138.305 105.38H139.4V116ZM145.395 109.805L145.425 109.835C145.625 109.725 145.855 109.645 146.115 109.595C146.385 109.545 146.63 109.52 146.85 109.52C147.31 109.52 147.735 109.6 148.125 109.76C148.525 109.92 148.865 110.15 149.145 110.45C149.435 110.74 149.66 111.09 149.82 111.5C149.98 111.91 150.06 112.36 150.06 112.85C150.06 113.37 149.97 113.835 149.79 114.245C149.61 114.655 149.36 115.005 149.04 115.295C148.72 115.575 148.34 115.795 147.9 115.955C147.47 116.105 147.005 116.18 146.505 116.18C146.005 116.18 145.535 116.105 145.095 115.955C144.665 115.795 144.29 115.575 143.97 115.295C143.65 115.005 143.4 114.655 143.22 114.245C143.04 113.835 142.95 113.37 142.95 112.85C142.95 112.24 143.045 111.705 143.235 111.245C143.425 110.785 143.665 110.325 143.955 109.865L146.775 105.38H148.245L145.395 109.805ZM146.505 110.6C146.185 110.6 145.885 110.655 145.605 110.765C145.325 110.865 145.08 111.015 144.87 111.215C144.67 111.405 144.51 111.64 144.39 111.92C144.27 112.2 144.21 112.51 144.21 112.85C144.21 113.2 144.27 113.515 144.39 113.795C144.51 114.065 144.67 114.3 144.87 114.5C145.08 114.69 145.325 114.84 145.605 114.95C145.885 115.05 146.185 115.1 146.505 115.1C146.825 115.1 147.125 115.05 147.405 114.95C147.685 114.84 147.925 114.69 148.125 114.5C148.335 114.3 148.5 114.065 148.62 113.795C148.74 113.515 148.8 113.2 148.8 112.85C148.8 112.51 148.74 112.2 148.62 111.92C148.5 111.64 148.335 111.405 148.125 111.215C147.925 111.015 147.685 110.865 147.405 110.765C147.125 110.655 146.825 110.6 146.505 110.6ZM153.73 109.805L153.76 109.835C153.96 109.725 154.19 109.645 154.45 109.595C154.72 109.545 154.965 109.52 155.185 109.52C155.645 109.52 156.07 109.6 156.46 109.76C156.86 109.92 157.2 110.15 157.48 110.45C157.77 110.74 157.995 111.09 158.155 111.5C158.315 111.91 158.395 112.36 158.395 112.85C158.395 113.37 158.305 113.835 158.125 114.245C157.945 114.655 157.695 115.005 157.375 115.295C157.055 115.575 156.675 115.795 156.235 115.955C155.805 116.105 155.34 116.18 154.84 116.18C154.34 116.18 153.87 116.105 153.43 115.955C153 115.795 152.625 115.575 152.305 115.295C151.985 115.005 151.735 114.655 151.555 114.245C151.375 113.835 151.285 113.37 151.285 112.85C151.285 112.24 151.38 111.705 151.57 111.245C151.76 110.785 152 110.325 152.29 109.865L155.11 105.38H156.58L153.73 109.805ZM154.84 110.6C154.52 110.6 154.22 110.655 153.94 110.765C153.66 110.865 153.415 111.015 153.205 111.215C153.005 111.405 152.845 111.64 152.725 111.92C152.605 112.2 152.545 112.51 152.545 112.85C152.545 113.2 152.605 113.515 152.725 113.795C152.845 114.065 153.005 114.3 153.205 114.5C153.415 114.69 153.66 114.84 153.94 114.95C154.22 115.05 154.52 115.1 154.84 115.1C155.16 115.1 155.46 115.05 155.74 114.95C156.02 114.84 156.26 114.69 156.46 114.5C156.67 114.3 156.835 114.065 156.955 113.795C157.075 113.515 157.135 113.2 157.135 112.85C157.135 112.51 157.075 112.2 156.955 111.92C156.835 111.64 156.67 111.405 156.46 111.215C156.26 111.015 156.02 110.865 155.74 110.765C155.46 110.655 155.16 110.6 154.84 110.6ZM161.09 114.29C161.34 114.29 161.55 114.38 161.72 114.56C161.9 114.73 161.99 114.94 161.99 115.19C161.99 115.44 161.895 115.655 161.705 115.835C161.525 116.005 161.32 116.09 161.09 116.09C160.86 116.09 160.65 116.005 160.46 115.835C160.28 115.655 160.19 115.44 160.19 115.19C160.19 114.94 160.275 114.73 160.445 114.56C160.625 114.38 160.84 114.29 161.09 114.29ZM166.24 109.805L166.27 109.835C166.47 109.725 166.7 109.645 166.96 109.595C167.23 109.545 167.475 109.52 167.695 109.52C168.155 109.52 168.58 109.6 168.97 109.76C169.37 109.92 169.71 110.15 169.99 110.45C170.28 110.74 170.505 111.09 170.665 111.5C170.825 111.91 170.905 112.36 170.905 112.85C170.905 113.37 170.815 113.835 170.635 114.245C170.455 114.655 170.205 115.005 169.885 115.295C169.565 115.575 169.185 115.795 168.745 115.955C168.315 116.105 167.85 116.18 167.35 116.18C166.85 116.18 166.38 116.105 165.94 115.955C165.51 115.795 165.135 115.575 164.815 115.295C164.495 115.005 164.245 114.655 164.065 114.245C163.885 113.835 163.795 113.37 163.795 112.85C163.795 112.24 163.89 111.705 164.08 111.245C164.27 110.785 164.51 110.325 164.8 109.865L167.62 105.38H169.09L166.24 109.805ZM167.35 110.6C167.03 110.6 166.73 110.655 166.45 110.765C166.17 110.865 165.925 111.015 165.715 111.215C165.515 111.405 165.355 111.64 165.235 111.92C165.115 112.2 165.055 112.51 165.055 112.85C165.055 113.2 165.115 113.515 165.235 113.795C165.355 114.065 165.515 114.3 165.715 114.5C165.925 114.69 166.17 114.84 166.45 114.95C166.73 115.05 167.03 115.1 167.35 115.1C167.67 115.1 167.97 115.05 168.25 114.95C168.53 114.84 168.77 114.69 168.97 114.5C169.18 114.3 169.345 114.065 169.465 113.795C169.585 113.515 169.645 113.2 169.645 112.85C169.645 112.51 169.585 112.2 169.465 111.92C169.345 111.64 169.18 111.405 168.97 111.215C168.77 111.015 168.53 110.865 168.25 110.765C167.97 110.655 167.67 110.6 167.35 110.6ZM174.575 109.805L174.605 109.835C174.805 109.725 175.035 109.645 175.295 109.595C175.565 109.545 175.81 109.52 176.03 109.52C176.49 109.52 176.915 109.6 177.305 109.76C177.705 109.92 178.045 110.15 178.325 110.45C178.615 110.74 178.84 111.09 179 111.5C179.16 111.91 179.24 112.36 179.24 112.85C179.24 113.37 179.15 113.835 178.97 114.245C178.79 114.655 178.54 115.005 178.22 115.295C177.9 115.575 177.52 115.795 177.08 115.955C176.65 116.105 176.185 116.18 175.685 116.18C175.185 116.18 174.715 116.105 174.275 115.955C173.845 115.795 173.47 115.575 173.15 115.295C172.83 115.005 172.58 114.655 172.4 114.245C172.22 113.835 172.13 113.37 172.13 112.85C172.13 112.24 172.225 111.705 172.415 111.245C172.605 110.785 172.845 110.325 173.135 109.865L175.955 105.38H177.425L174.575 109.805ZM175.685 110.6C175.365 110.6 175.065 110.655 174.785 110.765C174.505 110.865 174.26 111.015 174.05 111.215C173.85 111.405 173.69 111.64 173.57 111.92C173.45 112.2 173.39 112.51 173.39 112.85C173.39 113.2 173.45 113.515 173.57 113.795C173.69 114.065 173.85 114.3 174.05 114.5C174.26 114.69 174.505 114.84 174.785 114.95C175.065 115.05 175.365 115.1 175.685 115.1C176.005 115.1 176.305 115.05 176.585 114.95C176.865 114.84 177.105 114.69 177.305 114.5C177.515 114.3 177.68 114.065 177.8 113.795C177.92 113.515 177.98 113.2 177.98 112.85C177.98 112.51 177.92 112.2 177.8 111.92C177.68 111.64 177.515 111.405 177.305 111.215C177.105 111.015 176.865 110.865 176.585 110.765C176.305 110.655 176.005 110.6 175.685 110.6ZM182.91 109.805L182.94 109.835C183.14 109.725 183.37 109.645 183.63 109.595C183.9 109.545 184.145 109.52 184.365 109.52C184.825 109.52 185.25 109.6 185.64 109.76C186.04 109.92 186.38 110.15 186.66 110.45C186.95 110.74 187.175 111.09 187.335 111.5C187.495 111.91 187.575 112.36 187.575 112.85C187.575 113.37 187.485 113.835 187.305 114.245C187.125 114.655 186.875 115.005 186.555 115.295C186.235 115.575 185.855 115.795 185.415 115.955C184.985 116.105 184.52 116.18 184.02 116.18C183.52 116.18 183.05 116.105 182.61 115.955C182.18 115.795 181.805 115.575 181.485 115.295C181.165 115.005 180.915 114.655 180.735 114.245C180.555 113.835 180.465 113.37 180.465 112.85C180.465 112.24 180.56 111.705 180.75 111.245C180.94 110.785 181.18 110.325 181.47 109.865L184.29 105.38H185.76L182.91 109.805ZM184.02 110.6C183.7 110.6 183.4 110.655 183.12 110.765C182.84 110.865 182.595 111.015 182.385 111.215C182.185 111.405 182.025 111.64 181.905 111.92C181.785 112.2 181.725 112.51 181.725 112.85C181.725 113.2 181.785 113.515 181.905 113.795C182.025 114.065 182.185 114.3 182.385 114.5C182.595 114.69 182.84 114.84 183.12 114.95C183.4 115.05 183.7 115.1 184.02 115.1C184.34 115.1 184.64 115.05 184.92 114.95C185.2 114.84 185.44 114.69 185.64 114.5C185.85 114.3 186.015 114.065 186.135 113.795C186.255 113.515 186.315 113.2 186.315 112.85C186.315 112.51 186.255 112.2 186.135 111.92C186.015 111.64 185.85 111.405 185.64 111.215C185.44 111.015 185.2 110.865 184.92 110.765C184.64 110.655 184.34 110.6 184.02 110.6ZM190.27 114.29C190.52 114.29 190.73 114.38 190.9 114.56C191.08 114.73 191.17 114.94 191.17 115.19C191.17 115.44 191.075 115.655 190.885 115.835C190.705 116.005 190.5 116.09 190.27 116.09C190.04 116.09 189.83 116.005 189.64 115.835C189.46 115.655 189.37 115.44 189.37 115.19C189.37 114.94 189.455 114.73 189.625 114.56C189.805 114.38 190.02 114.29 190.27 114.29ZM195.419 109.805L195.449 109.835C195.649 109.725 195.879 109.645 196.139 109.595C196.409 109.545 196.654 109.52 196.874 109.52C197.334 109.52 197.759 109.6 198.149 109.76C198.549 109.92 198.889 110.15 199.169 110.45C199.459 110.74 199.684 111.09 199.844 111.5C200.004 111.91 200.084 112.36 200.084 112.85C200.084 113.37 199.994 113.835 199.814 114.245C199.634 114.655 199.384 115.005 199.064 115.295C198.744 115.575 198.364 115.795 197.924 115.955C197.494 116.105 197.029 116.18 196.529 116.18C196.029 116.18 195.559 116.105 195.119 115.955C194.689 115.795 194.314 115.575 193.994 115.295C193.674 115.005 193.424 114.655 193.244 114.245C193.064 113.835 192.974 113.37 192.974 112.85C192.974 112.24 193.069 111.705 193.259 111.245C193.449 110.785 193.689 110.325 193.979 109.865L196.799 105.38H198.269L195.419 109.805ZM196.529 110.6C196.209 110.6 195.909 110.655 195.629 110.765C195.349 110.865 195.104 111.015 194.894 111.215C194.694 111.405 194.534 111.64 194.414 111.92C194.294 112.2 194.234 112.51 194.234 112.85C194.234 113.2 194.294 113.515 194.414 113.795C194.534 114.065 194.694 114.3 194.894 114.5C195.104 114.69 195.349 114.84 195.629 114.95C195.909 115.05 196.209 115.1 196.529 115.1C196.849 115.1 197.149 115.05 197.429 114.95C197.709 114.84 197.949 114.69 198.149 114.5C198.359 114.3 198.524 114.065 198.644 113.795C198.764 113.515 198.824 113.2 198.824 112.85C198.824 112.51 198.764 112.2 198.644 111.92C198.524 111.64 198.359 111.405 198.149 111.215C197.949 111.015 197.709 110.865 197.429 110.765C197.149 110.655 196.849 110.6 196.529 110.6ZM203.754 109.805L203.784 109.835C203.984 109.725 204.214 109.645 204.474 109.595C204.744 109.545 204.989 109.52 205.209 109.52C205.669 109.52 206.094 109.6 206.484 109.76C206.884 109.92 207.224 110.15 207.504 110.45C207.794 110.74 208.019 111.09 208.179 111.5C208.339 111.91 208.419 112.36 208.419 112.85C208.419 113.37 208.329 113.835 208.149 114.245C207.969 114.655 207.719 115.005 207.399 115.295C207.079 115.575 206.699 115.795 206.259 115.955C205.829 116.105 205.364 116.18 204.864 116.18C204.364 116.18 203.894 116.105 203.454 115.955C203.024 115.795 202.649 115.575 202.329 115.295C202.009 115.005 201.759 114.655 201.579 114.245C201.399 113.835 201.309 113.37 201.309 112.85C201.309 112.24 201.404 111.705 201.594 111.245C201.784 110.785 202.024 110.325 202.314 109.865L205.134 105.38H206.604L203.754 109.805ZM204.864 110.6C204.544 110.6 204.244 110.655 203.964 110.765C203.684 110.865 203.439 111.015 203.229 111.215C203.029 111.405 202.869 111.64 202.749 111.92C202.629 112.2 202.569 112.51 202.569 112.85C202.569 113.2 202.629 113.515 202.749 113.795C202.869 114.065 203.029 114.3 203.229 114.5C203.439 114.69 203.684 114.84 203.964 114.95C204.244 115.05 204.544 115.1 204.864 115.1C205.184 115.1 205.484 115.05 205.764 114.95C206.044 114.84 206.284 114.69 206.484 114.5C206.694 114.3 206.859 114.065 206.979 113.795C207.099 113.515 207.159 113.2 207.159 112.85C207.159 112.51 207.099 112.2 206.979 111.92C206.859 111.64 206.694 111.405 206.484 111.215C206.284 111.015 206.044 110.865 205.764 110.765C205.484 110.655 205.184 110.6 204.864 110.6ZM216.229 106.55L211.984 116H210.559L214.879 106.55H209.749V105.38H216.229V106.55Z" fill="#232626"/>
<path d="M134.782 55.266L139.61 50.472C139.78 50.3133 139.944 50.1433 140.103 49.962C140.262 49.7693 140.403 49.571 140.528 49.367C140.653 49.163 140.749 48.9477 140.817 48.721C140.896 48.4943 140.936 48.2563 140.936 48.007C140.936 47.7123 140.879 47.446 140.766 47.208C140.664 46.97 140.517 46.7717 140.324 46.613C140.143 46.443 139.922 46.3127 139.661 46.222C139.412 46.1313 139.145 46.086 138.862 46.086C138.273 46.086 137.785 46.2503 137.4 46.579C137.015 46.9077 136.771 47.361 136.669 47.939L134.901 47.786C134.98 47.2533 135.133 46.7943 135.36 46.409C135.598 46.0123 135.887 45.6837 136.227 45.423C136.578 45.1623 136.975 44.9697 137.417 44.845C137.87 44.7203 138.358 44.658 138.879 44.658C139.4 44.658 139.888 44.7317 140.341 44.879C140.806 45.015 141.208 45.2247 141.548 45.508C141.899 45.78 142.171 46.1257 142.364 46.545C142.568 46.953 142.67 47.4347 142.67 47.99C142.67 48.3867 142.608 48.7607 142.483 49.112C142.37 49.452 142.217 49.775 142.024 50.081C141.831 50.387 141.61 50.676 141.361 50.948C141.112 51.22 140.851 51.4863 140.579 51.747L136.618 55.572H142.67V57H134.782V55.266ZM144.024 50.982C144.024 50.54 144.047 50.081 144.092 49.605C144.138 49.129 144.217 48.6643 144.33 48.211C144.455 47.7463 144.614 47.3043 144.806 46.885C145.01 46.4657 145.265 46.103 145.571 45.797C145.889 45.4797 146.257 45.2303 146.676 45.049C147.107 44.8563 147.606 44.76 148.172 44.76C148.739 44.76 149.232 44.8563 149.651 45.049C150.082 45.2303 150.45 45.4797 150.756 45.797C151.074 46.103 151.329 46.4657 151.521 46.885C151.725 47.3043 151.884 47.7463 151.997 48.211C152.122 48.6643 152.207 49.129 152.252 49.605C152.298 50.081 152.32 50.54 152.32 50.982C152.32 51.6167 152.264 52.2967 152.15 53.022C152.037 53.7473 151.827 54.4217 151.521 55.045C151.215 55.6683 150.79 56.184 150.246 56.592C149.714 57 149.022 57.204 148.172 57.204C147.322 57.204 146.625 57 146.081 56.592C145.549 56.184 145.129 55.6683 144.823 55.045C144.517 54.4217 144.308 53.7473 144.194 53.022C144.081 52.2967 144.024 51.6167 144.024 50.982ZM145.656 50.982C145.656 51.3787 145.679 51.849 145.724 52.393C145.781 52.937 145.894 53.464 146.064 53.974C146.234 54.4727 146.484 54.8977 146.812 55.249C147.152 55.6003 147.606 55.776 148.172 55.776C148.739 55.776 149.187 55.6003 149.515 55.249C149.855 54.8977 150.11 54.4727 150.28 53.974C150.45 53.464 150.558 52.937 150.603 52.393C150.66 51.849 150.688 51.3787 150.688 50.982C150.688 50.71 150.677 50.404 150.654 50.064C150.643 49.7127 150.603 49.3613 150.535 49.01C150.479 48.6473 150.394 48.3017 150.28 47.973C150.167 47.633 150.014 47.3327 149.821 47.072C149.64 46.8 149.413 46.5847 149.141 46.426C148.869 46.2673 148.546 46.188 148.172 46.188C147.798 46.188 147.475 46.2673 147.203 46.426C146.931 46.5847 146.699 46.8 146.506 47.072C146.325 47.3327 146.178 47.633 146.064 47.973C145.951 48.3017 145.86 48.6473 145.792 49.01C145.736 49.3613 145.696 49.7127 145.673 50.064C145.662 50.404 145.656 50.71 145.656 50.982ZM153.471 50.982C153.471 50.54 153.493 50.081 153.539 49.605C153.584 49.129 153.663 48.6643 153.777 48.211C153.901 47.7463 154.06 47.3043 154.253 46.885C154.457 46.4657 154.712 46.103 155.018 45.797C155.335 45.4797 155.703 45.2303 156.123 45.049C156.553 44.8563 157.052 44.76 157.619 44.76C158.185 44.76 158.678 44.8563 159.098 45.049C159.528 45.2303 159.897 45.4797 160.203 45.797C160.52 46.103 160.775 46.4657 160.968 46.885C161.172 47.3043 161.33 47.7463 161.444 48.211C161.568 48.6643 161.653 49.129 161.699 49.605C161.744 50.081 161.767 50.54 161.767 50.982C161.767 51.6167 161.71 52.2967 161.597 53.022C161.483 53.7473 161.274 54.4217 160.968 55.045C160.662 55.6683 160.237 56.184 159.693 56.592C159.16 57 158.469 57.204 157.619 57.204C156.769 57.204 156.072 57 155.528 56.592C154.995 56.184 154.576 55.6683 154.27 55.045C153.964 54.4217 153.754 53.7473 153.641 53.022C153.527 52.2967 153.471 51.6167 153.471 50.982ZM155.103 50.982C155.103 51.3787 155.125 51.849 155.171 52.393C155.227 52.937 155.341 53.464 155.511 53.974C155.681 54.4727 155.93 54.8977 156.259 55.249C156.599 55.6003 157.052 55.776 157.619 55.776C158.185 55.776 158.633 55.6003 158.962 55.249C159.302 54.8977 159.557 54.4727 159.727 53.974C159.897 53.464 160.004 52.937 160.05 52.393C160.106 51.849 160.135 51.3787 160.135 50.982C160.135 50.71 160.123 50.404 160.101 50.064C160.089 49.7127 160.05 49.3613 159.982 49.01C159.925 48.6473 159.84 48.3017 159.727 47.973C159.613 47.633 159.46 47.3327 159.268 47.072C159.086 46.8 158.86 46.5847 158.588 46.426C158.316 46.2673 157.993 46.188 157.619 46.188C157.245 46.188 156.922 46.2673 156.65 46.426C156.378 46.5847 156.145 46.8 155.953 47.072C155.771 47.3327 155.624 47.633 155.511 47.973C155.397 48.3017 155.307 48.6473 155.239 49.01C155.182 49.3613 155.142 49.7127 155.12 50.064C155.108 50.404 155.103 50.71 155.103 50.982ZM164.702 57.102C164.396 57.102 164.13 56.9943 163.903 56.779C163.688 56.5523 163.58 56.286 163.58 55.98C163.58 55.674 163.688 55.4133 163.903 55.198C164.13 54.9713 164.396 54.858 164.702 54.858C165.008 54.858 165.269 54.9713 165.484 55.198C165.711 55.4133 165.824 55.674 165.824 55.98C165.824 56.286 165.711 56.5523 165.484 56.779C165.269 56.9943 165.008 57.102 164.702 57.102ZM167.648 50.982C167.648 50.54 167.671 50.081 167.716 49.605C167.762 49.129 167.841 48.6643 167.954 48.211C168.079 47.7463 168.238 47.3043 168.43 46.885C168.634 46.4657 168.889 46.103 169.195 45.797C169.513 45.4797 169.881 45.2303 170.3 45.049C170.731 44.8563 171.23 44.76 171.796 44.76C172.363 44.76 172.856 44.8563 173.275 45.049C173.706 45.2303 174.074 45.4797 174.38 45.797C174.698 46.103 174.953 46.4657 175.145 46.885C175.349 47.3043 175.508 47.7463 175.621 48.211C175.746 48.6643 175.831 49.129 175.876 49.605C175.922 50.081 175.944 50.54 175.944 50.982C175.944 51.6167 175.888 52.2967 175.774 53.022C175.661 53.7473 175.451 54.4217 175.145 55.045C174.839 55.6683 174.414 56.184 173.87 56.592C173.338 57 172.646 57.204 171.796 57.204C170.946 57.204 170.249 57 169.705 56.592C169.173 56.184 168.753 55.6683 168.447 55.045C168.141 54.4217 167.932 53.7473 167.818 53.022C167.705 52.2967 167.648 51.6167 167.648 50.982ZM169.28 50.982C169.28 51.3787 169.303 51.849 169.348 52.393C169.405 52.937 169.518 53.464 169.688 53.974C169.858 54.4727 170.108 54.8977 170.436 55.249C170.776 55.6003 171.23 55.776 171.796 55.776C172.363 55.776 172.811 55.6003 173.139 55.249C173.479 54.8977 173.734 54.4727 173.904 53.974C174.074 53.464 174.182 52.937 174.227 52.393C174.284 51.849 174.312 51.3787 174.312 50.982C174.312 50.71 174.301 50.404 174.278 50.064C174.267 49.7127 174.227 49.3613 174.159 49.01C174.103 48.6473 174.018 48.3017 173.904 47.973C173.791 47.633 173.638 47.3327 173.445 47.072C173.264 46.8 173.037 46.5847 172.765 46.426C172.493 46.2673 172.17 46.188 171.796 46.188C171.422 46.188 171.099 46.2673 170.827 46.426C170.555 46.5847 170.323 46.8 170.13 47.072C169.949 47.3327 169.802 47.633 169.688 47.973C169.575 48.3017 169.484 48.6473 169.416 49.01C169.36 49.3613 169.32 49.7127 169.297 50.064C169.286 50.404 169.28 50.71 169.28 50.982ZM177.095 50.982C177.095 50.54 177.117 50.081 177.163 49.605C177.208 49.129 177.287 48.6643 177.401 48.211C177.525 47.7463 177.684 47.3043 177.877 46.885C178.081 46.4657 178.336 46.103 178.642 45.797C178.959 45.4797 179.327 45.2303 179.747 45.049C180.177 44.8563 180.676 44.76 181.243 44.76C181.809 44.76 182.302 44.8563 182.722 45.049C183.152 45.2303 183.521 45.4797 183.827 45.797C184.144 46.103 184.399 46.4657 184.592 46.885C184.796 47.3043 184.954 47.7463 185.068 48.211C185.192 48.6643 185.277 49.129 185.323 49.605C185.368 50.081 185.391 50.54 185.391 50.982C185.391 51.6167 185.334 52.2967 185.221 53.022C185.107 53.7473 184.898 54.4217 184.592 55.045C184.286 55.6683 183.861 56.184 183.317 56.592C182.784 57 182.093 57.204 181.243 57.204C180.393 57.204 179.696 57 179.152 56.592C178.619 56.184 178.2 55.6683 177.894 55.045C177.588 54.4217 177.378 53.7473 177.265 53.022C177.151 52.2967 177.095 51.6167 177.095 50.982ZM178.727 50.982C178.727 51.3787 178.749 51.849 178.795 52.393C178.851 52.937 178.965 53.464 179.135 53.974C179.305 54.4727 179.554 54.8977 179.883 55.249C180.223 55.6003 180.676 55.776 181.243 55.776C181.809 55.776 182.257 55.6003 182.586 55.249C182.926 54.8977 183.181 54.4727 183.351 53.974C183.521 53.464 183.628 52.937 183.674 52.393C183.73 51.849 183.759 51.3787 183.759 50.982C183.759 50.71 183.747 50.404 183.725 50.064C183.713 49.7127 183.674 49.3613 183.606 49.01C183.549 48.6473 183.464 48.3017 183.351 47.973C183.237 47.633 183.084 47.3327 182.892 47.072C182.71 46.8 182.484 46.5847 182.212 46.426C181.94 46.2673 181.617 46.188 181.243 46.188C180.869 46.188 180.546 46.2673 180.274 46.426C180.002 46.5847 179.769 46.8 179.577 47.072C179.395 47.3327 179.248 47.633 179.135 47.973C179.021 48.3017 178.931 48.6473 178.863 49.01C178.806 49.3613 178.766 49.7127 178.744 50.064C178.732 50.404 178.727 50.71 178.727 50.982ZM186.541 50.982C186.541 50.54 186.564 50.081 186.609 49.605C186.654 49.129 186.734 48.6643 186.847 48.211C186.972 47.7463 187.13 47.3043 187.323 46.885C187.527 46.4657 187.782 46.103 188.088 45.797C188.405 45.4797 188.774 45.2303 189.193 45.049C189.624 44.8563 190.122 44.76 190.689 44.76C191.256 44.76 191.749 44.8563 192.168 45.049C192.599 45.2303 192.967 45.4797 193.273 45.797C193.59 46.103 193.845 46.4657 194.038 46.885C194.242 47.3043 194.401 47.7463 194.514 48.211C194.639 48.6643 194.724 49.129 194.769 49.605C194.814 50.081 194.837 50.54 194.837 50.982C194.837 51.6167 194.78 52.2967 194.667 53.022C194.554 53.7473 194.344 54.4217 194.038 55.045C193.732 55.6683 193.307 56.184 192.763 56.592C192.23 57 191.539 57.204 190.689 57.204C189.839 57.204 189.142 57 188.598 56.592C188.065 56.184 187.646 55.6683 187.34 55.045C187.034 54.4217 186.824 53.7473 186.711 53.022C186.598 52.2967 186.541 51.6167 186.541 50.982ZM188.173 50.982C188.173 51.3787 188.196 51.849 188.241 52.393C188.298 52.937 188.411 53.464 188.581 53.974C188.751 54.4727 189 54.8977 189.329 55.249C189.669 55.6003 190.122 55.776 190.689 55.776C191.256 55.776 191.703 55.6003 192.032 55.249C192.372 54.8977 192.627 54.4727 192.797 53.974C192.967 53.464 193.075 52.937 193.12 52.393C193.177 51.849 193.205 51.3787 193.205 50.982C193.205 50.71 193.194 50.404 193.171 50.064C193.16 49.7127 193.12 49.3613 193.052 49.01C192.995 48.6473 192.91 48.3017 192.797 47.973C192.684 47.633 192.531 47.3327 192.338 47.072C192.157 46.8 191.93 46.5847 191.658 46.426C191.386 46.2673 191.063 46.188 190.689 46.188C190.315 46.188 189.992 46.2673 189.72 46.426C189.448 46.5847 189.216 46.8 189.023 47.072C188.842 47.3327 188.694 47.633 188.581 47.973C188.468 48.3017 188.377 48.6473 188.309 49.01C188.252 49.3613 188.213 49.7127 188.19 50.064C188.179 50.404 188.173 50.71 188.173 50.982ZM197.772 57.102C197.466 57.102 197.2 56.9943 196.973 56.779C196.758 56.5523 196.65 56.286 196.65 55.98C196.65 55.674 196.758 55.4133 196.973 55.198C197.2 54.9713 197.466 54.858 197.772 54.858C198.078 54.858 198.339 54.9713 198.554 55.198C198.781 55.4133 198.894 55.674 198.894 55.98C198.894 56.286 198.781 56.5523 198.554 56.779C198.339 56.9943 198.078 57.102 197.772 57.102ZM200.719 50.982C200.719 50.54 200.741 50.081 200.787 49.605C200.832 49.129 200.911 48.6643 201.025 48.211C201.149 47.7463 201.308 47.3043 201.501 46.885C201.705 46.4657 201.96 46.103 202.266 45.797C202.583 45.4797 202.951 45.2303 203.371 45.049C203.801 44.8563 204.3 44.76 204.867 44.76C205.433 44.76 205.926 44.8563 206.346 45.049C206.776 45.2303 207.145 45.4797 207.451 45.797C207.768 46.103 208.023 46.4657 208.216 46.885C208.42 47.3043 208.578 47.7463 208.692 48.211C208.816 48.6643 208.901 49.129 208.947 49.605C208.992 50.081 209.015 50.54 209.015 50.982C209.015 51.6167 208.958 52.2967 208.845 53.022C208.731 53.7473 208.522 54.4217 208.216 55.045C207.91 55.6683 207.485 56.184 206.941 56.592C206.408 57 205.717 57.204 204.867 57.204C204.017 57.204 203.32 57 202.776 56.592C202.243 56.184 201.824 55.6683 201.518 55.045C201.212 54.4217 201.002 53.7473 200.889 53.022C200.775 52.2967 200.719 51.6167 200.719 50.982ZM202.351 50.982C202.351 51.3787 202.373 51.849 202.419 52.393C202.475 52.937 202.589 53.464 202.759 53.974C202.929 54.4727 203.178 54.8977 203.507 55.249C203.847 55.6003 204.3 55.776 204.867 55.776C205.433 55.776 205.881 55.6003 206.21 55.249C206.55 54.8977 206.805 54.4727 206.975 53.974C207.145 53.464 207.252 52.937 207.298 52.393C207.354 51.849 207.383 51.3787 207.383 50.982C207.383 50.71 207.371 50.404 207.349 50.064C207.337 49.7127 207.298 49.3613 207.23 49.01C207.173 48.6473 207.088 48.3017 206.975 47.973C206.861 47.633 206.708 47.3327 206.516 47.072C206.334 46.8 206.108 46.5847 205.836 46.426C205.564 46.2673 205.241 46.188 204.867 46.188C204.493 46.188 204.17 46.2673 203.898 46.426C203.626 46.5847 203.393 46.8 203.201 47.072C203.019 47.3327 202.872 47.633 202.759 47.973C202.645 48.3017 202.555 48.6473 202.487 49.01C202.43 49.3613 202.39 49.7127 202.368 50.064C202.356 50.404 202.351 50.71 202.351 50.982ZM210.165 50.982C210.165 50.54 210.188 50.081 210.233 49.605C210.278 49.129 210.358 48.6643 210.471 48.211C210.596 47.7463 210.754 47.3043 210.947 46.885C211.151 46.4657 211.406 46.103 211.712 45.797C212.029 45.4797 212.398 45.2303 212.817 45.049C213.248 44.8563 213.746 44.76 214.313 44.76C214.88 44.76 215.373 44.8563 215.792 45.049C216.223 45.2303 216.591 45.4797 216.897 45.797C217.214 46.103 217.469 46.4657 217.662 46.885C217.866 47.3043 218.025 47.7463 218.138 48.211C218.263 48.6643 218.348 49.129 218.393 49.605C218.438 50.081 218.461 50.54 218.461 50.982C218.461 51.6167 218.404 52.2967 218.291 53.022C218.178 53.7473 217.968 54.4217 217.662 55.045C217.356 55.6683 216.931 56.184 216.387 56.592C215.854 57 215.163 57.204 214.313 57.204C213.463 57.204 212.766 57 212.222 56.592C211.689 56.184 211.27 55.6683 210.964 55.045C210.658 54.4217 210.448 53.7473 210.335 53.022C210.222 52.2967 210.165 51.6167 210.165 50.982ZM211.797 50.982C211.797 51.3787 211.82 51.849 211.865 52.393C211.922 52.937 212.035 53.464 212.205 53.974C212.375 54.4727 212.624 54.8977 212.953 55.249C213.293 55.6003 213.746 55.776 214.313 55.776C214.88 55.776 215.327 55.6003 215.656 55.249C215.996 54.8977 216.251 54.4727 216.421 53.974C216.591 53.464 216.699 52.937 216.744 52.393C216.801 51.849 216.829 51.3787 216.829 50.982C216.829 50.71 216.818 50.404 216.795 50.064C216.784 49.7127 216.744 49.3613 216.676 49.01C216.619 48.6473 216.534 48.3017 216.421 47.973C216.308 47.633 216.155 47.3327 215.962 47.072C215.781 46.8 215.554 46.5847 215.282 46.426C215.01 46.2673 214.687 46.188 214.313 46.188C213.939 46.188 213.616 46.2673 213.344 46.426C213.072 46.5847 212.84 46.8 212.647 47.072C212.466 47.3327 212.318 47.633 212.205 47.973C212.092 48.3017 212.001 48.6473 211.933 49.01C211.876 49.3613 211.837 49.7127 211.814 50.064C211.803 50.404 211.797 50.71 211.797 50.982ZM219.611 50.982C219.611 50.54 219.634 50.081 219.679 49.605C219.725 49.129 219.804 48.6643 219.917 48.211C220.042 47.7463 220.201 47.3043 220.393 46.885C220.597 46.4657 220.852 46.103 221.158 45.797C221.476 45.4797 221.844 45.2303 222.263 45.049C222.694 44.8563 223.193 44.76 223.759 44.76C224.326 44.76 224.819 44.8563 225.238 45.049C225.669 45.2303 226.037 45.4797 226.343 45.797C226.661 46.103 226.916 46.4657 227.108 46.885C227.312 47.3043 227.471 47.7463 227.584 48.211C227.709 48.6643 227.794 49.129 227.839 49.605C227.885 50.081 227.907 50.54 227.907 50.982C227.907 51.6167 227.851 52.2967 227.737 53.022C227.624 53.7473 227.414 54.4217 227.108 55.045C226.802 55.6683 226.377 56.184 225.833 56.592C225.301 57 224.609 57.204 223.759 57.204C222.909 57.204 222.212 57 221.668 56.592C221.136 56.184 220.716 55.6683 220.41 55.045C220.104 54.4217 219.895 53.7473 219.781 53.022C219.668 52.2967 219.611 51.6167 219.611 50.982ZM221.243 50.982C221.243 51.3787 221.266 51.849 221.311 52.393C221.368 52.937 221.481 53.464 221.651 53.974C221.821 54.4727 222.071 54.8977 222.399 55.249C222.739 55.6003 223.193 55.776 223.759 55.776C224.326 55.776 224.774 55.6003 225.102 55.249C225.442 54.8977 225.697 54.4727 225.867 53.974C226.037 53.464 226.145 52.937 226.19 52.393C226.247 51.849 226.275 51.3787 226.275 50.982C226.275 50.71 226.264 50.404 226.241 50.064C226.23 49.7127 226.19 49.3613 226.122 49.01C226.066 48.6473 225.981 48.3017 225.867 47.973C225.754 47.633 225.601 47.3327 225.408 47.072C225.227 46.8 225 46.5847 224.728 46.426C224.456 46.2673 224.133 46.188 223.759 46.188C223.385 46.188 223.062 46.2673 222.79 46.426C222.518 46.5847 222.286 46.8 222.093 47.072C221.912 47.3327 221.765 47.633 221.651 47.973C221.538 48.3017 221.447 48.6473 221.379 49.01C221.323 49.3613 221.283 49.7127 221.26 50.064C221.249 50.404 221.243 50.71 221.243 50.982Z" fill="#232626"/>
</svg>
