<svg  height="800px" width="100%" viewBox="0 0 355 455" fill="none" xmlns="http://www.w3.org/2000/svg">
<path d="M84.7723 400V400.5H85.2723H118.363C118.504 400.5 118.639 400.5 118.77 400.5C119.636 400.499 120.3 400.498 120.826 400.541C121.438 400.591 121.763 400.694 121.96 400.844C122.136 400.979 122.283 401.209 122.377 401.719C122.473 402.237 122.5 402.961 122.5 404C122.5 405.042 122.472 405.73 122.378 406.196C122.288 406.644 122.156 406.789 122.017 406.868C121.827 406.976 121.502 407.031 120.863 407.036C120.573 407.038 120.242 407.03 119.853 407.021L119.785 407.02C119.369 407.01 118.897 407 118.363 407H78.1361L78.1362 48.0001L118.363 48C118.5 48 118.636 47.9999 118.771 47.9997C119.679 47.9987 120.527 47.9978 121.308 48.0417C122.204 48.0922 122.972 48.2005 123.598 48.4188C124.216 48.6344 124.674 48.9499 124.986 49.4085C125.3 49.8709 125.5 50.5313 125.5 51.5C125.5 52.4712 125.299 53.0897 124.998 53.4969C124.7 53.8992 124.257 54.1591 123.638 54.3192C123.01 54.4815 122.239 54.5312 121.333 54.5357C120.883 54.5379 120.41 54.5291 119.912 54.5197L119.877 54.519C119.391 54.5097 118.884 54.5001 118.363 54.5001H85.2723H84.7723V55.0001V107.5V108H85.2723H118.363C118.5 108 118.636 108 118.771 108C119.679 107.999 120.527 107.998 121.308 108.042C122.204 108.092 122.972 108.201 123.598 108.419C124.216 108.634 124.674 108.95 124.986 109.409C125.3 109.871 125.5 110.531 125.5 111.5C125.5 112.471 125.299 113.09 124.998 113.497C124.7 113.899 124.257 114.159 123.638 114.319C123.01 114.482 122.239 114.531 121.333 114.536C120.883 114.538 120.41 114.529 119.912 114.52L119.877 114.519C119.391 114.51 118.883 114.5 118.363 114.5H85.2723H84.7723V115V167.5V168H85.2723H118.363C118.5 168 118.636 168 118.771 168C119.679 167.999 120.527 167.998 121.308 168.042C122.204 168.092 122.972 168.201 123.598 168.419C124.216 168.634 124.674 168.95 124.986 169.409C125.3 169.871 125.5 170.531 125.5 171.5C125.5 172.471 125.299 173.09 124.998 173.497C124.7 173.899 124.257 174.159 123.638 174.319C123.01 174.482 122.239 174.531 121.333 174.536C120.883 174.538 120.41 174.529 119.912 174.52L119.88 174.519C119.393 174.51 118.885 174.5 118.363 174.5H85.2723H84.7723V175V227.5V228H85.2723H118.363C118.885 228 119.393 227.99 119.88 227.981L119.912 227.98C120.41 227.971 120.883 227.962 121.333 227.964C122.239 227.969 123.01 228.019 123.638 228.181C124.257 228.341 124.7 228.601 124.998 229.003C125.299 229.41 125.5 230.029 125.5 231C125.5 231.969 125.3 232.629 124.986 233.092C124.674 233.55 124.216 233.866 123.598 234.081C122.972 234.3 122.204 234.408 121.308 234.458C120.527 234.502 119.679 234.501 118.771 234.5C118.636 234.5 118.5 234.5 118.363 234.5H85.2723H84.7723V235V287.5V288H85.2723H118.363C118.5 288 118.636 288 118.771 288C119.679 287.999 120.527 287.998 121.308 288.042C122.204 288.092 122.972 288.201 123.598 288.419C124.216 288.634 124.674 288.95 124.986 289.409C125.3 289.871 125.5 290.531 125.5 291.5C125.5 292.471 125.299 293.09 124.998 293.497C124.7 293.899 124.257 294.159 123.638 294.319C123.01 294.482 122.239 294.531 121.333 294.536C120.883 294.538 120.41 294.529 119.912 294.52L119.88 294.519C119.393 294.51 118.885 294.5 118.363 294.5H85.2723H84.7723V295V347.5V348H85.2723H118.363C118.885 348 119.393 347.99 119.88 347.981L119.912 347.98C120.41 347.971 120.883 347.962 121.333 347.964C122.239 347.969 123.01 348.019 123.638 348.181C124.257 348.341 124.7 348.601 124.998 349.003C125.299 349.41 125.5 350.029 125.5 351C125.5 351.969 125.3 352.629 124.986 353.092C124.674 353.55 124.216 353.866 123.598 354.081C122.972 354.3 122.204 354.408 121.308 354.458C120.527 354.502 119.679 354.501 118.771 354.5C118.636 354.5 118.5 354.5 118.363 354.5H85.2723H84.7723V355V400Z" fill="black" stroke="black"/>
<path d="M347.5 0H7.49955C4.97855 0 2.62555 1.267 1.23855 3.371C-0.149451 5.476 -0.386451 8.137 0.606549 10.454L29.9995 79.04V407.5C29.9995 433.691 51.3085 455 77.4995 455H307.5C333.691 455 355 433.691 355 407.5V7.5C355 3.358 351.643 0 347.5 0ZM340 407.5C340 425.42 325.421 440 307.5 440H77.4995C59.5795 440 44.9995 425.42 44.9995 407.5V77.5C44.9995 76.484 44.7935 75.479 44.3935 74.545L18.8736 15H340V407.5Z" fill="black"/>
<path d="M134.57 403.69C134.57 403.09 134.62 402.465 134.72 401.815C134.82 401.165 135.005 400.575 135.275 400.045C135.545 399.505 135.91 399.065 136.37 398.725C136.84 398.375 137.44 398.2 138.17 398.2C138.9 398.2 139.495 398.375 139.955 398.725C140.425 399.065 140.795 399.505 141.065 400.045C141.335 400.575 141.52 401.165 141.62 401.815C141.72 402.465 141.77 403.09 141.77 403.69C141.77 404.29 141.72 404.915 141.62 405.565C141.52 406.215 141.335 406.81 141.065 407.35C140.795 407.88 140.425 408.32 139.955 408.67C139.495 409.01 138.9 409.18 138.17 409.18C137.44 409.18 136.84 409.01 136.37 408.67C135.91 408.32 135.545 407.88 135.275 407.35C135.005 406.81 134.82 406.215 134.72 405.565C134.62 404.915 134.57 404.29 134.57 403.69ZM135.83 403.69C135.83 403.95 135.84 404.24 135.86 404.56C135.88 404.88 135.915 405.205 135.965 405.535C136.025 405.855 136.105 406.17 136.205 406.48C136.315 406.79 136.455 407.065 136.625 407.305C136.805 407.545 137.02 407.74 137.27 407.89C137.52 408.03 137.82 408.1 138.17 408.1C138.52 408.1 138.82 408.03 139.07 407.89C139.32 407.74 139.53 407.545 139.7 407.305C139.88 407.065 140.02 406.79 140.12 406.48C140.23 406.17 140.31 405.855 140.36 405.535C140.42 405.205 140.46 404.88 140.48 404.56C140.5 404.24 140.51 403.95 140.51 403.69C140.51 403.43 140.5 403.14 140.48 402.82C140.46 402.5 140.42 402.18 140.36 401.86C140.31 401.53 140.23 401.21 140.12 400.9C140.02 400.59 139.88 400.315 139.7 400.075C139.53 399.835 139.32 399.645 139.07 399.505C138.82 399.355 138.52 399.28 138.17 399.28C137.82 399.28 137.52 399.355 137.27 399.505C137.02 399.645 136.805 399.835 136.625 400.075C136.455 400.315 136.315 400.59 136.205 400.9C136.105 401.21 136.025 401.53 135.965 401.86C135.915 402.18 135.88 402.5 135.86 402.82C135.84 403.14 135.83 403.43 135.83 403.69Z" fill="#232626"/>
<path d="M137.06 349.88H137.45C137.71 349.88 137.98 349.86 138.26 349.82C138.55 349.78 138.81 349.695 139.04 349.565C139.28 349.435 139.475 349.25 139.625 349.01C139.785 348.76 139.865 348.435 139.865 348.035C139.865 347.495 139.695 347.07 139.355 346.76C139.025 346.44 138.59 346.28 138.05 346.28C137.6 346.28 137.21 346.38 136.88 346.58C136.55 346.78 136.29 347.075 136.1 347.465L134.885 347C135.145 346.4 135.55 345.95 136.1 345.65C136.66 345.35 137.28 345.2 137.96 345.2C138.38 345.2 138.78 345.26 139.16 345.38C139.55 345.5 139.89 345.675 140.18 345.905C140.47 346.135 140.7 346.425 140.87 346.775C141.04 347.115 141.125 347.515 141.125 347.975C141.125 348.535 140.955 349.04 140.615 349.49C140.285 349.93 139.85 350.235 139.31 350.405V350.435C139.65 350.495 139.95 350.605 140.21 350.765C140.48 350.925 140.71 351.125 140.9 351.365C141.09 351.595 141.235 351.86 141.335 352.16C141.435 352.46 141.485 352.775 141.485 353.105C141.485 353.615 141.39 354.06 141.2 354.44C141.01 354.82 140.755 355.14 140.435 355.4C140.115 355.66 139.74 355.855 139.31 355.985C138.89 356.115 138.445 356.18 137.975 356.18C137.165 356.18 136.46 356.005 135.86 355.655C135.26 355.305 134.825 354.735 134.555 353.945L135.83 353.525C136.01 354.095 136.265 354.5 136.595 354.74C136.925 354.98 137.385 355.1 137.975 355.1C138.275 355.1 138.555 355.05 138.815 354.95C139.075 354.85 139.3 354.71 139.49 354.53C139.69 354.34 139.845 354.12 139.955 353.87C140.075 353.61 140.135 353.325 140.135 353.015C140.135 352.625 140.055 352.3 139.895 352.04C139.745 351.77 139.54 351.56 139.28 351.41C139.03 351.25 138.745 351.135 138.425 351.065C138.105 350.995 137.78 350.96 137.45 350.96H137.06V349.88ZM145.395 349.805L145.425 349.835C145.625 349.725 145.855 349.645 146.115 349.595C146.385 349.545 146.63 349.52 146.85 349.52C147.31 349.52 147.735 349.6 148.125 349.76C148.525 349.92 148.865 350.15 149.145 350.45C149.435 350.74 149.66 351.09 149.82 351.5C149.98 351.91 150.06 352.36 150.06 352.85C150.06 353.37 149.97 353.835 149.79 354.245C149.61 354.655 149.36 355.005 149.04 355.295C148.72 355.575 148.34 355.795 147.9 355.955C147.47 356.105 147.005 356.18 146.505 356.18C146.005 356.18 145.535 356.105 145.095 355.955C144.665 355.795 144.29 355.575 143.97 355.295C143.65 355.005 143.4 354.655 143.22 354.245C143.04 353.835 142.95 353.37 142.95 352.85C142.95 352.24 143.045 351.705 143.235 351.245C143.425 350.785 143.665 350.325 143.955 349.865L146.775 345.38H148.245L145.395 349.805ZM146.505 350.6C146.185 350.6 145.885 350.655 145.605 350.765C145.325 350.865 145.08 351.015 144.87 351.215C144.67 351.405 144.51 351.64 144.39 351.92C144.27 352.2 144.21 352.51 144.21 352.85C144.21 353.2 144.27 353.515 144.39 353.795C144.51 354.065 144.67 354.3 144.87 354.5C145.08 354.69 145.325 354.84 145.605 354.95C145.885 355.05 146.185 355.1 146.505 355.1C146.825 355.1 147.125 355.05 147.405 354.95C147.685 354.84 147.925 354.69 148.125 354.5C148.335 354.3 148.5 354.065 148.62 353.795C148.74 353.515 148.8 353.2 148.8 352.85C148.8 352.51 148.74 352.2 148.62 351.92C148.5 351.64 148.335 351.405 148.125 351.215C147.925 351.015 147.685 350.865 147.405 350.765C147.125 350.655 146.825 350.6 146.505 350.6ZM155.95 351.575L155.92 351.545C155.72 351.655 155.485 351.735 155.215 351.785C154.955 351.835 154.715 351.86 154.495 351.86C154.035 351.86 153.605 351.78 153.205 351.62C152.815 351.46 152.475 351.235 152.185 350.945C151.905 350.645 151.685 350.295 151.525 349.895C151.365 349.485 151.285 349.03 151.285 348.53C151.285 348.01 151.375 347.545 151.555 347.135C151.735 346.725 151.985 346.38 152.305 346.1C152.625 345.81 153 345.59 153.43 345.44C153.87 345.28 154.34 345.2 154.84 345.2C155.34 345.2 155.805 345.28 156.235 345.44C156.675 345.59 157.055 345.81 157.375 346.1C157.695 346.38 157.945 346.725 158.125 347.135C158.305 347.545 158.395 348.01 158.395 348.53C158.395 348.84 158.37 349.125 158.32 349.385C158.27 349.645 158.2 349.895 158.11 350.135C158.02 350.375 157.91 350.61 157.78 350.84C157.66 351.06 157.53 351.285 157.39 351.515L154.57 356H153.1L155.95 351.575ZM154.84 350.78C155.16 350.78 155.46 350.73 155.74 350.63C156.02 350.52 156.26 350.37 156.46 350.18C156.67 349.98 156.835 349.745 156.955 349.475C157.075 349.195 157.135 348.88 157.135 348.53C157.135 348.19 157.075 347.88 156.955 347.6C156.835 347.32 156.67 347.085 156.46 346.895C156.26 346.695 156.02 346.545 155.74 346.445C155.46 346.335 155.16 346.28 154.84 346.28C154.52 346.28 154.22 346.335 153.94 346.445C153.66 346.545 153.415 346.695 153.205 346.895C153.005 347.085 152.845 347.32 152.725 347.6C152.605 347.88 152.545 348.19 152.545 348.53C152.545 348.88 152.605 349.195 152.725 349.475C152.845 349.745 153.005 349.98 153.205 350.18C153.415 350.37 153.66 350.52 153.94 350.63C154.22 350.73 154.52 350.78 154.84 350.78ZM161.09 354.29C161.34 354.29 161.55 354.38 161.72 354.56C161.9 354.73 161.99 354.94 161.99 355.19C161.99 355.44 161.895 355.655 161.705 355.835C161.525 356.005 161.32 356.09 161.09 356.09C160.86 356.09 160.65 356.005 160.46 355.835C160.28 355.655 160.19 355.44 160.19 355.19C160.19 354.94 160.275 354.73 160.445 354.56C160.625 354.38 160.84 354.29 161.09 354.29ZM163.75 350.69C163.75 350.09 163.8 349.465 163.9 348.815C164 348.165 164.185 347.575 164.455 347.045C164.725 346.505 165.09 346.065 165.55 345.725C166.02 345.375 166.62 345.2 167.35 345.2C168.08 345.2 168.675 345.375 169.135 345.725C169.605 346.065 169.975 346.505 170.245 347.045C170.515 347.575 170.7 348.165 170.8 348.815C170.9 349.465 170.95 350.09 170.95 350.69C170.95 351.29 170.9 351.915 170.8 352.565C170.7 353.215 170.515 353.81 170.245 354.35C169.975 354.88 169.605 355.32 169.135 355.67C168.675 356.01 168.08 356.18 167.35 356.18C166.62 356.18 166.02 356.01 165.55 355.67C165.09 355.32 164.725 354.88 164.455 354.35C164.185 353.81 164 353.215 163.9 352.565C163.8 351.915 163.75 351.29 163.75 350.69ZM165.01 350.69C165.01 350.95 165.02 351.24 165.04 351.56C165.06 351.88 165.095 352.205 165.145 352.535C165.205 352.855 165.285 353.17 165.385 353.48C165.495 353.79 165.635 354.065 165.805 354.305C165.985 354.545 166.2 354.74 166.45 354.89C166.7 355.03 167 355.1 167.35 355.1C167.7 355.1 168 355.03 168.25 354.89C168.5 354.74 168.71 354.545 168.88 354.305C169.06 354.065 169.2 353.79 169.3 353.48C169.41 353.17 169.49 352.855 169.54 352.535C169.6 352.205 169.64 351.88 169.66 351.56C169.68 351.24 169.69 350.95 169.69 350.69C169.69 350.43 169.68 350.14 169.66 349.82C169.64 349.5 169.6 349.18 169.54 348.86C169.49 348.53 169.41 348.21 169.3 347.9C169.2 347.59 169.06 347.315 168.88 347.075C168.71 346.835 168.5 346.645 168.25 346.505C168 346.355 167.7 346.28 167.35 346.28C167 346.28 166.7 346.355 166.45 346.505C166.2 346.645 165.985 346.835 165.805 347.075C165.635 347.315 165.495 347.59 165.385 347.9C165.285 348.21 165.205 348.53 165.145 348.86C165.095 349.18 165.06 349.5 165.04 349.82C165.02 350.14 165.01 350.43 165.01 350.69ZM176.795 351.575L176.765 351.545C176.565 351.655 176.33 351.735 176.06 351.785C175.8 351.835 175.56 351.86 175.34 351.86C174.88 351.86 174.45 351.78 174.05 351.62C173.66 351.46 173.32 351.235 173.03 350.945C172.75 350.645 172.53 350.295 172.37 349.895C172.21 349.485 172.13 349.03 172.13 348.53C172.13 348.01 172.22 347.545 172.4 347.135C172.58 346.725 172.83 346.38 173.15 346.1C173.47 345.81 173.845 345.59 174.275 345.44C174.715 345.28 175.185 345.2 175.685 345.2C176.185 345.2 176.65 345.28 177.08 345.44C177.52 345.59 177.9 345.81 178.22 346.1C178.54 346.38 178.79 346.725 178.97 347.135C179.15 347.545 179.24 348.01 179.24 348.53C179.24 348.84 179.215 349.125 179.165 349.385C179.115 349.645 179.045 349.895 178.955 350.135C178.865 350.375 178.755 350.61 178.625 350.84C178.505 351.06 178.375 351.285 178.235 351.515L175.415 356H173.945L176.795 351.575ZM175.685 350.78C176.005 350.78 176.305 350.73 176.585 350.63C176.865 350.52 177.105 350.37 177.305 350.18C177.515 349.98 177.68 349.745 177.8 349.475C177.92 349.195 177.98 348.88 177.98 348.53C177.98 348.19 177.92 347.88 177.8 347.6C177.68 347.32 177.515 347.085 177.305 346.895C177.105 346.695 176.865 346.545 176.585 346.445C176.305 346.335 176.005 346.28 175.685 346.28C175.365 346.28 175.065 346.335 174.785 346.445C174.505 346.545 174.26 346.695 174.05 346.895C173.85 347.085 173.69 347.32 173.57 347.6C173.45 347.88 173.39 348.19 173.39 348.53C173.39 348.88 173.45 349.195 173.57 349.475C173.69 349.745 173.85 349.98 174.05 350.18C174.26 350.37 174.505 350.52 174.785 350.63C175.065 350.73 175.365 350.78 175.685 350.78ZM180.99 347.975C180.99 347.555 181.065 347.175 181.215 346.835C181.375 346.495 181.59 346.205 181.86 345.965C182.13 345.725 182.45 345.54 182.82 345.41C183.19 345.27 183.59 345.2 184.02 345.2C184.45 345.2 184.85 345.27 185.22 345.41C185.59 345.54 185.91 345.725 186.18 345.965C186.45 346.205 186.66 346.495 186.81 346.835C186.97 347.175 187.05 347.555 187.05 347.975C187.05 348.225 187.01 348.475 186.93 348.725C186.85 348.975 186.735 349.205 186.585 349.415C186.435 349.625 186.25 349.81 186.03 349.97C185.82 350.13 185.58 350.245 185.31 350.315V350.345C185.63 350.415 185.92 350.535 186.18 350.705C186.44 350.865 186.66 351.065 186.84 351.305C187.02 351.545 187.16 351.82 187.26 352.13C187.36 352.43 187.41 352.745 187.41 353.075C187.41 353.555 187.32 353.99 187.14 354.38C186.97 354.76 186.73 355.085 186.42 355.355C186.12 355.625 185.76 355.83 185.34 355.97C184.93 356.11 184.49 356.18 184.02 356.18C183.55 356.18 183.105 356.11 182.685 355.97C182.275 355.83 181.915 355.625 181.605 355.355C181.305 355.085 181.065 354.76 180.885 354.38C180.715 353.99 180.63 353.555 180.63 353.075C180.63 352.745 180.68 352.43 180.78 352.13C180.88 351.82 181.02 351.545 181.2 351.305C181.38 351.065 181.6 350.865 181.86 350.705C182.12 350.535 182.41 350.415 182.73 350.345V350.315C182.46 350.245 182.215 350.13 181.995 349.97C181.785 349.81 181.605 349.625 181.455 349.415C181.305 349.205 181.19 348.975 181.11 348.725C181.03 348.475 180.99 348.225 180.99 347.975ZM182.25 348.035C182.25 348.545 182.41 348.965 182.73 349.295C183.06 349.625 183.49 349.79 184.02 349.79C184.55 349.79 184.975 349.625 185.295 349.295C185.625 348.965 185.79 348.545 185.79 348.035C185.79 347.525 185.625 347.105 185.295 346.775C184.975 346.445 184.55 346.28 184.02 346.28C183.49 346.28 183.06 346.445 182.73 346.775C182.41 347.105 182.25 347.525 182.25 348.035ZM181.89 352.985C181.89 353.295 181.945 353.58 182.055 353.84C182.165 354.1 182.315 354.325 182.505 354.515C182.705 354.695 182.93 354.84 183.18 354.95C183.44 355.05 183.72 355.1 184.02 355.1C184.32 355.1 184.595 355.05 184.845 354.95C185.105 354.84 185.33 354.695 185.52 354.515C185.72 354.325 185.875 354.1 185.985 353.84C186.095 353.58 186.15 353.295 186.15 352.985C186.15 352.675 186.095 352.39 185.985 352.13C185.875 351.87 185.72 351.65 185.52 351.47C185.33 351.28 185.105 351.135 184.845 351.035C184.595 350.925 184.32 350.87 184.02 350.87C183.72 350.87 183.44 350.925 183.18 351.035C182.93 351.135 182.705 351.28 182.505 351.47C182.315 351.65 182.165 351.87 182.055 352.13C181.945 352.39 181.89 352.675 181.89 352.985ZM190.27 354.29C190.52 354.29 190.73 354.38 190.9 354.56C191.08 354.73 191.17 354.94 191.17 355.19C191.17 355.44 191.075 355.655 190.885 355.835C190.705 356.005 190.5 356.09 190.27 356.09C190.04 356.09 189.83 356.005 189.64 355.835C189.46 355.655 189.37 355.44 189.37 355.19C189.37 354.94 189.455 354.73 189.625 354.56C189.805 354.38 190.02 354.29 190.27 354.29ZM192.929 350.69C192.929 350.09 192.979 349.465 193.079 348.815C193.179 348.165 193.364 347.575 193.634 347.045C193.904 346.505 194.269 346.065 194.729 345.725C195.199 345.375 195.799 345.2 196.529 345.2C197.259 345.2 197.854 345.375 198.314 345.725C198.784 346.065 199.154 346.505 199.424 347.045C199.694 347.575 199.879 348.165 199.979 348.815C200.079 349.465 200.129 350.09 200.129 350.69C200.129 351.29 200.079 351.915 199.979 352.565C199.879 353.215 199.694 353.81 199.424 354.35C199.154 354.88 198.784 355.32 198.314 355.67C197.854 356.01 197.259 356.18 196.529 356.18C195.799 356.18 195.199 356.01 194.729 355.67C194.269 355.32 193.904 354.88 193.634 354.35C193.364 353.81 193.179 353.215 193.079 352.565C192.979 351.915 192.929 351.29 192.929 350.69ZM194.189 350.69C194.189 350.95 194.199 351.24 194.219 351.56C194.239 351.88 194.274 352.205 194.324 352.535C194.384 352.855 194.464 353.17 194.564 353.48C194.674 353.79 194.814 354.065 194.984 354.305C195.164 354.545 195.379 354.74 195.629 354.89C195.879 355.03 196.179 355.1 196.529 355.1C196.879 355.1 197.179 355.03 197.429 354.89C197.679 354.74 197.889 354.545 198.059 354.305C198.239 354.065 198.379 353.79 198.479 353.48C198.589 353.17 198.669 352.855 198.719 352.535C198.779 352.205 198.819 351.88 198.839 351.56C198.859 351.24 198.869 350.95 198.869 350.69C198.869 350.43 198.859 350.14 198.839 349.82C198.819 349.5 198.779 349.18 198.719 348.86C198.669 348.53 198.589 348.21 198.479 347.9C198.379 347.59 198.239 347.315 198.059 347.075C197.889 346.835 197.679 346.645 197.429 346.505C197.179 346.355 196.879 346.28 196.529 346.28C196.179 346.28 195.879 346.355 195.629 346.505C195.379 346.645 195.164 346.835 194.984 347.075C194.814 347.315 194.674 347.59 194.564 347.9C194.464 348.21 194.384 348.53 194.324 348.86C194.274 349.18 194.239 349.5 194.219 349.82C194.199 350.14 194.189 350.43 194.189 350.69ZM201.444 354.56L205.449 350.66C205.699 350.42 205.919 350.2 206.109 350C206.299 349.79 206.454 349.59 206.574 349.4C206.704 349.2 206.799 348.995 206.859 348.785C206.919 348.575 206.949 348.34 206.949 348.08C206.949 347.8 206.899 347.55 206.799 347.33C206.699 347.11 206.559 346.925 206.379 346.775C206.209 346.615 206.004 346.495 205.764 346.415C205.534 346.325 205.284 346.28 205.014 346.28C204.474 346.28 204.029 346.435 203.679 346.745C203.329 347.055 203.104 347.465 203.004 347.975L201.639 347.855C201.709 347.425 201.839 347.045 202.029 346.715C202.229 346.375 202.474 346.095 202.764 345.875C203.064 345.655 203.399 345.49 203.769 345.38C204.139 345.26 204.539 345.2 204.969 345.2C205.409 345.2 205.824 345.265 206.214 345.395C206.604 345.515 206.944 345.695 207.234 345.935C207.534 346.175 207.769 346.475 207.939 346.835C208.119 347.195 208.209 347.61 208.209 348.08C208.209 348.5 208.149 348.88 208.029 349.22C207.919 349.56 207.764 349.875 207.564 350.165C207.374 350.445 207.154 350.715 206.904 350.975C206.664 351.225 206.409 351.475 206.139 351.725L202.869 354.8V354.83H208.284V356H201.444V354.56ZM212.089 349.805L212.119 349.835C212.319 349.725 212.549 349.645 212.809 349.595C213.079 349.545 213.324 349.52 213.544 349.52C214.004 349.52 214.429 349.6 214.819 349.76C215.219 349.92 215.559 350.15 215.839 350.45C216.129 350.74 216.354 351.09 216.514 351.5C216.674 351.91 216.754 352.36 216.754 352.85C216.754 353.37 216.664 353.835 216.484 354.245C216.304 354.655 216.054 355.005 215.734 355.295C215.414 355.575 215.034 355.795 214.594 355.955C214.164 356.105 213.699 356.18 213.199 356.18C212.699 356.18 212.229 356.105 211.789 355.955C211.359 355.795 210.984 355.575 210.664 355.295C210.344 355.005 210.094 354.655 209.914 354.245C209.734 353.835 209.644 353.37 209.644 352.85C209.644 352.24 209.739 351.705 209.929 351.245C210.119 350.785 210.359 350.325 210.649 349.865L213.469 345.38H214.939L212.089 349.805ZM213.199 350.6C212.879 350.6 212.579 350.655 212.299 350.765C212.019 350.865 211.774 351.015 211.564 351.215C211.364 351.405 211.204 351.64 211.084 351.92C210.964 352.2 210.904 352.51 210.904 352.85C210.904 353.2 210.964 353.515 211.084 353.795C211.204 354.065 211.364 354.3 211.564 354.5C211.774 354.69 212.019 354.84 212.299 354.95C212.579 355.05 212.879 355.1 213.199 355.1C213.519 355.1 213.819 355.05 214.099 354.95C214.379 354.84 214.619 354.69 214.819 354.5C215.029 354.3 215.194 354.065 215.314 353.795C215.434 353.515 215.494 353.2 215.494 352.85C215.494 352.51 215.434 352.2 215.314 351.92C215.194 351.64 215.029 351.405 214.819 351.215C214.619 351.015 214.379 350.865 214.099 350.765C213.819 350.655 213.519 350.6 213.199 350.6Z" fill="#232626"/>
<path d="M141.2 287.55L136.955 297H135.53L139.85 287.55H134.72V286.38H141.2V287.55ZM145.395 290.88H145.785C146.045 290.88 146.315 290.86 146.595 290.82C146.885 290.78 147.145 290.695 147.375 290.565C147.615 290.435 147.81 290.25 147.96 290.01C148.12 289.76 148.2 289.435 148.2 289.035C148.2 288.495 148.03 288.07 147.69 287.76C147.36 287.44 146.925 287.28 146.385 287.28C145.935 287.28 145.545 287.38 145.215 287.58C144.885 287.78 144.625 288.075 144.435 288.465L143.22 288C143.48 287.4 143.885 286.95 144.435 286.65C144.995 286.35 145.615 286.2 146.295 286.2C146.715 286.2 147.115 286.26 147.495 286.38C147.885 286.5 148.225 286.675 148.515 286.905C148.805 287.135 149.035 287.425 149.205 287.775C149.375 288.115 149.46 288.515 149.46 288.975C149.46 289.535 149.29 290.04 148.95 290.49C148.62 290.93 148.185 291.235 147.645 291.405V291.435C147.985 291.495 148.285 291.605 148.545 291.765C148.815 291.925 149.045 292.125 149.235 292.365C149.425 292.595 149.57 292.86 149.67 293.16C149.77 293.46 149.82 293.775 149.82 294.105C149.82 294.615 149.725 295.06 149.535 295.44C149.345 295.82 149.09 296.14 148.77 296.4C148.45 296.66 148.075 296.855 147.645 296.985C147.225 297.115 146.78 297.18 146.31 297.18C145.5 297.18 144.795 297.005 144.195 296.655C143.595 296.305 143.16 295.735 142.89 294.945L144.165 294.525C144.345 295.095 144.6 295.5 144.93 295.74C145.26 295.98 145.72 296.1 146.31 296.1C146.61 296.1 146.89 296.05 147.15 295.95C147.41 295.85 147.635 295.71 147.825 295.53C148.025 295.34 148.18 295.12 148.29 294.87C148.41 294.61 148.47 294.325 148.47 294.015C148.47 293.625 148.39 293.3 148.23 293.04C148.08 292.77 147.875 292.56 147.615 292.41C147.365 292.25 147.08 292.135 146.76 292.065C146.44 291.995 146.115 291.96 145.785 291.96H145.395V290.88ZM151.81 288.975C151.81 288.555 151.885 288.175 152.035 287.835C152.195 287.495 152.41 287.205 152.68 286.965C152.95 286.725 153.27 286.54 153.64 286.41C154.01 286.27 154.41 286.2 154.84 286.2C155.27 286.2 155.67 286.27 156.04 286.41C156.41 286.54 156.73 286.725 157 286.965C157.27 287.205 157.48 287.495 157.63 287.835C157.79 288.175 157.87 288.555 157.87 288.975C157.87 289.225 157.83 289.475 157.75 289.725C157.67 289.975 157.555 290.205 157.405 290.415C157.255 290.625 157.07 290.81 156.85 290.97C156.64 291.13 156.4 291.245 156.13 291.315V291.345C156.45 291.415 156.74 291.535 157 291.705C157.26 291.865 157.48 292.065 157.66 292.305C157.84 292.545 157.98 292.82 158.08 293.13C158.18 293.43 158.23 293.745 158.23 294.075C158.23 294.555 158.14 294.99 157.96 295.38C157.79 295.76 157.55 296.085 157.24 296.355C156.94 296.625 156.58 296.83 156.16 296.97C155.75 297.11 155.31 297.18 154.84 297.18C154.37 297.18 153.925 297.11 153.505 296.97C153.095 296.83 152.735 296.625 152.425 296.355C152.125 296.085 151.885 295.76 151.705 295.38C151.535 294.99 151.45 294.555 151.45 294.075C151.45 293.745 151.5 293.43 151.6 293.13C151.7 292.82 151.84 292.545 152.02 292.305C152.2 292.065 152.42 291.865 152.68 291.705C152.94 291.535 153.23 291.415 153.55 291.345V291.315C153.28 291.245 153.035 291.13 152.815 290.97C152.605 290.81 152.425 290.625 152.275 290.415C152.125 290.205 152.01 289.975 151.93 289.725C151.85 289.475 151.81 289.225 151.81 288.975ZM153.07 289.035C153.07 289.545 153.23 289.965 153.55 290.295C153.88 290.625 154.31 290.79 154.84 290.79C155.37 290.79 155.795 290.625 156.115 290.295C156.445 289.965 156.61 289.545 156.61 289.035C156.61 288.525 156.445 288.105 156.115 287.775C155.795 287.445 155.37 287.28 154.84 287.28C154.31 287.28 153.88 287.445 153.55 287.775C153.23 288.105 153.07 288.525 153.07 289.035ZM152.71 293.985C152.71 294.295 152.765 294.58 152.875 294.84C152.985 295.1 153.135 295.325 153.325 295.515C153.525 295.695 153.75 295.84 154 295.95C154.26 296.05 154.54 296.1 154.84 296.1C155.14 296.1 155.415 296.05 155.665 295.95C155.925 295.84 156.15 295.695 156.34 295.515C156.54 295.325 156.695 295.1 156.805 294.84C156.915 294.58 156.97 294.295 156.97 293.985C156.97 293.675 156.915 293.39 156.805 293.13C156.695 292.87 156.54 292.65 156.34 292.47C156.15 292.28 155.925 292.135 155.665 292.035C155.415 291.925 155.14 291.87 154.84 291.87C154.54 291.87 154.26 291.925 154 292.035C153.75 292.135 153.525 292.28 153.325 292.47C153.135 292.65 152.985 292.87 152.875 293.13C152.765 293.39 152.71 293.675 152.71 293.985ZM161.09 295.29C161.34 295.29 161.55 295.38 161.72 295.56C161.9 295.73 161.99 295.94 161.99 296.19C161.99 296.44 161.895 296.655 161.705 296.835C161.525 297.005 161.32 297.09 161.09 297.09C160.86 297.09 160.65 297.005 160.46 296.835C160.28 296.655 160.19 296.44 160.19 296.19C160.19 295.94 160.275 295.73 160.445 295.56C160.625 295.38 160.84 295.29 161.09 295.29ZM168.58 297H167.32V288H167.29L165.385 289.605L164.635 288.69L167.485 286.38H168.58V297ZM176.795 292.575L176.765 292.545C176.565 292.655 176.33 292.735 176.06 292.785C175.8 292.835 175.56 292.86 175.34 292.86C174.88 292.86 174.45 292.78 174.05 292.62C173.66 292.46 173.32 292.235 173.03 291.945C172.75 291.645 172.53 291.295 172.37 290.895C172.21 290.485 172.13 290.03 172.13 289.53C172.13 289.01 172.22 288.545 172.4 288.135C172.58 287.725 172.83 287.38 173.15 287.1C173.47 286.81 173.845 286.59 174.275 286.44C174.715 286.28 175.185 286.2 175.685 286.2C176.185 286.2 176.65 286.28 177.08 286.44C177.52 286.59 177.9 286.81 178.22 287.1C178.54 287.38 178.79 287.725 178.97 288.135C179.15 288.545 179.24 289.01 179.24 289.53C179.24 289.84 179.215 290.125 179.165 290.385C179.115 290.645 179.045 290.895 178.955 291.135C178.865 291.375 178.755 291.61 178.625 291.84C178.505 292.06 178.375 292.285 178.235 292.515L175.415 297H173.945L176.795 292.575ZM175.685 291.78C176.005 291.78 176.305 291.73 176.585 291.63C176.865 291.52 177.105 291.37 177.305 291.18C177.515 290.98 177.68 290.745 177.8 290.475C177.92 290.195 177.98 289.88 177.98 289.53C177.98 289.19 177.92 288.88 177.8 288.6C177.68 288.32 177.515 288.085 177.305 287.895C177.105 287.695 176.865 287.545 176.585 287.445C176.305 287.335 176.005 287.28 175.685 287.28C175.365 287.28 175.065 287.335 174.785 287.445C174.505 287.545 174.26 287.695 174.05 287.895C173.85 288.085 173.69 288.32 173.57 288.6C173.45 288.88 173.39 289.19 173.39 289.53C173.39 289.88 173.45 290.195 173.57 290.475C173.69 290.745 173.85 290.98 174.05 291.18C174.26 291.37 174.505 291.52 174.785 291.63C175.065 291.73 175.365 291.78 175.685 291.78ZM182.91 290.805L182.94 290.835C183.14 290.725 183.37 290.645 183.63 290.595C183.9 290.545 184.145 290.52 184.365 290.52C184.825 290.52 185.25 290.6 185.64 290.76C186.04 290.92 186.38 291.15 186.66 291.45C186.95 291.74 187.175 292.09 187.335 292.5C187.495 292.91 187.575 293.36 187.575 293.85C187.575 294.37 187.485 294.835 187.305 295.245C187.125 295.655 186.875 296.005 186.555 296.295C186.235 296.575 185.855 296.795 185.415 296.955C184.985 297.105 184.52 297.18 184.02 297.18C183.52 297.18 183.05 297.105 182.61 296.955C182.18 296.795 181.805 296.575 181.485 296.295C181.165 296.005 180.915 295.655 180.735 295.245C180.555 294.835 180.465 294.37 180.465 293.85C180.465 293.24 180.56 292.705 180.75 292.245C180.94 291.785 181.18 291.325 181.47 290.865L184.29 286.38H185.76L182.91 290.805ZM184.02 291.6C183.7 291.6 183.4 291.655 183.12 291.765C182.84 291.865 182.595 292.015 182.385 292.215C182.185 292.405 182.025 292.64 181.905 292.92C181.785 293.2 181.725 293.51 181.725 293.85C181.725 294.2 181.785 294.515 181.905 294.795C182.025 295.065 182.185 295.3 182.385 295.5C182.595 295.69 182.84 295.84 183.12 295.95C183.4 296.05 183.7 296.1 184.02 296.1C184.34 296.1 184.64 296.05 184.92 295.95C185.2 295.84 185.44 295.69 185.64 295.5C185.85 295.3 186.015 295.065 186.135 294.795C186.255 294.515 186.315 294.2 186.315 293.85C186.315 293.51 186.255 293.2 186.135 292.92C186.015 292.64 185.85 292.405 185.64 292.215C185.44 292.015 185.2 291.865 184.92 291.765C184.64 291.655 184.34 291.6 184.02 291.6ZM190.27 295.29C190.52 295.29 190.73 295.38 190.9 295.56C191.08 295.73 191.17 295.94 191.17 296.19C191.17 296.44 191.075 296.655 190.885 296.835C190.705 297.005 190.5 297.09 190.27 297.09C190.04 297.09 189.83 297.005 189.64 296.835C189.46 296.655 189.37 296.44 189.37 296.19C189.37 295.94 189.455 295.73 189.625 295.56C189.805 295.38 190.02 295.29 190.27 295.29ZM192.929 291.69C192.929 291.09 192.979 290.465 193.079 289.815C193.179 289.165 193.364 288.575 193.634 288.045C193.904 287.505 194.269 287.065 194.729 286.725C195.199 286.375 195.799 286.2 196.529 286.2C197.259 286.2 197.854 286.375 198.314 286.725C198.784 287.065 199.154 287.505 199.424 288.045C199.694 288.575 199.879 289.165 199.979 289.815C200.079 290.465 200.129 291.09 200.129 291.69C200.129 292.29 200.079 292.915 199.979 293.565C199.879 294.215 199.694 294.81 199.424 295.35C199.154 295.88 198.784 296.32 198.314 296.67C197.854 297.01 197.259 297.18 196.529 297.18C195.799 297.18 195.199 297.01 194.729 296.67C194.269 296.32 193.904 295.88 193.634 295.35C193.364 294.81 193.179 294.215 193.079 293.565C192.979 292.915 192.929 292.29 192.929 291.69ZM194.189 291.69C194.189 291.95 194.199 292.24 194.219 292.56C194.239 292.88 194.274 293.205 194.324 293.535C194.384 293.855 194.464 294.17 194.564 294.48C194.674 294.79 194.814 295.065 194.984 295.305C195.164 295.545 195.379 295.74 195.629 295.89C195.879 296.03 196.179 296.1 196.529 296.1C196.879 296.1 197.179 296.03 197.429 295.89C197.679 295.74 197.889 295.545 198.059 295.305C198.239 295.065 198.379 294.79 198.479 294.48C198.589 294.17 198.669 293.855 198.719 293.535C198.779 293.205 198.819 292.88 198.839 292.56C198.859 292.24 198.869 291.95 198.869 291.69C198.869 291.43 198.859 291.14 198.839 290.82C198.819 290.5 198.779 290.18 198.719 289.86C198.669 289.53 198.589 289.21 198.479 288.9C198.379 288.59 198.239 288.315 198.059 288.075C197.889 287.835 197.679 287.645 197.429 287.505C197.179 287.355 196.879 287.28 196.529 287.28C196.179 287.28 195.879 287.355 195.629 287.505C195.379 287.645 195.164 287.835 194.984 288.075C194.814 288.315 194.674 288.59 194.564 288.9C194.464 289.21 194.384 289.53 194.324 289.86C194.274 290.18 194.239 290.5 194.219 290.82C194.199 291.14 194.189 291.43 194.189 291.69ZM207.804 287.55H203.469L203.424 290.415C203.624 290.315 203.844 290.25 204.084 290.22C204.334 290.18 204.569 290.16 204.789 290.16C205.299 290.16 205.759 290.25 206.169 290.43C206.589 290.6 206.949 290.845 207.249 291.165C207.549 291.475 207.779 291.845 207.939 292.275C208.099 292.695 208.179 293.155 208.179 293.655C208.179 294.185 208.084 294.67 207.894 295.11C207.714 295.54 207.459 295.91 207.129 296.22C206.809 296.52 206.424 296.755 205.974 296.925C205.534 297.095 205.054 297.18 204.534 297.18C203.724 297.18 203.069 297.005 202.569 296.655C202.079 296.305 201.689 295.835 201.399 295.245L202.659 294.765C202.839 295.165 203.099 295.49 203.439 295.74C203.789 295.98 204.189 296.1 204.639 296.1C204.959 296.1 205.254 296.045 205.524 295.935C205.804 295.815 206.044 295.65 206.244 295.44C206.454 295.22 206.619 294.96 206.739 294.66C206.859 294.36 206.919 294.025 206.919 293.655C206.919 293.265 206.849 292.92 206.709 292.62C206.579 292.32 206.394 292.07 206.154 291.87C205.924 291.66 205.649 291.505 205.329 291.405C205.009 291.295 204.664 291.24 204.294 291.24C203.934 291.24 203.564 291.305 203.184 291.435C202.804 291.555 202.454 291.71 202.134 291.9L202.239 286.38H207.804V287.55ZM214.429 297H213.169V288H213.139L211.234 289.605L210.484 288.69L213.334 286.38H214.429V297Z" fill="#232626"/>
<path d="M139.4 237H138.14V228H138.11L136.205 229.605L135.455 228.69L138.305 226.38H139.4V237ZM144.42 235.29C144.67 235.29 144.88 235.38 145.05 235.56C145.23 235.73 145.32 235.94 145.32 236.19C145.32 236.44 145.225 236.655 145.035 236.835C144.855 237.005 144.65 237.09 144.42 237.09C144.19 237.09 143.98 237.005 143.79 236.835C143.61 236.655 143.52 236.44 143.52 236.19C143.52 235.94 143.605 235.73 143.775 235.56C143.955 235.38 144.17 235.29 144.42 235.29ZM151.91 237H150.65V228H150.62L148.715 229.605L147.965 228.69L150.815 226.38H151.91V237ZM155.415 231.69C155.415 231.09 155.465 230.465 155.565 229.815C155.665 229.165 155.85 228.575 156.12 228.045C156.39 227.505 156.755 227.065 157.215 226.725C157.685 226.375 158.285 226.2 159.015 226.2C159.745 226.2 160.34 226.375 160.8 226.725C161.27 227.065 161.64 227.505 161.91 228.045C162.18 228.575 162.365 229.165 162.465 229.815C162.565 230.465 162.615 231.09 162.615 231.69C162.615 232.29 162.565 232.915 162.465 233.565C162.365 234.215 162.18 234.81 161.91 235.35C161.64 235.88 161.27 236.32 160.8 236.67C160.34 237.01 159.745 237.18 159.015 237.18C158.285 237.18 157.685 237.01 157.215 236.67C156.755 236.32 156.39 235.88 156.12 235.35C155.85 234.81 155.665 234.215 155.565 233.565C155.465 232.915 155.415 232.29 155.415 231.69ZM156.675 231.69C156.675 231.95 156.685 232.24 156.705 232.56C156.725 232.88 156.76 233.205 156.81 233.535C156.87 233.855 156.95 234.17 157.05 234.48C157.16 234.79 157.3 235.065 157.47 235.305C157.65 235.545 157.865 235.74 158.115 235.89C158.365 236.03 158.665 236.1 159.015 236.1C159.365 236.1 159.665 236.03 159.915 235.89C160.165 235.74 160.375 235.545 160.545 235.305C160.725 235.065 160.865 234.79 160.965 234.48C161.075 234.17 161.155 233.855 161.205 233.535C161.265 233.205 161.305 232.88 161.325 232.56C161.345 232.24 161.355 231.95 161.355 231.69C161.355 231.43 161.345 231.14 161.325 230.82C161.305 230.5 161.265 230.18 161.205 229.86C161.155 229.53 161.075 229.21 160.965 228.9C160.865 228.59 160.725 228.315 160.545 228.075C160.375 227.835 160.165 227.645 159.915 227.505C159.665 227.355 159.365 227.28 159.015 227.28C158.665 227.28 158.365 227.355 158.115 227.505C157.865 227.645 157.65 227.835 157.47 228.075C157.3 228.315 157.16 228.59 157.05 228.9C156.95 229.21 156.87 229.53 156.81 229.86C156.76 230.18 156.725 230.5 156.705 230.82C156.685 231.14 156.675 231.43 156.675 231.69ZM170.38 227.55L166.135 237H164.71L169.03 227.55H163.9V226.38H170.38V227.55ZM173.6 235.29C173.85 235.29 174.06 235.38 174.23 235.56C174.41 235.73 174.5 235.94 174.5 236.19C174.5 236.44 174.405 236.655 174.215 236.835C174.035 237.005 173.83 237.09 173.6 237.09C173.37 237.09 173.16 237.005 172.97 236.835C172.79 236.655 172.7 236.44 172.7 236.19C172.7 235.94 172.785 235.73 172.955 235.56C173.135 235.38 173.35 235.29 173.6 235.29ZM176.439 235.56L180.444 231.66C180.694 231.42 180.914 231.2 181.104 231C181.294 230.79 181.449 230.59 181.569 230.4C181.699 230.2 181.794 229.995 181.854 229.785C181.914 229.575 181.944 229.34 181.944 229.08C181.944 228.8 181.894 228.55 181.794 228.33C181.694 228.11 181.554 227.925 181.374 227.775C181.204 227.615 180.999 227.495 180.759 227.415C180.529 227.325 180.279 227.28 180.009 227.28C179.469 227.28 179.024 227.435 178.674 227.745C178.324 228.055 178.099 228.465 177.999 228.975L176.634 228.855C176.704 228.425 176.834 228.045 177.024 227.715C177.224 227.375 177.469 227.095 177.759 226.875C178.059 226.655 178.394 226.49 178.764 226.38C179.134 226.26 179.534 226.2 179.964 226.2C180.404 226.2 180.819 226.265 181.209 226.395C181.599 226.515 181.939 226.695 182.229 226.935C182.529 227.175 182.764 227.475 182.934 227.835C183.114 228.195 183.204 228.61 183.204 229.08C183.204 229.5 183.144 229.88 183.024 230.22C182.914 230.56 182.759 230.875 182.559 231.165C182.369 231.445 182.149 231.715 181.899 231.975C181.659 232.225 181.404 232.475 181.134 232.725L177.864 235.8V235.83H183.279V237H176.439V235.56ZM189.304 232.575L189.274 232.545C189.074 232.655 188.839 232.735 188.569 232.785C188.309 232.835 188.069 232.86 187.849 232.86C187.389 232.86 186.959 232.78 186.559 232.62C186.169 232.46 185.829 232.235 185.539 231.945C185.259 231.645 185.039 231.295 184.879 230.895C184.719 230.485 184.639 230.03 184.639 229.53C184.639 229.01 184.729 228.545 184.909 228.135C185.089 227.725 185.339 227.38 185.659 227.1C185.979 226.81 186.354 226.59 186.784 226.44C187.224 226.28 187.694 226.2 188.194 226.2C188.694 226.2 189.159 226.28 189.589 226.44C190.029 226.59 190.409 226.81 190.729 227.1C191.049 227.38 191.299 227.725 191.479 228.135C191.659 228.545 191.749 229.01 191.749 229.53C191.749 229.84 191.724 230.125 191.674 230.385C191.624 230.645 191.554 230.895 191.464 231.135C191.374 231.375 191.264 231.61 191.134 231.84C191.014 232.06 190.884 232.285 190.744 232.515L187.924 237H186.454L189.304 232.575ZM188.194 231.78C188.514 231.78 188.814 231.73 189.094 231.63C189.374 231.52 189.614 231.37 189.814 231.18C190.024 230.98 190.189 230.745 190.309 230.475C190.429 230.195 190.489 229.88 190.489 229.53C190.489 229.19 190.429 228.88 190.309 228.6C190.189 228.32 190.024 228.085 189.814 227.895C189.614 227.695 189.374 227.545 189.094 227.445C188.814 227.335 188.514 227.28 188.194 227.28C187.874 227.28 187.574 227.335 187.294 227.445C187.014 227.545 186.769 227.695 186.559 227.895C186.359 228.085 186.199 228.32 186.079 228.6C185.959 228.88 185.899 229.19 185.899 229.53C185.899 229.88 185.959 230.195 186.079 230.475C186.199 230.745 186.359 230.98 186.559 231.18C186.769 231.37 187.014 231.52 187.294 231.63C187.574 231.73 187.874 231.78 188.194 231.78ZM198.644 233.4H200.174V234.57H198.644V237H197.384V234.57H192.884V233.175L197.099 226.38H198.644V233.4ZM197.384 227.85H197.354L193.964 233.4H197.384V227.85ZM202.779 235.29C203.029 235.29 203.239 235.38 203.409 235.56C203.589 235.73 203.679 235.94 203.679 236.19C203.679 236.44 203.584 236.655 203.394 236.835C203.214 237.005 203.009 237.09 202.779 237.09C202.549 237.09 202.339 237.005 202.149 236.835C201.969 236.655 201.879 236.44 201.879 236.19C201.879 235.94 201.964 235.73 202.134 235.56C202.314 235.38 202.529 235.29 202.779 235.29ZM205.439 231.69C205.439 231.09 205.489 230.465 205.589 229.815C205.689 229.165 205.874 228.575 206.144 228.045C206.414 227.505 206.779 227.065 207.239 226.725C207.709 226.375 208.309 226.2 209.039 226.2C209.769 226.2 210.364 226.375 210.824 226.725C211.294 227.065 211.664 227.505 211.934 228.045C212.204 228.575 212.389 229.165 212.489 229.815C212.589 230.465 212.639 231.09 212.639 231.69C212.639 232.29 212.589 232.915 212.489 233.565C212.389 234.215 212.204 234.81 211.934 235.35C211.664 235.88 211.294 236.32 210.824 236.67C210.364 237.01 209.769 237.18 209.039 237.18C208.309 237.18 207.709 237.01 207.239 236.67C206.779 236.32 206.414 235.88 206.144 235.35C205.874 234.81 205.689 234.215 205.589 233.565C205.489 232.915 205.439 232.29 205.439 231.69ZM206.699 231.69C206.699 231.95 206.709 232.24 206.729 232.56C206.749 232.88 206.784 233.205 206.834 233.535C206.894 233.855 206.974 234.17 207.074 234.48C207.184 234.79 207.324 235.065 207.494 235.305C207.674 235.545 207.889 235.74 208.139 235.89C208.389 236.03 208.689 236.1 209.039 236.1C209.389 236.1 209.689 236.03 209.939 235.89C210.189 235.74 210.399 235.545 210.569 235.305C210.749 235.065 210.889 234.79 210.989 234.48C211.099 234.17 211.179 233.855 211.229 233.535C211.289 233.205 211.329 232.88 211.349 232.56C211.369 232.24 211.379 231.95 211.379 231.69C211.379 231.43 211.369 231.14 211.349 230.82C211.329 230.5 211.289 230.18 211.229 229.86C211.179 229.53 211.099 229.21 210.989 228.9C210.889 228.59 210.749 228.315 210.569 228.075C210.399 227.835 210.189 227.645 209.939 227.505C209.689 227.355 209.389 227.28 209.039 227.28C208.689 227.28 208.389 227.355 208.139 227.505C207.889 227.645 207.674 227.835 207.494 228.075C207.324 228.315 207.184 228.59 207.074 228.9C206.974 229.21 206.894 229.53 206.834 229.86C206.784 230.18 206.749 230.5 206.729 230.82C206.709 231.14 206.699 231.43 206.699 231.69ZM220.404 227.55L216.159 237H214.734L219.054 227.55H213.924V226.38H220.404V227.55ZM228.739 227.55L224.494 237H223.069L227.389 227.55H222.259V226.38H228.739V227.55Z" fill="#232626"/>
<path d="M139.4 177H138.14V168H138.11L136.205 169.605L135.455 168.69L138.305 166.38H139.4V177ZM144.42 175.29C144.67 175.29 144.88 175.38 145.05 175.56C145.23 175.73 145.32 175.94 145.32 176.19C145.32 176.44 145.225 176.655 145.035 176.835C144.855 177.005 144.65 177.09 144.42 177.09C144.19 177.09 143.98 177.005 143.79 176.835C143.61 176.655 143.52 176.44 143.52 176.19C143.52 175.94 143.605 175.73 143.775 175.56C143.955 175.38 144.17 175.29 144.42 175.29ZM152.795 173.4H154.325V174.57H152.795V177H151.535V174.57H147.035V173.175L151.25 166.38H152.795V173.4ZM151.535 167.85H151.505L148.115 173.4H151.535V167.85ZM162.045 167.55L157.8 177H156.375L160.695 167.55H155.565V166.38H162.045V167.55ZM166.24 170.805L166.27 170.835C166.47 170.725 166.7 170.645 166.96 170.595C167.23 170.545 167.475 170.52 167.695 170.52C168.155 170.52 168.58 170.6 168.97 170.76C169.37 170.92 169.71 171.15 169.99 171.45C170.28 171.74 170.505 172.09 170.665 172.5C170.825 172.91 170.905 173.36 170.905 173.85C170.905 174.37 170.815 174.835 170.635 175.245C170.455 175.655 170.205 176.005 169.885 176.295C169.565 176.575 169.185 176.795 168.745 176.955C168.315 177.105 167.85 177.18 167.35 177.18C166.85 177.18 166.38 177.105 165.94 176.955C165.51 176.795 165.135 176.575 164.815 176.295C164.495 176.005 164.245 175.655 164.065 175.245C163.885 174.835 163.795 174.37 163.795 173.85C163.795 173.24 163.89 172.705 164.08 172.245C164.27 171.785 164.51 171.325 164.8 170.865L167.62 166.38H169.09L166.24 170.805ZM167.35 171.6C167.03 171.6 166.73 171.655 166.45 171.765C166.17 171.865 165.925 172.015 165.715 172.215C165.515 172.405 165.355 172.64 165.235 172.92C165.115 173.2 165.055 173.51 165.055 173.85C165.055 174.2 165.115 174.515 165.235 174.795C165.355 175.065 165.515 175.3 165.715 175.5C165.925 175.69 166.17 175.84 166.45 175.95C166.73 176.05 167.03 176.1 167.35 176.1C167.67 176.1 167.97 176.05 168.25 175.95C168.53 175.84 168.77 175.69 168.97 175.5C169.18 175.3 169.345 175.065 169.465 174.795C169.585 174.515 169.645 174.2 169.645 173.85C169.645 173.51 169.585 173.2 169.465 172.92C169.345 172.64 169.18 172.405 168.97 172.215C168.77 172.015 168.53 171.865 168.25 171.765C167.97 171.655 167.67 171.6 167.35 171.6ZM173.6 175.29C173.85 175.29 174.06 175.38 174.23 175.56C174.41 175.73 174.5 175.94 174.5 176.19C174.5 176.44 174.405 176.655 174.215 176.835C174.035 177.005 173.83 177.09 173.6 177.09C173.37 177.09 173.16 177.005 172.97 176.835C172.79 176.655 172.7 176.44 172.7 176.19C172.7 175.94 172.785 175.73 172.955 175.56C173.135 175.38 173.35 175.29 173.6 175.29ZM178.749 170.88H179.139C179.399 170.88 179.669 170.86 179.949 170.82C180.239 170.78 180.499 170.695 180.729 170.565C180.969 170.435 181.164 170.25 181.314 170.01C181.474 169.76 181.554 169.435 181.554 169.035C181.554 168.495 181.384 168.07 181.044 167.76C180.714 167.44 180.279 167.28 179.739 167.28C179.289 167.28 178.899 167.38 178.569 167.58C178.239 167.78 177.979 168.075 177.789 168.465L176.574 168C176.834 167.4 177.239 166.95 177.789 166.65C178.349 166.35 178.969 166.2 179.649 166.2C180.069 166.2 180.469 166.26 180.849 166.38C181.239 166.5 181.579 166.675 181.869 166.905C182.159 167.135 182.389 167.425 182.559 167.775C182.729 168.115 182.814 168.515 182.814 168.975C182.814 169.535 182.644 170.04 182.304 170.49C181.974 170.93 181.539 171.235 180.999 171.405V171.435C181.339 171.495 181.639 171.605 181.899 171.765C182.169 171.925 182.399 172.125 182.589 172.365C182.779 172.595 182.924 172.86 183.024 173.16C183.124 173.46 183.174 173.775 183.174 174.105C183.174 174.615 183.079 175.06 182.889 175.44C182.699 175.82 182.444 176.14 182.124 176.4C181.804 176.66 181.429 176.855 180.999 176.985C180.579 177.115 180.134 177.18 179.664 177.18C178.854 177.18 178.149 177.005 177.549 176.655C176.949 176.305 176.514 175.735 176.244 174.945L177.519 174.525C177.699 175.095 177.954 175.5 178.284 175.74C178.614 175.98 179.074 176.1 179.664 176.1C179.964 176.1 180.244 176.05 180.504 175.95C180.764 175.85 180.989 175.71 181.179 175.53C181.379 175.34 181.534 175.12 181.644 174.87C181.764 174.61 181.824 174.325 181.824 174.015C181.824 173.625 181.744 173.3 181.584 173.04C181.434 172.77 181.229 172.56 180.969 172.41C180.719 172.25 180.434 172.135 180.114 172.065C179.794 171.995 179.469 171.96 179.139 171.96H178.749V170.88ZM189.304 172.575L189.274 172.545C189.074 172.655 188.839 172.735 188.569 172.785C188.309 172.835 188.069 172.86 187.849 172.86C187.389 172.86 186.959 172.78 186.559 172.62C186.169 172.46 185.829 172.235 185.539 171.945C185.259 171.645 185.039 171.295 184.879 170.895C184.719 170.485 184.639 170.03 184.639 169.53C184.639 169.01 184.729 168.545 184.909 168.135C185.089 167.725 185.339 167.38 185.659 167.1C185.979 166.81 186.354 166.59 186.784 166.44C187.224 166.28 187.694 166.2 188.194 166.2C188.694 166.2 189.159 166.28 189.589 166.44C190.029 166.59 190.409 166.81 190.729 167.1C191.049 167.38 191.299 167.725 191.479 168.135C191.659 168.545 191.749 169.01 191.749 169.53C191.749 169.84 191.724 170.125 191.674 170.385C191.624 170.645 191.554 170.895 191.464 171.135C191.374 171.375 191.264 171.61 191.134 171.84C191.014 172.06 190.884 172.285 190.744 172.515L187.924 177H186.454L189.304 172.575ZM188.194 171.78C188.514 171.78 188.814 171.73 189.094 171.63C189.374 171.52 189.614 171.37 189.814 171.18C190.024 170.98 190.189 170.745 190.309 170.475C190.429 170.195 190.489 169.88 190.489 169.53C190.489 169.19 190.429 168.88 190.309 168.6C190.189 168.32 190.024 168.085 189.814 167.895C189.614 167.695 189.374 167.545 189.094 167.445C188.814 167.335 188.514 167.28 188.194 167.28C187.874 167.28 187.574 167.335 187.294 167.445C187.014 167.545 186.769 167.695 186.559 167.895C186.359 168.085 186.199 168.32 186.079 168.6C185.959 168.88 185.899 169.19 185.899 169.53C185.899 169.88 185.959 170.195 186.079 170.475C186.199 170.745 186.359 170.98 186.559 171.18C186.769 171.37 187.014 171.52 187.294 171.63C187.574 171.73 187.874 171.78 188.194 171.78ZM193.109 175.56L197.114 171.66C197.364 171.42 197.584 171.2 197.774 171C197.964 170.79 198.119 170.59 198.239 170.4C198.369 170.2 198.464 169.995 198.524 169.785C198.584 169.575 198.614 169.34 198.614 169.08C198.614 168.8 198.564 168.55 198.464 168.33C198.364 168.11 198.224 167.925 198.044 167.775C197.874 167.615 197.669 167.495 197.429 167.415C197.199 167.325 196.949 167.28 196.679 167.28C196.139 167.28 195.694 167.435 195.344 167.745C194.994 168.055 194.769 168.465 194.669 168.975L193.304 168.855C193.374 168.425 193.504 168.045 193.694 167.715C193.894 167.375 194.139 167.095 194.429 166.875C194.729 166.655 195.064 166.49 195.434 166.38C195.804 166.26 196.204 166.2 196.634 166.2C197.074 166.2 197.489 166.265 197.879 166.395C198.269 166.515 198.609 166.695 198.899 166.935C199.199 167.175 199.434 167.475 199.604 167.835C199.784 168.195 199.874 168.61 199.874 169.08C199.874 169.5 199.814 169.88 199.694 170.22C199.584 170.56 199.429 170.875 199.229 171.165C199.039 171.445 198.819 171.715 198.569 171.975C198.329 172.225 198.074 172.475 197.804 172.725L194.534 175.8V175.83H199.949V177H193.109V175.56ZM202.779 175.29C203.029 175.29 203.239 175.38 203.409 175.56C203.589 175.73 203.679 175.94 203.679 176.19C203.679 176.44 203.584 176.655 203.394 176.835C203.214 177.005 203.009 177.09 202.779 177.09C202.549 177.09 202.339 177.005 202.149 176.835C201.969 176.655 201.879 176.44 201.879 176.19C201.879 175.94 201.964 175.73 202.134 175.56C202.314 175.38 202.529 175.29 202.779 175.29ZM210.269 177H209.009V168H208.979L207.074 169.605L206.324 168.69L209.174 166.38H210.269V177ZM213.774 171.69C213.774 171.09 213.824 170.465 213.924 169.815C214.024 169.165 214.209 168.575 214.479 168.045C214.749 167.505 215.114 167.065 215.574 166.725C216.044 166.375 216.644 166.2 217.374 166.2C218.104 166.2 218.699 166.375 219.159 166.725C219.629 167.065 219.999 167.505 220.269 168.045C220.539 168.575 220.724 169.165 220.824 169.815C220.924 170.465 220.974 171.09 220.974 171.69C220.974 172.29 220.924 172.915 220.824 173.565C220.724 174.215 220.539 174.81 220.269 175.35C219.999 175.88 219.629 176.32 219.159 176.67C218.699 177.01 218.104 177.18 217.374 177.18C216.644 177.18 216.044 177.01 215.574 176.67C215.114 176.32 214.749 175.88 214.479 175.35C214.209 174.81 214.024 174.215 213.924 173.565C213.824 172.915 213.774 172.29 213.774 171.69ZM215.034 171.69C215.034 171.95 215.044 172.24 215.064 172.56C215.084 172.88 215.119 173.205 215.169 173.535C215.229 173.855 215.309 174.17 215.409 174.48C215.519 174.79 215.659 175.065 215.829 175.305C216.009 175.545 216.224 175.74 216.474 175.89C216.724 176.03 217.024 176.1 217.374 176.1C217.724 176.1 218.024 176.03 218.274 175.89C218.524 175.74 218.734 175.545 218.904 175.305C219.084 175.065 219.224 174.79 219.324 174.48C219.434 174.17 219.514 173.855 219.564 173.535C219.624 173.205 219.664 172.88 219.684 172.56C219.704 172.24 219.714 171.95 219.714 171.69C219.714 171.43 219.704 171.14 219.684 170.82C219.664 170.5 219.624 170.18 219.564 169.86C219.514 169.53 219.434 169.21 219.324 168.9C219.224 168.59 219.084 168.315 218.904 168.075C218.734 167.835 218.524 167.645 218.274 167.505C218.024 167.355 217.724 167.28 217.374 167.28C217.024 167.28 216.724 167.355 216.474 167.505C216.224 167.645 216.009 167.835 215.829 168.075C215.659 168.315 215.519 168.59 215.409 168.9C215.309 169.21 215.229 169.53 215.169 169.86C215.119 170.18 215.084 170.5 215.064 170.82C215.044 171.14 215.034 171.43 215.034 171.69ZM224.599 170.88H224.989C225.249 170.88 225.519 170.86 225.799 170.82C226.089 170.78 226.349 170.695 226.579 170.565C226.819 170.435 227.014 170.25 227.164 170.01C227.324 169.76 227.404 169.435 227.404 169.035C227.404 168.495 227.234 168.07 226.894 167.76C226.564 167.44 226.129 167.28 225.589 167.28C225.139 167.28 224.749 167.38 224.419 167.58C224.089 167.78 223.829 168.075 223.639 168.465L222.424 168C222.684 167.4 223.089 166.95 223.639 166.65C224.199 166.35 224.819 166.2 225.499 166.2C225.919 166.2 226.319 166.26 226.699 166.38C227.089 166.5 227.429 166.675 227.719 166.905C228.009 167.135 228.239 167.425 228.409 167.775C228.579 168.115 228.664 168.515 228.664 168.975C228.664 169.535 228.494 170.04 228.154 170.49C227.824 170.93 227.389 171.235 226.849 171.405V171.435C227.189 171.495 227.489 171.605 227.749 171.765C228.019 171.925 228.249 172.125 228.439 172.365C228.629 172.595 228.774 172.86 228.874 173.16C228.974 173.46 229.024 173.775 229.024 174.105C229.024 174.615 228.929 175.06 228.739 175.44C228.549 175.82 228.294 176.14 227.974 176.4C227.654 176.66 227.279 176.855 226.849 176.985C226.429 177.115 225.984 177.18 225.514 177.18C224.704 177.18 223.999 177.005 223.399 176.655C222.799 176.305 222.364 175.735 222.094 174.945L223.369 174.525C223.549 175.095 223.804 175.5 224.134 175.74C224.464 175.98 224.924 176.1 225.514 176.1C225.814 176.1 226.094 176.05 226.354 175.95C226.614 175.85 226.839 175.71 227.029 175.53C227.229 175.34 227.384 175.12 227.494 174.87C227.614 174.61 227.674 174.325 227.674 174.015C227.674 173.625 227.594 173.3 227.434 173.04C227.284 172.77 227.079 172.56 226.819 172.41C226.569 172.25 226.284 172.135 225.964 172.065C225.644 171.995 225.319 171.96 224.989 171.96H224.599V170.88Z" fill="#232626"/>
<path d="M139.4 116H138.14V107H138.11L136.205 108.605L135.455 107.69L138.305 105.38H139.4V116ZM144.42 114.29C144.67 114.29 144.88 114.38 145.05 114.56C145.23 114.73 145.32 114.94 145.32 115.19C145.32 115.44 145.225 115.655 145.035 115.835C144.855 116.005 144.65 116.09 144.42 116.09C144.19 116.09 143.98 116.005 143.79 115.835C143.61 115.655 143.52 115.44 143.52 115.19C143.52 114.94 143.605 114.73 143.775 114.56C143.955 114.38 144.17 114.29 144.42 114.29ZM147.65 107.975C147.65 107.555 147.725 107.175 147.875 106.835C148.035 106.495 148.25 106.205 148.52 105.965C148.79 105.725 149.11 105.54 149.48 105.41C149.85 105.27 150.25 105.2 150.68 105.2C151.11 105.2 151.51 105.27 151.88 105.41C152.25 105.54 152.57 105.725 152.84 105.965C153.11 106.205 153.32 106.495 153.47 106.835C153.63 107.175 153.71 107.555 153.71 107.975C153.71 108.225 153.67 108.475 153.59 108.725C153.51 108.975 153.395 109.205 153.245 109.415C153.095 109.625 152.91 109.81 152.69 109.97C152.48 110.13 152.24 110.245 151.97 110.315V110.345C152.29 110.415 152.58 110.535 152.84 110.705C153.1 110.865 153.32 111.065 153.5 111.305C153.68 111.545 153.82 111.82 153.92 112.13C154.02 112.43 154.07 112.745 154.07 113.075C154.07 113.555 153.98 113.99 153.8 114.38C153.63 114.76 153.39 115.085 153.08 115.355C152.78 115.625 152.42 115.83 152 115.97C151.59 116.11 151.15 116.18 150.68 116.18C150.21 116.18 149.765 116.11 149.345 115.97C148.935 115.83 148.575 115.625 148.265 115.355C147.965 115.085 147.725 114.76 147.545 114.38C147.375 113.99 147.29 113.555 147.29 113.075C147.29 112.745 147.34 112.43 147.44 112.13C147.54 111.82 147.68 111.545 147.86 111.305C148.04 111.065 148.26 110.865 148.52 110.705C148.78 110.535 149.07 110.415 149.39 110.345V110.315C149.12 110.245 148.875 110.13 148.655 109.97C148.445 109.81 148.265 109.625 148.115 109.415C147.965 109.205 147.85 108.975 147.77 108.725C147.69 108.475 147.65 108.225 147.65 107.975ZM148.91 108.035C148.91 108.545 149.07 108.965 149.39 109.295C149.72 109.625 150.15 109.79 150.68 109.79C151.21 109.79 151.635 109.625 151.955 109.295C152.285 108.965 152.45 108.545 152.45 108.035C152.45 107.525 152.285 107.105 151.955 106.775C151.635 106.445 151.21 106.28 150.68 106.28C150.15 106.28 149.72 106.445 149.39 106.775C149.07 107.105 148.91 107.525 148.91 108.035ZM148.55 112.985C148.55 113.295 148.605 113.58 148.715 113.84C148.825 114.1 148.975 114.325 149.165 114.515C149.365 114.695 149.59 114.84 149.84 114.95C150.1 115.05 150.38 115.1 150.68 115.1C150.98 115.1 151.255 115.05 151.505 114.95C151.765 114.84 151.99 114.695 152.18 114.515C152.38 114.325 152.535 114.1 152.645 113.84C152.755 113.58 152.81 113.295 152.81 112.985C152.81 112.675 152.755 112.39 152.645 112.13C152.535 111.87 152.38 111.65 152.18 111.47C151.99 111.28 151.765 111.135 151.505 111.035C151.255 110.925 150.98 110.87 150.68 110.87C150.38 110.87 150.1 110.925 149.84 111.035C149.59 111.135 149.365 111.28 149.165 111.47C148.975 111.65 148.825 111.87 148.715 112.13C148.605 112.39 148.55 112.675 148.55 112.985ZM161.13 112.4H162.66V113.57H161.13V116H159.87V113.57H155.37V112.175L159.585 105.38H161.13V112.4ZM159.87 106.85H159.84L156.45 112.4H159.87V106.85ZM170.29 106.55H165.955L165.91 109.415C166.11 109.315 166.33 109.25 166.57 109.22C166.82 109.18 167.055 109.16 167.275 109.16C167.785 109.16 168.245 109.25 168.655 109.43C169.075 109.6 169.435 109.845 169.735 110.165C170.035 110.475 170.265 110.845 170.425 111.275C170.585 111.695 170.665 112.155 170.665 112.655C170.665 113.185 170.57 113.67 170.38 114.11C170.2 114.54 169.945 114.91 169.615 115.22C169.295 115.52 168.91 115.755 168.46 115.925C168.02 116.095 167.54 116.18 167.02 116.18C166.21 116.18 165.555 116.005 165.055 115.655C164.565 115.305 164.175 114.835 163.885 114.245L165.145 113.765C165.325 114.165 165.585 114.49 165.925 114.74C166.275 114.98 166.675 115.1 167.125 115.1C167.445 115.1 167.74 115.045 168.01 114.935C168.29 114.815 168.53 114.65 168.73 114.44C168.94 114.22 169.105 113.96 169.225 113.66C169.345 113.36 169.405 113.025 169.405 112.655C169.405 112.265 169.335 111.92 169.195 111.62C169.065 111.32 168.88 111.07 168.64 110.87C168.41 110.66 168.135 110.505 167.815 110.405C167.495 110.295 167.15 110.24 166.78 110.24C166.42 110.24 166.05 110.305 165.67 110.435C165.29 110.555 164.94 110.71 164.62 110.9L164.725 105.38H170.29V106.55ZM173.6 114.29C173.85 114.29 174.06 114.38 174.23 114.56C174.41 114.73 174.5 114.94 174.5 115.19C174.5 115.44 174.405 115.655 174.215 115.835C174.035 116.005 173.83 116.09 173.6 116.09C173.37 116.09 173.16 116.005 172.97 115.835C172.79 115.655 172.7 115.44 172.7 115.19C172.7 114.94 172.785 114.73 172.955 114.56C173.135 114.38 173.35 114.29 173.6 114.29ZM181.974 112.4H183.504V113.57H181.974V116H180.714V113.57H176.214V112.175L180.429 105.38H181.974V112.4ZM180.714 106.85H180.684L177.294 112.4H180.714V106.85ZM189.304 111.575L189.274 111.545C189.074 111.655 188.839 111.735 188.569 111.785C188.309 111.835 188.069 111.86 187.849 111.86C187.389 111.86 186.959 111.78 186.559 111.62C186.169 111.46 185.829 111.235 185.539 110.945C185.259 110.645 185.039 110.295 184.879 109.895C184.719 109.485 184.639 109.03 184.639 108.53C184.639 108.01 184.729 107.545 184.909 107.135C185.089 106.725 185.339 106.38 185.659 106.1C185.979 105.81 186.354 105.59 186.784 105.44C187.224 105.28 187.694 105.2 188.194 105.2C188.694 105.2 189.159 105.28 189.589 105.44C190.029 105.59 190.409 105.81 190.729 106.1C191.049 106.38 191.299 106.725 191.479 107.135C191.659 107.545 191.749 108.01 191.749 108.53C191.749 108.84 191.724 109.125 191.674 109.385C191.624 109.645 191.554 109.895 191.464 110.135C191.374 110.375 191.264 110.61 191.134 110.84C191.014 111.06 190.884 111.285 190.744 111.515L187.924 116H186.454L189.304 111.575ZM188.194 110.78C188.514 110.78 188.814 110.73 189.094 110.63C189.374 110.52 189.614 110.37 189.814 110.18C190.024 109.98 190.189 109.745 190.309 109.475C190.429 109.195 190.489 108.88 190.489 108.53C190.489 108.19 190.429 107.88 190.309 107.6C190.189 107.32 190.024 107.085 189.814 106.895C189.614 106.695 189.374 106.545 189.094 106.445C188.814 106.335 188.514 106.28 188.194 106.28C187.874 106.28 187.574 106.335 187.294 106.445C187.014 106.545 186.769 106.695 186.559 106.895C186.359 107.085 186.199 107.32 186.079 107.6C185.959 107.88 185.899 108.19 185.899 108.53C185.899 108.88 185.959 109.195 186.079 109.475C186.199 109.745 186.359 109.98 186.559 110.18C186.769 110.37 187.014 110.52 187.294 110.63C187.574 110.73 187.874 110.78 188.194 110.78ZM192.929 110.69C192.929 110.09 192.979 109.465 193.079 108.815C193.179 108.165 193.364 107.575 193.634 107.045C193.904 106.505 194.269 106.065 194.729 105.725C195.199 105.375 195.799 105.2 196.529 105.2C197.259 105.2 197.854 105.375 198.314 105.725C198.784 106.065 199.154 106.505 199.424 107.045C199.694 107.575 199.879 108.165 199.979 108.815C200.079 109.465 200.129 110.09 200.129 110.69C200.129 111.29 200.079 111.915 199.979 112.565C199.879 113.215 199.694 113.81 199.424 114.35C199.154 114.88 198.784 115.32 198.314 115.67C197.854 116.01 197.259 116.18 196.529 116.18C195.799 116.18 195.199 116.01 194.729 115.67C194.269 115.32 193.904 114.88 193.634 114.35C193.364 113.81 193.179 113.215 193.079 112.565C192.979 111.915 192.929 111.29 192.929 110.69ZM194.189 110.69C194.189 110.95 194.199 111.24 194.219 111.56C194.239 111.88 194.274 112.205 194.324 112.535C194.384 112.855 194.464 113.17 194.564 113.48C194.674 113.79 194.814 114.065 194.984 114.305C195.164 114.545 195.379 114.74 195.629 114.89C195.879 115.03 196.179 115.1 196.529 115.1C196.879 115.1 197.179 115.03 197.429 114.89C197.679 114.74 197.889 114.545 198.059 114.305C198.239 114.065 198.379 113.79 198.479 113.48C198.589 113.17 198.669 112.855 198.719 112.535C198.779 112.205 198.819 111.88 198.839 111.56C198.859 111.24 198.869 110.95 198.869 110.69C198.869 110.43 198.859 110.14 198.839 109.82C198.819 109.5 198.779 109.18 198.719 108.86C198.669 108.53 198.589 108.21 198.479 107.9C198.379 107.59 198.239 107.315 198.059 107.075C197.889 106.835 197.679 106.645 197.429 106.505C197.179 106.355 196.879 106.28 196.529 106.28C196.179 106.28 195.879 106.355 195.629 106.505C195.379 106.645 195.164 106.835 194.984 107.075C194.814 107.315 194.674 107.59 194.564 107.9C194.464 108.21 194.384 108.53 194.324 108.86C194.274 109.18 194.239 109.5 194.219 109.82C194.199 110.14 194.189 110.43 194.189 110.69ZM202.779 114.29C203.029 114.29 203.239 114.38 203.409 114.56C203.589 114.73 203.679 114.94 203.679 115.19C203.679 115.44 203.584 115.655 203.394 115.835C203.214 116.005 203.009 116.09 202.779 116.09C202.549 116.09 202.339 116.005 202.149 115.835C201.969 115.655 201.879 115.44 201.879 115.19C201.879 114.94 201.964 114.73 202.134 114.56C202.314 114.38 202.529 114.29 202.779 114.29ZM210.269 116H209.009V107H208.979L207.074 108.605L206.324 107.69L209.174 105.38H210.269V116ZM213.954 114.56L217.959 110.66C218.209 110.42 218.429 110.2 218.619 110C218.809 109.79 218.964 109.59 219.084 109.4C219.214 109.2 219.309 108.995 219.369 108.785C219.429 108.575 219.459 108.34 219.459 108.08C219.459 107.8 219.409 107.55 219.309 107.33C219.209 107.11 219.069 106.925 218.889 106.775C218.719 106.615 218.514 106.495 218.274 106.415C218.044 106.325 217.794 106.28 217.524 106.28C216.984 106.28 216.539 106.435 216.189 106.745C215.839 107.055 215.614 107.465 215.514 107.975L214.149 107.855C214.219 107.425 214.349 107.045 214.539 106.715C214.739 106.375 214.984 106.095 215.274 105.875C215.574 105.655 215.909 105.49 216.279 105.38C216.649 105.26 217.049 105.2 217.479 105.2C217.919 105.2 218.334 105.265 218.724 105.395C219.114 105.515 219.454 105.695 219.744 105.935C220.044 106.175 220.279 106.475 220.449 106.835C220.629 107.195 220.719 107.61 220.719 108.08C220.719 108.5 220.659 108.88 220.539 109.22C220.429 109.56 220.274 109.875 220.074 110.165C219.884 110.445 219.664 110.715 219.414 110.975C219.174 111.225 218.919 111.475 218.649 111.725L215.379 114.8V114.83H220.794V116H213.954V114.56ZM222.679 107.975C222.679 107.555 222.754 107.175 222.904 106.835C223.064 106.495 223.279 106.205 223.549 105.965C223.819 105.725 224.139 105.54 224.509 105.41C224.879 105.27 225.279 105.2 225.709 105.2C226.139 105.2 226.539 105.27 226.909 105.41C227.279 105.54 227.599 105.725 227.869 105.965C228.139 106.205 228.349 106.495 228.499 106.835C228.659 107.175 228.739 107.555 228.739 107.975C228.739 108.225 228.699 108.475 228.619 108.725C228.539 108.975 228.424 109.205 228.274 109.415C228.124 109.625 227.939 109.81 227.719 109.97C227.509 110.13 227.269 110.245 226.999 110.315V110.345C227.319 110.415 227.609 110.535 227.869 110.705C228.129 110.865 228.349 111.065 228.529 111.305C228.709 111.545 228.849 111.82 228.949 112.13C229.049 112.43 229.099 112.745 229.099 113.075C229.099 113.555 229.009 113.99 228.829 114.38C228.659 114.76 228.419 115.085 228.109 115.355C227.809 115.625 227.449 115.83 227.029 115.97C226.619 116.11 226.179 116.18 225.709 116.18C225.239 116.18 224.794 116.11 224.374 115.97C223.964 115.83 223.604 115.625 223.294 115.355C222.994 115.085 222.754 114.76 222.574 114.38C222.404 113.99 222.319 113.555 222.319 113.075C222.319 112.745 222.369 112.43 222.469 112.13C222.569 111.82 222.709 111.545 222.889 111.305C223.069 111.065 223.289 110.865 223.549 110.705C223.809 110.535 224.099 110.415 224.419 110.345V110.315C224.149 110.245 223.904 110.13 223.684 109.97C223.474 109.81 223.294 109.625 223.144 109.415C222.994 109.205 222.879 108.975 222.799 108.725C222.719 108.475 222.679 108.225 222.679 107.975ZM223.939 108.035C223.939 108.545 224.099 108.965 224.419 109.295C224.749 109.625 225.179 109.79 225.709 109.79C226.239 109.79 226.664 109.625 226.984 109.295C227.314 108.965 227.479 108.545 227.479 108.035C227.479 107.525 227.314 107.105 226.984 106.775C226.664 106.445 226.239 106.28 225.709 106.28C225.179 106.28 224.749 106.445 224.419 106.775C224.099 107.105 223.939 107.525 223.939 108.035ZM223.579 112.985C223.579 113.295 223.634 113.58 223.744 113.84C223.854 114.1 224.004 114.325 224.194 114.515C224.394 114.695 224.619 114.84 224.869 114.95C225.129 115.05 225.409 115.1 225.709 115.1C226.009 115.1 226.284 115.05 226.534 114.95C226.794 114.84 227.019 114.695 227.209 114.515C227.409 114.325 227.564 114.1 227.674 113.84C227.784 113.58 227.839 113.295 227.839 112.985C227.839 112.675 227.784 112.39 227.674 112.13C227.564 111.87 227.409 111.65 227.209 111.47C227.019 111.28 226.794 111.135 226.534 111.035C226.284 110.925 226.009 110.87 225.709 110.87C225.409 110.87 225.129 110.925 224.869 111.035C224.619 111.135 224.394 111.28 224.194 111.47C224.004 111.65 223.854 111.87 223.744 112.13C223.634 112.39 223.579 112.675 223.579 112.985Z" fill="#232626"/>
<path d="M134.782 55.266L139.61 50.472C139.78 50.3133 139.944 50.1433 140.103 49.962C140.262 49.7693 140.403 49.571 140.528 49.367C140.653 49.163 140.749 48.9477 140.817 48.721C140.896 48.4943 140.936 48.2563 140.936 48.007C140.936 47.7123 140.879 47.446 140.766 47.208C140.664 46.97 140.517 46.7717 140.324 46.613C140.143 46.443 139.922 46.3127 139.661 46.222C139.412 46.1313 139.145 46.086 138.862 46.086C138.273 46.086 137.785 46.2503 137.4 46.579C137.015 46.9077 136.771 47.361 136.669 47.939L134.901 47.786C134.98 47.2533 135.133 46.7943 135.36 46.409C135.598 46.0123 135.887 45.6837 136.227 45.423C136.578 45.1623 136.975 44.9697 137.417 44.845C137.87 44.7203 138.358 44.658 138.879 44.658C139.4 44.658 139.888 44.7317 140.341 44.879C140.806 45.015 141.208 45.2247 141.548 45.508C141.899 45.78 142.171 46.1257 142.364 46.545C142.568 46.953 142.67 47.4347 142.67 47.99C142.67 48.3867 142.608 48.7607 142.483 49.112C142.37 49.452 142.217 49.775 142.024 50.081C141.831 50.387 141.61 50.676 141.361 50.948C141.112 51.22 140.851 51.4863 140.579 51.747L136.618 55.572H142.67V57H134.782V55.266ZM145.809 57.102C145.503 57.102 145.237 56.9943 145.01 56.779C144.795 56.5523 144.687 56.286 144.687 55.98C144.687 55.674 144.795 55.4133 145.01 55.198C145.237 54.9713 145.503 54.858 145.809 54.858C146.115 54.858 146.376 54.9713 146.591 55.198C146.818 55.4133 146.931 55.674 146.931 55.98C146.931 56.286 146.818 56.5523 146.591 56.779C146.376 56.9943 146.115 57.102 145.809 57.102ZM148.96 55.266L153.788 50.472C153.958 50.3133 154.122 50.1433 154.281 49.962C154.439 49.7693 154.581 49.571 154.706 49.367C154.83 49.163 154.927 48.9477 154.995 48.721C155.074 48.4943 155.114 48.2563 155.114 48.007C155.114 47.7123 155.057 47.446 154.944 47.208C154.842 46.97 154.694 46.7717 154.502 46.613C154.32 46.443 154.099 46.3127 153.839 46.222C153.589 46.1313 153.323 46.086 153.04 46.086C152.45 46.086 151.963 46.2503 151.578 46.579C151.192 46.9077 150.949 47.361 150.847 47.939L149.079 47.786C149.158 47.2533 149.311 46.7943 149.538 46.409C149.776 46.0123 150.065 45.6837 150.405 45.423C150.756 45.1623 151.153 44.9697 151.595 44.845C152.048 44.7203 152.535 44.658 153.057 44.658C153.578 44.658 154.065 44.7317 154.519 44.879C154.983 45.015 155.386 45.2247 155.726 45.508C156.077 45.78 156.349 46.1257 156.542 46.545C156.746 46.953 156.848 47.4347 156.848 47.99C156.848 48.3867 156.785 48.7607 156.661 49.112C156.547 49.452 156.394 49.775 156.202 50.081C156.009 50.387 155.788 50.676 155.539 50.948C155.289 51.22 155.029 51.4863 154.757 51.747L150.796 55.572H156.848V57H148.96V55.266ZM162.214 46.834L160.004 48.874L159.052 47.735L162.401 44.964H163.846V57H162.214V46.834ZM172.782 54.348H167.648V52.682L172.442 44.964H174.414V52.92H176.114V54.348H174.414V57H172.782V54.348ZM172.782 46.902H172.748L169.076 52.92H172.782V46.902ZM178.88 57.102C178.574 57.102 178.307 56.9943 178.081 56.779C177.865 56.5523 177.758 56.286 177.758 55.98C177.758 55.674 177.865 55.4133 178.081 55.198C178.307 54.9713 178.574 54.858 178.88 54.858C179.186 54.858 179.446 54.9713 179.662 55.198C179.888 55.4133 180.002 55.674 180.002 55.98C180.002 56.286 179.888 56.5523 179.662 56.779C179.446 56.9943 179.186 57.102 178.88 57.102ZM189.255 46.494H184.376L184.325 49.503C184.404 49.469 184.518 49.435 184.665 49.401C184.812 49.367 184.96 49.3387 185.107 49.316C185.266 49.2933 185.419 49.2763 185.566 49.265C185.713 49.2537 185.838 49.248 185.94 49.248C186.507 49.248 187.017 49.3443 187.47 49.537C187.935 49.7297 188.331 50.0017 188.66 50.353C188.989 50.7043 189.238 51.1237 189.408 51.611C189.589 52.0983 189.68 52.6367 189.68 53.226C189.68 53.8267 189.567 54.3707 189.34 54.858C189.125 55.3453 188.824 55.7647 188.439 56.116C188.054 56.4673 187.606 56.7393 187.096 56.932C186.586 57.1133 186.036 57.204 185.447 57.204C184.631 57.204 183.894 56.9943 183.237 56.575C182.58 56.1557 182.109 55.555 181.826 54.773L183.475 54.212C183.69 54.7673 183.979 55.1697 184.342 55.419C184.705 55.657 185.158 55.776 185.702 55.776C186.019 55.776 186.32 55.7193 186.603 55.606C186.898 55.4927 187.147 55.334 187.351 55.13C187.566 54.9147 187.736 54.654 187.861 54.348C187.986 54.042 188.048 53.6963 188.048 53.311C188.048 52.427 187.776 51.7697 187.232 51.339C186.699 50.897 186.002 50.676 185.141 50.676C184.835 50.676 184.444 50.7327 183.968 50.846C183.503 50.948 183.067 51.101 182.659 51.305L182.795 44.964H189.255V46.494ZM195.42 57.204C194.876 57.204 194.361 57.1247 193.873 56.966C193.397 56.796 192.984 56.5523 192.632 56.235C192.281 55.9177 192.003 55.5323 191.799 55.079C191.595 54.6257 191.493 54.1157 191.493 53.549C191.493 53.175 191.55 52.8293 191.663 52.512C191.788 52.1947 191.952 51.9113 192.156 51.662C192.36 51.4013 192.598 51.186 192.87 51.016C193.154 50.8347 193.46 50.6987 193.788 50.608V50.557C193.562 50.5003 193.335 50.3983 193.108 50.251C192.882 50.1037 192.678 49.9167 192.496 49.69C192.326 49.4633 192.185 49.1913 192.071 48.874C191.958 48.5453 191.901 48.1713 191.901 47.752C191.901 47.2987 191.992 46.8907 192.173 46.528C192.366 46.154 192.621 45.8367 192.938 45.576C193.267 45.3153 193.641 45.117 194.06 44.981C194.491 44.8337 194.944 44.76 195.42 44.76C195.896 44.76 196.344 44.8337 196.763 44.981C197.194 45.117 197.568 45.3153 197.885 45.576C198.214 45.8367 198.469 46.154 198.65 46.528C198.843 46.8907 198.939 47.2987 198.939 47.752C198.939 48.1713 198.883 48.5453 198.769 48.874C198.656 49.1913 198.509 49.4633 198.327 49.69C198.157 49.9167 197.959 50.1037 197.732 50.251C197.506 50.3983 197.279 50.5003 197.052 50.557V50.608C197.381 50.6987 197.681 50.8347 197.953 51.016C198.237 51.186 198.48 51.4013 198.684 51.662C198.888 51.9113 199.047 52.1947 199.16 52.512C199.285 52.8293 199.347 53.175 199.347 53.549C199.347 54.1157 199.245 54.6257 199.041 55.079C198.837 55.5323 198.56 55.9177 198.208 56.235C197.857 56.5523 197.438 56.796 196.95 56.966C196.474 57.1247 195.964 57.204 195.42 57.204ZM193.533 47.99C193.533 48.228 193.573 48.4603 193.652 48.687C193.743 48.9137 193.868 49.1177 194.026 49.299C194.185 49.469 194.378 49.6107 194.604 49.724C194.842 49.8373 195.114 49.894 195.42 49.894C195.738 49.894 196.01 49.843 196.236 49.741C196.474 49.6277 196.673 49.486 196.831 49.316C196.99 49.1347 197.109 48.9307 197.188 48.704C197.268 48.4773 197.307 48.2393 197.307 47.99C197.307 47.4347 197.132 46.9813 196.78 46.63C196.44 46.2673 195.987 46.086 195.42 46.086C194.899 46.086 194.451 46.2617 194.077 46.613C193.715 46.9643 193.533 47.4233 193.533 47.99ZM195.42 55.776C196.1 55.776 196.65 55.572 197.069 55.164C197.5 54.7447 197.715 54.2063 197.715 53.549C197.715 53.1863 197.653 52.869 197.528 52.597C197.415 52.3137 197.251 52.0813 197.035 51.9C196.831 51.7073 196.588 51.5657 196.304 51.475C196.032 51.373 195.738 51.322 195.42 51.322C194.752 51.3333 194.202 51.5487 193.771 51.968C193.341 52.376 193.125 52.903 193.125 53.549C193.125 53.9003 193.188 54.2177 193.312 54.501C193.437 54.773 193.601 55.0053 193.805 55.198C194.021 55.3793 194.264 55.521 194.536 55.623C194.82 55.725 195.114 55.776 195.42 55.776ZM204.867 57.204C204.323 57.204 203.807 57.1247 203.32 56.966C202.844 56.796 202.43 56.5523 202.079 56.235C201.727 55.9177 201.45 55.5323 201.246 55.079C201.042 54.6257 200.94 54.1157 200.94 53.549C200.94 53.175 200.996 52.8293 201.11 52.512C201.234 52.1947 201.399 51.9113 201.603 51.662C201.807 51.4013 202.045 51.186 202.317 51.016C202.6 50.8347 202.906 50.6987 203.235 50.608V50.557C203.008 50.5003 202.781 50.3983 202.555 50.251C202.328 50.1037 202.124 49.9167 201.943 49.69C201.773 49.4633 201.631 49.1913 201.518 48.874C201.404 48.5453 201.348 48.1713 201.348 47.752C201.348 47.2987 201.438 46.8907 201.62 46.528C201.812 46.154 202.067 45.8367 202.385 45.576C202.713 45.3153 203.087 45.117 203.507 44.981C203.937 44.8337 204.391 44.76 204.867 44.76C205.343 44.76 205.79 44.8337 206.21 44.981C206.64 45.117 207.014 45.3153 207.332 45.576C207.66 45.8367 207.915 46.154 208.097 46.528C208.289 46.8907 208.386 47.2987 208.386 47.752C208.386 48.1713 208.329 48.5453 208.216 48.874C208.102 49.1913 207.955 49.4633 207.774 49.69C207.604 49.9167 207.405 50.1037 207.179 50.251C206.952 50.3983 206.725 50.5003 206.499 50.557V50.608C206.827 50.6987 207.128 50.8347 207.4 51.016C207.683 51.186 207.927 51.4013 208.131 51.662C208.335 51.9113 208.493 52.1947 208.607 52.512C208.731 52.8293 208.794 53.175 208.794 53.549C208.794 54.1157 208.692 54.6257 208.488 55.079C208.284 55.5323 208.006 55.9177 207.655 56.235C207.303 56.5523 206.884 56.796 206.397 56.966C205.921 57.1247 205.411 57.204 204.867 57.204ZM202.98 47.99C202.98 48.228 203.019 48.4603 203.099 48.687C203.189 48.9137 203.314 49.1177 203.473 49.299C203.631 49.469 203.824 49.6107 204.051 49.724C204.289 49.8373 204.561 49.894 204.867 49.894C205.184 49.894 205.456 49.843 205.683 49.741C205.921 49.6277 206.119 49.486 206.278 49.316C206.436 49.1347 206.555 48.9307 206.635 48.704C206.714 48.4773 206.754 48.2393 206.754 47.99C206.754 47.4347 206.578 46.9813 206.227 46.63C205.887 46.2673 205.433 46.086 204.867 46.086C204.345 46.086 203.898 46.2617 203.524 46.613C203.161 46.9643 202.98 47.4233 202.98 47.99ZM204.867 55.776C205.547 55.776 206.096 55.572 206.516 55.164C206.946 54.7447 207.162 54.2063 207.162 53.549C207.162 53.1863 207.099 52.869 206.975 52.597C206.861 52.3137 206.697 52.0813 206.482 51.9C206.278 51.7073 206.034 51.5657 205.751 51.475C205.479 51.373 205.184 51.322 204.867 51.322C204.198 51.3333 203.648 51.5487 203.218 51.968C202.787 52.376 202.572 52.903 202.572 53.549C202.572 53.9003 202.634 54.2177 202.759 54.501C202.883 54.773 203.048 55.0053 203.252 55.198C203.467 55.3793 203.711 55.521 203.983 55.623C204.266 55.725 204.561 55.776 204.867 55.776ZM211.95 57.102C211.644 57.102 211.378 56.9943 211.151 56.779C210.936 56.5523 210.828 56.286 210.828 55.98C210.828 55.674 210.936 55.4133 211.151 55.198C211.378 54.9713 211.644 54.858 211.95 54.858C212.256 54.858 212.517 54.9713 212.732 55.198C212.959 55.4133 213.072 55.674 213.072 55.98C213.072 56.286 212.959 56.5523 212.732 56.779C212.517 56.9943 212.256 57.102 211.95 57.102ZM218.908 46.834L216.698 48.874L215.746 47.735L219.095 44.964H220.54V57H218.908V46.834ZM231.772 46.494H226.893L226.842 49.503C226.921 49.469 227.034 49.435 227.182 49.401C227.329 49.367 227.476 49.3387 227.624 49.316C227.782 49.2933 227.935 49.2763 228.083 49.265C228.23 49.2537 228.355 49.248 228.457 49.248C229.023 49.248 229.533 49.3443 229.987 49.537C230.451 49.7297 230.848 50.0017 231.177 50.353C231.505 50.7043 231.755 51.1237 231.925 51.611C232.106 52.0983 232.197 52.6367 232.197 53.226C232.197 53.8267 232.083 54.3707 231.857 54.858C231.641 55.3453 231.341 55.7647 230.956 56.116C230.57 56.4673 230.123 56.7393 229.613 56.932C229.103 57.1133 228.553 57.204 227.964 57.204C227.148 57.204 226.411 56.9943 225.754 56.575C225.096 56.1557 224.626 55.555 224.343 54.773L225.992 54.212C226.207 54.7673 226.496 55.1697 226.859 55.419C227.221 55.657 227.675 55.776 228.219 55.776C228.536 55.776 228.836 55.7193 229.12 55.606C229.414 55.4927 229.664 55.334 229.868 55.13C230.083 54.9147 230.253 54.654 230.378 54.348C230.502 54.042 230.565 53.6963 230.565 53.311C230.565 52.427 230.293 51.7697 229.749 51.339C229.216 50.897 228.519 50.676 227.658 50.676C227.352 50.676 226.961 50.7327 226.485 50.846C226.02 50.948 225.584 51.101 225.176 51.305L225.312 44.964H231.772V46.494ZM238.923 54.348H233.789V52.682L238.583 44.964H240.555V52.92H242.255V54.348H240.555V57H238.923V54.348ZM238.923 46.902H238.889L235.217 52.92H238.923V46.902Z" fill="#232626"/>
</svg>
